DrBeverlin-tgt_Regular.ufo
<glyph name="exclam" format="2">
  <advance width="475"/>
  <unicode hex="0021"/>
  <outline>
    <contour>
      <point x="121.261" y="1565.75" type="curve" smooth="yes"/>
      <point x="121.261" y="1193.38"/>
      <point x="123.889" y="820.983"/>
      <point x="123.889" y="448.593" type="curve" smooth="yes"/>
      <point x="123.889" y="421.23"/>
      <point x="137.434" y="407.529"/>
      <point x="164.855" y="407.529" type="curve" smooth="yes"/>
      <point x="301.423" y="407.529" type="line" smooth="yes"/>
      <point x="328.832" y="407.529"/>
      <point x="342.389" y="421.228"/>
      <point x="342.389" y="448.584" type="curve" smooth="yes"/>
      <point x="342.121" y="716.456" type="line" smooth="yes"/>
      <point x="342.121" y="999.565"/>
      <point x="344.79" y="1282.68"/>
      <point x="344.79" y="1565.77" type="curve" smooth="yes"/>
      <point x="344.79" y="1593.26"/>
      <point x="331.472" y="1607"/>
      <point x="303.825" y="1607" type="curve" smooth="yes"/>
      <point x="162.227" y="1607" type="line" smooth="yes"/>
      <point x="134.545" y="1607"/>
      <point x="121.261" y="1593.25"/>
    </contour>
    <contour>
      <point x="245.932" y="-11.4737" type="curve" smooth="yes"/>
      <point x="326.375" y="-11.4737"/>
      <point x="400.107" y="34.0377"/>
      <point x="400.107" y="121.387" type="curve" smooth="yes"/>
      <point x="400.107" y="205.213"/>
      <point x="326.699" y="257.018"/>
      <point x="248.093" y="257.018" type="curve" smooth="yes"/>
      <point x="172.652" y="257.018"/>
      <point x="76.0131" y="207.098"/>
      <point x="76.0131" y="121.387" type="curve" smooth="yes"/>
      <point x="76.0131" y="31.9707"/>
      <point x="167.535" y="-11.4737"/>
    </contour>
  </outline>
</glyph>
<glyph name="quotedbl" format="2">
  <advance width="621"/>
  <unicode hex="0022"/>
  <outline>
    <contour>
      <point x="252.582" y="1541.56" type="curve" smooth="yes"/>
      <point x="124.307" y="1541.56" type="line" smooth="yes"/>
      <point x="96.3764" y="1541.56"/>
      <point x="83.3376" y="1527.68"/>
      <point x="83.3376" y="1500.06" type="curve" smooth="yes"/>
      <point x="83.3376" y="1403.37"/>
      <point x="85.5144" y="1306.57"/>
      <point x="86.2722" y="1209.87" type="curve" smooth="yes"/>
      <point x="86.6854" y="1157.15"/>
      <point x="84.1374" y="1102.76"/>
      <point x="87.3217" y="1050.26" type="curve" smooth="yes"/>
      <point x="88.986" y="1022.81"/>
      <point x="99.369" y="1009.49"/>
      <point x="128.294" y="1009.49" type="curve" smooth="yes"/>
      <point x="246.136" y="1009.49" type="line" smooth="yes"/>
      <point x="274.72" y="1009.49"/>
      <point x="285.163" y="1022.66"/>
      <point x="287.09" y="1049.79" type="curve" smooth="yes"/>
      <point x="290.821" y="1102.31"/>
      <point x="288.8" y="1156.84"/>
      <point x="289.604" y="1209.6" type="curve" smooth="yes"/>
      <point x="291.079" y="1306.4"/>
      <point x="293.522" y="1403.36"/>
      <point x="293.522" y="1500.17" type="curve" smooth="yes"/>
      <point x="293.522" y="1527.72"/>
      <point x="280.398" y="1541.56"/>
    </contour>
    <contour>
      <point x="523.422" y="1541.56" type="curve" smooth="yes"/>
      <point x="396.158" y="1541.56" type="line" smooth="yes"/>
      <point x="369.065" y="1541.56"/>
      <point x="355.2" y="1527.85"/>
      <point x="355.2" y="1500.7" type="curve" smooth="yes"/>
      <point x="355.2" y="1350.63"/>
      <point x="354.427" y="1200.56"/>
      <point x="354.427" y="1050.48" type="curve" smooth="yes"/>
      <point x="354.427" y="1023.23"/>
      <point x="368.104" y="1009.49"/>
      <point x="395.384" y="1009.49" type="curve" smooth="yes"/>
      <point x="512.776" y="1009.49" type="line" smooth="yes"/>
      <point x="541.538" y="1009.49"/>
      <point x="551.92" y="1022.75"/>
      <point x="553.798" y="1050.01" type="curve" smooth="yes"/>
      <point x="558.074" y="1112.09"/>
      <point x="555.961" y="1176.19"/>
      <point x="557.454" y="1238.54" type="curve" smooth="yes"/>
      <point x="559.534" y="1325.37"/>
      <point x="564.35" y="1412.73"/>
      <point x="564.35" y="1499.54" type="curve" smooth="yes"/>
      <point x="564.35" y="1527.76"/>
      <point x="552.345" y="1541.56"/>
    </contour>
  </outline>
</glyph>
<glyph name="numbersign" format="2">
  <advance width="1360"/>
  <unicode hex="0023"/>
  <outline>
    <contour>
      <point x="580.327" y="1376.79" type="curve" smooth="yes"/>
      <point x="444.512" y="1376.79" type="line" smooth="yes"/>
      <point x="420.081" y="1376.79"/>
      <point x="407.778" y="1365.1"/>
      <point x="403.889" y="1341.44" type="curve" smooth="yes"/>
      <point x="389.919" y="1256.41"/>
      <point x="379.086" y="1170.5"/>
      <point x="366.616" y="1085.21" type="curve" smooth="yes"/>
      <point x="362.331" y="1055.9"/>
      <point x="359.845" y="1024.96"/>
      <point x="353.73" y="996.077" type="curve" smooth="yes"/>
      <point x="352.253" y="989.1"/>
      <point x="349.074" y="985.515"/>
      <point x="341.56" y="985.515" type="curve" smooth="yes"/>
      <point x="157.336" y="985.515" type="line" smooth="yes"/>
      <point x="132.301" y="985.515"/>
      <point x="120.082" y="973.603"/>
      <point x="116.874" y="949.246" type="curve" smooth="yes"/>
      <point x="111.108" y="905.463"/>
      <point x="103.93" y="855.349"/>
      <point x="103.93" y="811.379" type="curve" smooth="yes"/>
      <point x="103.93" y="784.55"/>
      <point x="119.916" y="773.881"/>
      <point x="145.344" y="773.881" type="curve" smooth="yes"/>
      <point x="315.764" y="773.881" type="line" smooth="yes"/>
      <point x="322.83" y="773.881"/>
      <point x="328.27" y="771.253"/>
      <point x="328.27" y="763.419" type="curve" smooth="yes"/>
      <point x="328.27" y="754.82"/>
      <point x="304.888" y="616.66"/>
      <point x="301.699" y="605.285" type="curve" smooth="yes"/>
      <point x="299.841" y="598.657"/>
      <point x="297.007" y="595.249"/>
      <point x="289.64" y="595.249" type="curve" smooth="yes"/>
      <point x="103.981" y="595.249" type="line" smooth="yes"/>
      <point x="78.4903" y="595.249"/>
      <point x="66.4867" y="583.021"/>
      <point x="62.8831" y="558.448" type="curve" smooth="yes"/>
      <point x="57.3131" y="520.468"/>
      <point x="44.4489" y="451.738"/>
      <point x="44.4489" y="416.218" type="curve" smooth="yes"/>
      <point x="44.4489" y="390.077"/>
      <point x="61.3436" y="380.551"/>
      <point x="85.5479" y="380.551" type="curve" smooth="yes"/>
      <point x="256.748" y="380.551" type="line" smooth="yes"/>
      <point x="267.827" y="380.551"/>
      <point x="268.895" y="375.91"/>
      <point x="268.895" y="366.54" type="curve" smooth="yes"/>
      <point x="268.895" y="337.81"/>
      <point x="259.336" y="302.585"/>
      <point x="254.749" y="273.8" type="curve" smooth="yes"/>
      <point x="242.72" y="198.306"/>
      <point x="229.127" y="123.072"/>
      <point x="217.003" y="47.6028" type="curve" smooth="yes"/>
      <point x="216.328" y="43.4025"/>
      <point x="215.855" y="39.1806"/>
      <point x="215.855" y="34.9208" type="curve" smooth="yes"/>
      <point x="215.855" y="8.79015"/>
      <point x="233.531" y="0"/>
      <point x="257.338" y="0" type="curve" smooth="yes"/>
      <point x="395.367" y="0" type="line" smooth="yes"/>
      <point x="419.829" y="0"/>
      <point x="432.068" y="11.7081"/>
      <point x="436.072" y="35.3449" type="curve" smooth="yes"/>
      <point x="450.046" y="117.84"/>
      <point x="462.011" y="200.934"/>
      <point x="475.042" y="283.61" type="curve" smooth="yes"/>
      <point x="479.523" y="312.037"/>
      <point x="482.146" y="342"/>
      <point x="488.23" y="370.02" type="curve" smooth="yes"/>
      <point x="489.74" y="376.973"/>
      <point x="492.895" y="380.551"/>
      <point x="500.402" y="380.551" type="curve" smooth="yes"/>
      <point x="725.036" y="380.551" type="line" smooth="yes"/>
      <point x="736.024" y="380.551"/>
      <point x="737.196" y="375.931"/>
      <point x="737.196" y="366.581" type="curve" smooth="yes"/>
      <point x="737.196" y="335.715"/>
      <point x="726.875" y="294.634"/>
      <point x="722.217" y="263.257" type="curve" smooth="yes"/>
      <point x="711.485" y="190.976"/>
      <point x="700.07" y="118.765"/>
      <point x="690.323" y="46.3418" type="curve" smooth="yes"/>
      <point x="689.848" y="42.8108"/>
      <point x="689.532" y="39.2643"/>
      <point x="689.532" y="35.6987" type="curve" smooth="yes"/>
      <point x="689.532" y="9.47239"/>
      <point x="706.518" y="0"/>
      <point x="730.771" y="0" type="curve" smooth="yes"/>
      <point x="867.957" y="0" type="line" smooth="yes"/>
      <point x="892.6" y="0"/>
      <point x="904.879" y="11.7954"/>
      <point x="908.628" y="35.6756" type="curve" smooth="yes"/>
      <point x="921.537" y="117.88"/>
      <point x="931.331" y="201.022"/>
      <point x="942.388" y="283.523" type="curve" smooth="yes"/>
      <point x="946.188" y="311.876"/>
      <point x="948.119" y="341.836"/>
      <point x="953.66" y="369.794" type="curve" smooth="yes"/>
      <point x="955.069" y="376.898"/>
      <point x="958.205" y="380.551"/>
      <point x="965.859" y="380.551" type="curve" smooth="yes"/>
      <point x="1176.11" y="380.551" type="line" smooth="yes"/>
      <point x="1202.51" y="380.551"/>
      <point x="1214.37" y="393.16"/>
      <point x="1217.43" y="418.632" type="curve" smooth="yes"/>
      <point x="1222.28" y="459.134"/>
      <point x="1232.55" y="520.142"/>
      <point x="1232.55" y="558.937" type="curve" smooth="yes"/>
      <point x="1232.55" y="585.194"/>
      <point x="1216.15" y="595.249"/>
      <point x="1191.56" y="595.249" type="curve" smooth="yes"/>
      <point x="995.56" y="595.249" type="line" smooth="yes"/>
      <point x="984.706" y="595.249"/>
      <point x="983.411" y="599.824"/>
      <point x="983.411" y="609.127" type="curve" smooth="yes"/>
      <point x="983.411" y="623.251"/>
      <point x="1004.43" y="748.478"/>
      <point x="1008.95" y="763.977" type="curve" smooth="yes"/>
      <point x="1010.86" y="770.517"/>
      <point x="1013.71" y="773.881"/>
      <point x="1020.99" y="773.881" type="curve" smooth="yes"/>
      <point x="1233.16" y="773.881" type="line" smooth="yes"/>
      <point x="1258.6" y="773.881"/>
      <point x="1270.75" y="786.025"/>
      <point x="1273.84" y="810.741" type="curve" smooth="yes"/>
      <point x="1279.32" y="854.562"/>
      <point x="1286.47" y="904.141"/>
      <point x="1286.47" y="948.109" type="curve" smooth="yes"/>
      <point x="1286.47" y="974.775"/>
      <point x="1270.58" y="985.515"/>
      <point x="1245.27" y="985.515" type="curve" smooth="yes"/>
      <point x="1049.78" y="985.515" type="line" smooth="yes"/>
      <point x="1038.34" y="985.515"/>
      <point x="1037.65" y="990.263"/>
      <point x="1037.65" y="999.773" type="curve" smooth="yes"/>
      <point x="1037.65" y="1025.87"/>
      <point x="1048.74" y="1068.01"/>
      <point x="1053.21" y="1095.25" type="curve" smooth="yes"/>
      <point x="1065.96" y="1173.04"/>
      <point x="1079.61" y="1250.65"/>
      <point x="1092.92" y="1328.34" type="curve" smooth="yes"/>
      <point x="1093.69" y="1332.88"/>
      <point x="1094.25" y="1337.44"/>
      <point x="1094.25" y="1342.05" type="curve" smooth="yes"/>
      <point x="1094.25" y="1368.27"/>
      <point x="1076.26" y="1376.79"/>
      <point x="1052.51" y="1376.79" type="curve" smooth="yes"/>
      <point x="915.588" y="1376.79" type="line" smooth="yes"/>
      <point x="891.505" y="1376.79"/>
      <point x="879.2" y="1365.28"/>
      <point x="875.047" y="1342" type="curve" smooth="yes"/>
      <point x="859.873" y="1256.93"/>
      <point x="847.781" y="1170.84"/>
      <point x="834.646" y="1085.41" type="curve" smooth="yes"/>
      <point x="830.126" y="1056.01"/>
      <point x="827.483" y="1025.05"/>
      <point x="821.281" y="996.059" type="curve" smooth="yes"/>
      <point x="819.791" y="989.096"/>
      <point x="816.613" y="985.515"/>
      <point x="809.11" y="985.515" type="curve" smooth="yes"/>
      <point x="582.114" y="985.515" type="line" smooth="yes"/>
      <point x="570.874" y="985.515"/>
      <point x="569.968" y="990.21"/>
      <point x="569.968" y="999.666" type="curve" smooth="yes"/>
      <point x="569.968" y="1027.79"/>
      <point x="580.258" y="1066.7"/>
      <point x="584.675" y="1095.44" type="curve" smooth="yes"/>
      <point x="596.669" y="1173.47"/>
      <point x="609.192" y="1251.44"/>
      <point x="620.81" y="1329.52" type="curve" smooth="yes"/>
      <point x="621.397" y="1333.47"/>
      <point x="621.802" y="1337.43"/>
      <point x="621.802" y="1341.42" type="curve" smooth="yes"/>
      <point x="621.802" y="1367.69"/>
      <point x="604.429" y="1376.79"/>
    </contour>
    <contour>
      <point x="545.49" y="773.881" type="curve"/>
      <point x="793.891" y="773.881" type="line"/>
      <point x="785.058" y="714.236"/>
      <point x="775.333" y="654.728"/>
      <point x="765.454" y="595.249" type="curve"/>
      <point x="514.002" y="595.249" type="line"/>
      <point x="525.951" y="654.524"/>
      <point x="536.687" y="714.054"/>
    </contour>
  </outline>
</glyph>
<glyph name="dollar" format="2">
  <advance width="881"/>
  <unicode hex="0024"/>
  <outline>
    <contour>
      <point x="452.377" y="-143.792" type="curve" smooth="yes"/>
      <point x="479.756" y="-143.792"/>
      <point x="493.337" y="-130.025"/>
      <point x="493.337" y="-102.714" type="curve" smooth="yes"/>
      <point x="493.112" y="-24.5048" type="line" smooth="yes"/>
      <point x="493.089" y="-16.6775"/>
      <point x="496.917" y="-13.4612"/>
      <point x="504.195" y="-12.1133" type="curve" smooth="yes"/>
      <point x="548.14" y="-3.97517"/>
      <point x="587.792" y="3.66647"/>
      <point x="628.768" y="22.7218" type="curve" smooth="yes"/>
      <point x="790.854" y="98.0973"/>
      <point x="855.528" y="269.663"/>
      <point x="855.528" y="439.073" type="curve" smooth="yes"/>
      <point x="855.528" y="659.732"/>
      <point x="762.766" y="788.999"/>
      <point x="564.874" y="880.664" type="curve"/>
      <point x="558.988" y="888.026" type="line"/>
      <point x="559.185" y="1024.28"/>
      <point x="560.279" y="1160.54"/>
      <point x="560.279" y="1296.79" type="curve" smooth="yes"/>
      <point x="560.279" y="1303.24"/>
      <point x="562.484" y="1309.2"/>
      <point x="569.954" y="1309.2" type="curve" smooth="yes"/>
      <point x="621.387" y="1309.2"/>
      <point x="739.298" y="1228.65"/>
      <point x="765.844" y="1228.65" type="curve" smooth="yes"/>
      <point x="782.941" y="1228.65"/>
      <point x="791.319" y="1241.37"/>
      <point x="798.615" y="1254.77" type="curve" smooth="yes"/>
      <point x="809.249" y="1274.31"/>
      <point x="864.289" y="1385.12"/>
      <point x="864.289" y="1399.64" type="curve" smooth="yes"/>
      <point x="864.289" y="1413.12"/>
      <point x="857.189" y="1420.74"/>
      <point x="847.513" y="1428.9" type="curve" smooth="yes"/>
      <point x="793.826" y="1474.19"/>
      <point x="708.608" y="1512.53"/>
      <point x="640.724" y="1529.33" type="curve" smooth="yes"/>
      <point x="618.139" y="1534.92"/>
      <point x="595.661" y="1537.02"/>
      <point x="573.012" y="1541.35" type="curve" smooth="yes"/>
      <point x="565.6" y="1542.76"/>
      <point x="561.748" y="1545.7"/>
      <point x="561.808" y="1553.8" type="curve" smooth="yes"/>
      <point x="562.018" y="1581.98"/>
      <point x="562.438" y="1610.16"/>
      <point x="562.438" y="1638.34" type="curve" smooth="yes"/>
      <point x="562.438" y="1694.57"/>
      <point x="497.862" y="1679.61"/>
      <point x="459.767" y="1679.61" type="curve" smooth="yes" name=".hr01"/>
      <point x="432.471" y="1679.61"/>
      <point x="418.807" y="1665.86"/>
      <point x="418.807" y="1638.59" type="curve" smooth="yes"/>
      <point x="418.924" y="1552.89" type="line" smooth="yes"/>
      <point x="418.935" y="1545.28"/>
      <point x="415.228" y="1542.08"/>
      <point x="408.184" y="1540.56" type="curve" smooth="yes"/>
      <point x="368.873" y="1532.07"/>
      <point x="333.308" y="1524.3"/>
      <point x="296.681" y="1506.67" type="curve" smooth="yes"/>
      <point x="150.922" y="1436.49"/>
      <point x="85.4884" y="1284.62"/>
      <point x="85.4884" y="1129.08" type="curve" smooth="yes"/>
      <point x="85.4884" y="919.174"/>
      <point x="172.976" y="814.781"/>
      <point x="346.17" y="711.861" type="curve" smooth="yes"/>
      <point x="350.326" y="709.391"/>
      <point x="352.706" y="705.915"/>
      <point x="352.706" y="700.967" type="curve" smooth="yes"/>
      <point x="352.706" y="545.447"/>
      <point x="351.971" y="389.927"/>
      <point x="351.971" y="234.41" type="curve" smooth="yes"/>
      <point x="351.971" y="228.236"/>
      <point x="350.136" y="221.759"/>
      <point x="342.706" y="221.759" type="curve" smooth="yes"/>
      <point x="304.002" y="221.759"/>
      <point x="202.472" y="289.531"/>
      <point x="169.121" y="313.143" type="curve" smooth="yes"/>
      <point x="159.719" y="319.799"/>
      <point x="149.63" y="326.898"/>
      <point x="137.524" y="326.898" type="curve" smooth="yes"/>
      <point x="121.087" y="326.898"/>
      <point x="111.933" y="313.314"/>
      <point x="104.367" y="300.819" type="curve" smooth="yes"/>
      <point x="91.9829" y="280.369"/>
      <point x="30.3366" y="171.96"/>
      <point x="30.3366" y="155.882" type="curve" smooth="yes"/>
      <point x="30.3366" y="142.44"/>
      <point x="38.0276" y="134.419"/>
      <point x="47.7104" y="126.401" type="curve" smooth="yes"/>
      <point x="106.216" y="77.9583"/>
      <point x="197.747" y="34.7146"/>
      <point x="269.969" y="11.8516" type="curve" smooth="yes"/>
      <point x="293.476" y="4.41026"/>
      <point x="317.257" y="0.112827"/>
      <point x="340.884" y="-6.30434" type="curve" smooth="yes"/>
      <point x="347.564" y="-8.11852"/>
      <point x="351.035" y="-11.2124"/>
      <point x="350.998" y="-18.5475" type="curve" smooth="yes"/>
      <point x="350.58" y="-102.629" type="line" smooth="yes"/>
      <point x="350.58" y="-158.503"/>
      <point x="414.535" y="-143.792"/>
    </contour>
    <contour>
      <point x="492.122" y="629.571" type="line"/>
      <point x="567.887" y="575.431"/>
      <point x="604.604" y="502.038"/>
      <point x="604.604" y="409.343" type="curve" smooth="yes"/>
      <point x="604.604" y="330.066"/>
      <point x="569.01" y="254.508"/>
      <point x="492.553" y="223.295" type="curve"/>
    </contour>
    <contour>
      <point x="419.413" y="971.033" type="line"/>
      <point x="366.912" y="1014.25"/>
      <point x="334.336" y="1069.16"/>
      <point x="334.336" y="1138.18" type="curve" smooth="yes"/>
      <point x="334.336" y="1202.18"/>
      <point x="357.772" y="1271.79"/>
      <point x="419.199" y="1301.2" type="curve"/>
    </contour>
  </outline>
</glyph>
<glyph name="percent" format="2">
  <advance width="1507"/>
  <unicode hex="0025"/>
  <outline>
    <contour>
      <point x="360" y="591.256" type="curve" smooth="yes"/>
      <point x="577.809" y="591.256"/>
      <point x="662.861" y="778.56"/>
      <point x="662.861" y="970.322" type="curve" smooth="yes"/>
      <point x="662.861" y="1164.98"/>
      <point x="573.305" y="1348.7"/>
      <point x="354.629" y="1348.7" type="curve" smooth="yes"/>
      <point x="138.81" y="1348.7"/>
      <point x="56.9578" y="1174.83"/>
      <point x="56.9578" y="983.132" type="curve" smooth="yes"/>
      <point x="56.9578" y="786.468"/>
      <point x="132.027" y="591.256"/>
    </contour>
    <contour>
      <point x="262.865" y="969.535" type="curve" smooth="yes"/>
      <point x="262.865" y="1037.66"/>
      <point x="260.352" y="1174.43"/>
      <point x="357.285" y="1174.43" type="curve" smooth="yes"/>
      <point x="451.919" y="1174.43"/>
      <point x="453.805" y="1036.99"/>
      <point x="453.805" y="969.535" type="curve" smooth="yes"/>
      <point x="453.805" y="905.479"/>
      <point x="450.93" y="764.66"/>
      <point x="359.954" y="764.66" type="curve" smooth="yes"/>
      <point x="270.141" y="764.66"/>
      <point x="262.865" y="905.169"/>
    </contour>
    <contour>
      <point x="1159.83" y="-46.2122" type="curve" smooth="yes"/>
      <point x="1375.75" y="-46.2122"/>
      <point x="1454.16" y="130.636"/>
      <point x="1454.16" y="320.816" type="curve" smooth="yes"/>
      <point x="1454.16" y="514.764"/>
      <point x="1375.94" y="713.008"/>
      <point x="1151.55" y="713.008" type="curve" smooth="yes"/>
      <point x="936.155" y="713.008"/>
      <point x="847.648" y="532.417"/>
      <point x="847.648" y="340.554" type="curve" smooth="yes"/>
      <point x="847.648" y="140.304"/>
      <point x="932.9" y="-46.2122"/>
    </contour>
    <contour>
      <point x="1052.95" y="334.575" type="curve" smooth="yes"/>
      <point x="1052.95" y="402.053"/>
      <point x="1052.46" y="538.352"/>
      <point x="1148.07" y="538.352" type="curve" smooth="yes"/>
      <point x="1241.55" y="538.352"/>
      <point x="1245.44" y="401.733"/>
      <point x="1245.44" y="334.575" type="curve" smooth="yes"/>
      <point x="1245.44" y="269.961"/>
      <point x="1245" y="128.33"/>
      <point x="1152.41" y="128.33" type="curve" smooth="yes"/>
      <point x="1061.62" y="128.33"/>
      <point x="1052.95" y="269.2"/>
    </contour>
    <contour>
      <point x="1265" y="1349.71" type="curve" smooth="yes"/>
      <point x="1128.04" y="1349.71" type="line" smooth="yes"/>
      <point x="1113.3" y="1349.71"/>
      <point x="1102.82" y="1343.63"/>
      <point x="1094.26" y="1331.89" type="curve" smooth="yes"/>
      <point x="1055.69" y="1279.05"/>
      <point x="1020.13" y="1223.03"/>
      <point x="983.56" y="1168.75" type="curve" smooth="yes"/>
      <point x="900.938" y="1046.11"/>
      <point x="819.131" y="922.931"/>
      <point x="737.4" y="799.702" type="curve" smooth="yes"/>
      <point x="573.895" y="553.18"/>
      <point x="407.171" y="309.055"/>
      <point x="242.26" y="63.5308" type="curve" smooth="yes"/>
      <point x="234.912" y="52.5915"/>
      <point x="226.071" y="39.2669"/>
      <point x="226.071" y="25.3888" type="curve" smooth="yes"/>
      <point x="226.071" y="1.0478"/>
      <point x="259.322" y="-0.78955"/>
      <point x="275.425" y="-0.996894" type="curve" smooth="yes"/>
      <point x="410.113" y="-2.73125" type="line" smooth="yes"/>
      <point x="425.043" y="-2.9235"/>
      <point x="435.655" y="3.13668"/>
      <point x="444.361" y="14.9922" type="curve" smooth="yes"/>
      <point x="483.149" y="67.8115"/>
      <point x="518.885" y="123.891"/>
      <point x="555.63" y="178.2" type="curve" smooth="yes"/>
      <point x="638.648" y="300.9"/>
      <point x="720.781" y="424.196"/>
      <point x="802.772" y="547.584" type="curve" smooth="yes"/>
      <point x="966.783" y="794.404"/>
      <point x="1133.79" y="1039.07"/>
      <point x="1298.72" y="1285.22" type="curve" smooth="yes"/>
      <point x="1306.13" y="1296.27"/>
      <point x="1315.1" y="1309.76"/>
      <point x="1315.1" y="1323.77" type="curve" smooth="yes"/>
      <point x="1315.1" y="1348.41"/>
      <point x="1281.05" y="1349.71"/>
    </contour>
  </outline>
</glyph>
<glyph name="ampersand" format="2">
  <advance width="1409"/>
  <unicode hex="0026"/>
  <outline>
    <contour>
      <point x="1089.33" y="386.759" type="curve"/>
      <point x="1087.75" y="398.236" type="line"/>
      <point x="1108.51" y="454.503"/>
      <point x="1267.54" y="869.601"/>
      <point x="1267.54" y="888.614" type="curve" smooth="yes"/>
      <point x="1267.54" y="913.898"/>
      <point x="1243.93" y="918.609"/>
      <point x="1223.56" y="918.609" type="curve" smooth="yes"/>
      <point x="1089.37" y="918.609" type="line" smooth="yes"/>
      <point x="1068.86" y="918.609"/>
      <point x="1059.1" y="909.916"/>
      <point x="1051.03" y="892.018" type="curve" smooth="yes"/>
      <point x="1041.47" y="870.83"/>
      <point x="1034.37" y="847.38"/>
      <point x="1026.24" y="825.525" type="curve" smooth="yes"/>
      <point x="1000.21" y="755.513"/>
      <point x="976.348" y="683.925"/>
      <point x="948.376" y="614.73" type="curve" smooth="yes"/>
      <point x="946.743" y="610.692"/>
      <point x="943.979" y="603.015"/>
      <point x="938.23" y="603.015" type="curve" smooth="yes"/>
      <point x="933.293" y="603.015"/>
      <point x="929.391" y="608.415"/>
      <point x="926.862" y="611.799" type="curve" smooth="yes"/>
      <point x="871.36" y="686.067"/>
      <point x="818.628" y="762.848"/>
      <point x="764.649" y="838.26" type="curve" smooth="yes"/>
      <point x="714.052" y="908.946"/>
      <point x="661.578" y="978.803"/>
      <point x="612.413" y="1050.45" type="curve" smooth="yes"/>
      <point x="579.167" y="1098.9"/>
      <point x="543.518" y="1173.38"/>
      <point x="543.518" y="1233.01" type="curve" smooth="yes"/>
      <point x="543.518" y="1321.09"/>
      <point x="608.585" y="1386.82"/>
      <point x="696.712" y="1386.82" type="curve" smooth="yes"/>
      <point x="816.625" y="1386.82"/>
      <point x="907.388" y="1262.67"/>
      <point x="937.727" y="1262.67" type="curve" smooth="yes"/>
      <point x="951.92" y="1262.67"/>
      <point x="961.301" y="1273.36"/>
      <point x="969.494" y="1283.35" type="curve" smooth="yes"/>
      <point x="985.369" y="1302.71"/>
      <point x="1056.95" y="1394.85"/>
      <point x="1056.95" y="1413.84" type="curve" smooth="yes"/>
      <point x="1056.95" y="1423.7"/>
      <point x="1052.08" y="1431.71"/>
      <point x="1045.84" y="1438.92" type="curve" smooth="yes"/>
      <point x="952.144" y="1547.31"/>
      <point x="801.057" y="1603.03"/>
      <point x="660.508" y="1603.03" type="curve" smooth="yes"/>
      <point x="454.664" y="1603.03"/>
      <point x="290.498" y="1461.63"/>
      <point x="290.498" y="1250.18" type="curve" smooth="yes"/>
      <point x="290.498" y="1145.13"/>
      <point x="346.951" y="1025.63"/>
      <point x="407.052" y="941.574" type="curve" smooth="yes"/>
      <point x="412.151" y="934.442"/>
      <point x="435.401" y="905.808"/>
      <point x="435.401" y="898.337" type="curve" smooth="yes"/>
      <point x="435.401" y="892.666"/>
      <point x="429.701" y="890.155"/>
      <point x="425.318" y="888.46" type="curve" smooth="yes"/>
      <point x="387.036" y="873.656"/>
      <point x="351.027" y="858.606"/>
      <point x="315.745" y="837.274" type="curve" smooth="yes"/>
      <point x="171.975" y="750.35"/>
      <point x="68.8179" y="598.657"/>
      <point x="68.8179" y="427.18" type="curve" smooth="yes"/>
      <point x="68.8179" y="144.51"/>
      <point x="298.557" y="-23.1013"/>
      <point x="566.017" y="-23.1013" type="curve" smooth="yes"/>
      <point x="722.261" y="-23.1013"/>
      <point x="855.867" y="30.1376"/>
      <point x="959.643" y="148.26" type="curve" smooth="yes"/>
      <point x="962.215" y="151.188"/>
      <point x="965.42" y="154.627"/>
      <point x="969.703" y="154.627" type="curve" smooth="yes"/>
      <point x="979.547" y="154.627"/>
      <point x="1062.23" y="33.2812"/>
      <point x="1076.7" y="16.4857" type="curve" smooth="yes"/>
      <point x="1086.21" y="5.44476"/>
      <point x="1094.44" y="0"/>
      <point x="1109.53" y="0" type="curve" smooth="yes"/>
      <point x="1293.54" y="0" type="line" smooth="yes"/>
      <point x="1310.1" y="0"/>
      <point x="1345.12" y="1.28119"/>
      <point x="1345.12" y="25.4211" type="curve" smooth="yes"/>
      <point x="1345.12" y="40.144"/>
      <point x="1334.23" y="54.5535"/>
      <point x="1326.31" y="65.8282" type="curve" smooth="yes"/>
      <point x="1250.09" y="174.375"/>
      <point x="1167.41" y="279.38"/>
    </contour>
    <contour>
      <point x="840.608" y="338.743" type="curve"/>
      <point x="786.822" y="247.212"/>
      <point x="694.842" y="205.527"/>
      <point x="591.108" y="205.527" type="curve" smooth="yes"/>
      <point x="445.735" y="205.527"/>
      <point x="322.195" y="301.43"/>
      <point x="322.195" y="453.479" type="curve" smooth="yes"/>
      <point x="322.195" y="587.634"/>
      <point x="433.99" y="707.584"/>
      <point x="567.287" y="718.966" type="curve"/>
      <point x="658.278" y="592.142"/>
      <point x="749.112" y="465.205"/>
    </contour>
  </outline>
</glyph>
<glyph name="quotesingle" format="2">
  <advance width="352"/>
  <unicode hex="0027"/>
  <outline>
    <contour>
      <point x="251.7" y="1541.56" type="curve" smooth="yes"/>
      <point x="106.616" y="1541.56" type="line" smooth="yes"/>
      <point x="79.0501" y="1541.56"/>
      <point x="65.6508" y="1527.75"/>
      <point x="65.6508" y="1500.34" type="curve" smooth="yes"/>
      <point x="65.6508" y="1350.35"/>
      <point x="67.5828" y="1200.35"/>
      <point x="67.5828" y="1050.35" type="curve" smooth="yes"/>
      <point x="67.5828" y="1023.2"/>
      <point x="81.4521" y="1009.49"/>
      <point x="108.549" y="1009.49" type="curve" smooth="yes"/>
      <point x="239.194" y="1009.49" type="line" smooth="yes"/>
      <point x="267.713" y="1009.49"/>
      <point x="278.137" y="1022.64"/>
      <point x="280.203" y="1049.68" type="curve" smooth="yes"/>
      <point x="284.946" y="1111.77"/>
      <point x="283.286" y="1175.99"/>
      <point x="285.098" y="1238.37" type="curve" smooth="yes"/>
      <point x="287.621" y="1325.25"/>
      <point x="292.604" y="1412.75"/>
      <point x="292.604" y="1499.63" type="curve" smooth="yes"/>
      <point x="292.604" y="1527.79"/>
      <point x="280.527" y="1541.56"/>
    </contour>
  </outline>
</glyph>
<glyph name="parenleft" format="2">
  <advance width="719"/>
  <unicode hex="0028"/>
  <outline>
    <contour>
      <point x="102.761" y="622.196" type="curve" smooth="yes"/>
      <point x="102.761" y="290.221"/>
      <point x="212.054" y="-85.3216"/>
      <point x="443.298" y="-331.294" type="curve" smooth="yes"/>
      <point x="450.714" y="-339.183"/>
      <point x="459.848" y="-345.117"/>
      <point x="471.044" y="-345.117" type="curve" smooth="yes"/>
      <point x="487.578" y="-345.117"/>
      <point x="591.677" y="-288.117"/>
      <point x="611.272" y="-276.511" type="curve" smooth="yes"/>
      <point x="623.638" y="-269.187"/>
      <point x="638.055" y="-259.936"/>
      <point x="638.055" y="-243.501" type="curve" smooth="yes"/>
      <point x="638.055" y="-231.24"/>
      <point x="630.451" y="-220.843"/>
      <point x="623.321" y="-211.667" type="curve" smooth="yes"/>
      <point x="593.486" y="-173.264"/>
      <point x="564.633" y="-135.732"/>
      <point x="538.884" y="-94.3355" type="curve" smooth="yes"/>
      <point x="406.422" y="118.625"/>
      <point x="348.021" y="373.594"/>
      <point x="348.021" y="622.772" type="curve" smooth="yes"/>
      <point x="348.021" y="871.764"/>
      <point x="406.058" y="1125.34"/>
      <point x="537.217" y="1338.78" type="curve" smooth="yes"/>
      <point x="562.648" y="1380.17"/>
      <point x="591.156" y="1417.81"/>
      <point x="620.583" y="1456.31" type="curve" smooth="yes"/>
      <point x="627.57" y="1465.45"/>
      <point x="634.954" y="1475.77"/>
      <point x="634.954" y="1487.88" type="curve" smooth="yes"/>
      <point x="634.954" y="1504.28"/>
      <point x="620.63" y="1513.6"/>
      <point x="608.229" y="1520.86" type="curve" smooth="yes"/>
      <point x="588.891" y="1532.18"/>
      <point x="486.204" y="1588.3"/>
      <point x="469.807" y="1588.3" type="curve" smooth="yes"/>
      <point x="458.573" y="1588.3"/>
      <point x="449.43" y="1582.33"/>
      <point x="442.014" y="1574.39" type="curve" smooth="yes"/>
      <point x="214.032" y="1330.5"/>
      <point x="102.761" y="950.811"/>
    </contour>
  </outline>
</glyph>
<glyph name="parenright" format="2">
  <advance width="719"/>
  <unicode hex="0029"/>
  <outline>
    <contour>
      <point x="616.377" y="622.196" type="curve" smooth="yes"/>
      <point x="616.377" y="950.61"/>
      <point x="505.211" y="1328.79"/>
      <point x="279.243" y="1573.9" type="curve" smooth="yes"/>
      <point x="271.813" y="1581.96"/>
      <point x="262.632" y="1588.09"/>
      <point x="251.275" y="1588.09" type="curve" smooth="yes"/>
      <point x="234.71" y="1588.09"/>
      <point x="131.29" y="1530.82"/>
      <point x="111.758" y="1519.13" type="curve" smooth="yes"/>
      <point x="99.4573" y="1511.77"/>
      <point x="85.2382" y="1502.5"/>
      <point x="85.2382" y="1486.15" type="curve" smooth="yes"/>
      <point x="85.2382" y="1473.98"/>
      <point x="92.7166" y="1463.64"/>
      <point x="99.7738" y="1454.5" type="curve" smooth="yes"/>
      <point x="129.225" y="1416.33"/>
      <point x="157.739" y="1379.04"/>
      <point x="183.18" y="1337.96" type="curve" smooth="yes"/>
      <point x="314.74" y="1125.5"/>
      <point x="372.015" y="872.718"/>
      <point x="372.015" y="624.493" type="curve" smooth="yes"/>
      <point x="372.015" y="374.95"/>
      <point x="313.057" y="119.226"/>
      <point x="181.082" y="-94.3382" type="curve" smooth="yes"/>
      <point x="155.351" y="-135.977"/>
      <point x="126.508" y="-173.782"/>
      <point x="96.691" y="-212.448" type="curve" smooth="yes"/>
      <point x="89.6092" y="-221.632"/>
      <point x="82.0624" y="-232.029"/>
      <point x="82.0624" y="-244.257" type="curve" smooth="yes"/>
      <point x="82.0624" y="-260.786"/>
      <point x="96.6263" y="-269.999"/>
      <point x="109.085" y="-277.276" type="curve" smooth="yes"/>
      <point x="128.73" y="-288.751"/>
      <point x="233.468" y="-345.224"/>
      <point x="249.95" y="-345.224" type="curve" smooth="yes"/>
      <point x="261.153" y="-345.224"/>
      <point x="270.289" y="-339.3"/>
      <point x="277.702" y="-331.394" type="curve" smooth="yes"/>
      <point x="507.747" y="-86.0566"/>
      <point x="616.377" y="291.592"/>
    </contour>
  </outline>
</glyph>
<glyph name="asterisk" format="2">
  <advance width="729"/>
  <unicode hex="002A"/>
  <outline>
    <contour>
      <point x="393.939" y="914.616" type="curve" smooth="yes"/>
      <point x="421.738" y="914.616"/>
      <point x="434.399" y="928.197"/>
      <point x="435.197" y="955.531" type="curve" smooth="yes"/>
      <point x="436.243" y="991.334"/>
      <point x="435.249" y="1027.43"/>
      <point x="436.96" y="1063.18" type="curve" smooth="yes"/>
      <point x="437.234" y="1068.92"/>
      <point x="438.027" y="1076.72"/>
      <point x="445.577" y="1076.72" type="curve" smooth="yes"/>
      <point x="462.75" y="1076.72"/>
      <point x="582.563" y="1003.75"/>
      <point x="606.601" y="1003.75" type="curve" smooth="yes"/>
      <point x="621.402" y="1003.75"/>
      <point x="631.158" y="1013.69"/>
      <point x="638.334" y="1025.59" type="curve" smooth="yes"/>
      <point x="648.786" y="1042.91"/>
      <point x="681.262" y="1093.75"/>
      <point x="681.262" y="1110.99" type="curve" smooth="yes"/>
      <point x="681.262" y="1127.36"/>
      <point x="668.424" y="1137.02"/>
      <point x="654.966" y="1143.51" type="curve" smooth="yes"/>
      <point x="637.526" y="1151.92"/>
      <point x="522.761" y="1201.05"/>
      <point x="522.761" y="1210.35" type="curve" smooth="yes"/>
      <point x="522.761" y="1218.94"/>
      <point x="642.886" y="1273.09"/>
      <point x="661.069" y="1282.04" type="curve" smooth="yes"/>
      <point x="674.465" y="1288.63"/>
      <point x="687.154" y="1298.38"/>
      <point x="687.154" y="1314.71" type="curve" smooth="yes"/>
      <point x="687.154" y="1331.08"/>
      <point x="660.598" y="1373.39"/>
      <point x="651.306" y="1389.64" type="curve" smooth="yes"/>
      <point x="644.056" y="1402.32"/>
      <point x="634.047" y="1412.94"/>
      <point x="618.438" y="1412.94" type="curve" smooth="yes"/>
      <point x="593.405" y="1412.94"/>
      <point x="467.19" y="1342.36"/>
      <point x="450.552" y="1342.36" type="curve" smooth="yes"/>
      <point x="442.978" y="1342.36"/>
      <point x="441.967" y="1350.32"/>
      <point x="442.087" y="1356.18" type="curve" smooth="yes"/>
      <point x="444.533" y="1475.61" type="line" smooth="yes"/>
      <point x="445.102" y="1503.39"/>
      <point x="431.362" y="1517.41"/>
      <point x="403.582" y="1517.41" type="curve" smooth="yes"/>
      <point x="332.868" y="1517.41" type="line" smooth="yes"/>
      <point x="305.551" y="1517.41"/>
      <point x="291.81" y="1503.62"/>
      <point x="291.908" y="1476.3" type="curve" smooth="yes"/>
      <point x="292.343" y="1356.11" type="line" smooth="yes"/>
      <point x="292.364" y="1350.34"/>
      <point x="291.253" y="1342.45"/>
      <point x="283.818" y="1342.45" type="curve" smooth="yes"/>
      <point x="267.551" y="1342.45"/>
      <point x="143.651" y="1414.54"/>
      <point x="119.044" y="1414.54" type="curve" smooth="yes"/>
      <point x="103.567" y="1414.54"/>
      <point x="93.6127" y="1403.91"/>
      <point x="86.436" y="1391.34" type="curve" smooth="yes"/>
      <point x="77.246" y="1375.25"/>
      <point x="50.7673" y="1332.36"/>
      <point x="50.7673" y="1316.06" type="curve" smooth="yes"/>
      <point x="50.7673" y="1300.38"/>
      <point x="62.4085" y="1290.64"/>
      <point x="75.2653" y="1283.98" type="curve" smooth="yes"/>
      <point x="92.391" y="1275.1"/>
      <point x="207.65" y="1221.48"/>
      <point x="207.65" y="1212.72" type="curve" smooth="yes"/>
      <point x="207.65" y="1203.5"/>
      <point x="97.3974" y="1156.92"/>
      <point x="80.7473" y="1149.28" type="curve" smooth="yes"/>
      <point x="66.6975" y="1142.82"/>
      <point x="52.7604" y="1133.08"/>
      <point x="52.7604" y="1115.99" type="curve" smooth="yes"/>
      <point x="52.7604" y="1098.48"/>
      <point x="84.5747" y="1048.58"/>
      <point x="95.0269" y="1031.16" type="curve" smooth="yes"/>
      <point x="102.238" y="1019.14"/>
      <point x="112.018" y="1009.35"/>
      <point x="126.915" y="1009.35" type="curve" smooth="yes"/>
      <point x="151.237" y="1009.35"/>
      <point x="269.858" y="1077.45"/>
      <point x="284.551" y="1077.45" type="curve" smooth="yes"/>
      <point x="291.968" y="1077.45"/>
      <point x="293.072" y="1069.49"/>
      <point x="293.08" y="1063.76" type="curve" smooth="yes"/>
      <point x="293.236" y="955.517" type="line" smooth="yes"/>
      <point x="293.236" y="899.476"/>
      <point x="355.656" y="914.616"/>
    </contour>
  </outline>
</glyph>
<glyph name="plus" format="2">
  <advance width="827"/>
  <unicode hex="002B"/>
  <outline>
    <contour>
      <point x="302.145" y="716.994" type="line"/>
      <point x="302.102" y="612.516" type="line" smooth="yes"/>
      <point x="302.102" y="604.455"/>
      <point x="297.868" y="600.239"/>
      <point x="289.814" y="600.239" type="curve" smooth="yes"/>
      <point x="146.492" y="600.239" type="line" smooth="yes"/>
      <point x="119.435" y="600.239"/>
      <point x="105.514" y="586.517"/>
      <point x="105.514" y="559.385" type="curve" smooth="yes"/>
      <point x="105.514" y="515.858"/>
      <point x="104.872" y="472.33"/>
      <point x="104.872" y="428.804" type="curve" smooth="yes"/>
      <point x="104.872" y="401.37"/>
      <point x="118.256" y="387.546"/>
      <point x="145.849" y="387.546" type="curve" smooth="yes"/>
      <point x="289.39" y="387.546" type="line" smooth="yes"/>
      <point x="297.5" y="387.546"/>
      <point x="301.678" y="383.317"/>
      <point x="301.678" y="375.226" type="curve" smooth="yes"/>
      <point x="301.678" y="300.323"/>
      <point x="300.862" y="225.42"/>
      <point x="300.862" y="150.517" type="curve" smooth="yes"/>
      <point x="300.862" y="123.153"/>
      <point x="314.354" y="109.359"/>
      <point x="341.829" y="109.359" type="curve" smooth="yes"/>
      <point x="473.422" y="109.359" type="line" smooth="yes"/>
      <point x="500.731" y="109.359"/>
      <point x="514.473" y="123.147"/>
      <point x="514.382" y="150.456" type="curve" smooth="yes"/>
      <point x="513.627" y="375.23" type="line" smooth="yes"/>
      <point x="513.6" y="383.316"/>
      <point x="517.835" y="387.546"/>
      <point x="525.914" y="387.546" type="curve" smooth="yes"/>
      <point x="669.469" y="387.546" type="line" smooth="yes"/>
      <point x="697.047" y="387.546"/>
      <point x="710.446" y="401.366"/>
      <point x="710.446" y="428.791" type="curve" smooth="yes"/>
      <point x="710.446" y="472.321"/>
      <point x="709.831" y="515.851"/>
      <point x="709.831" y="559.38" type="curve" smooth="yes"/>
      <point x="709.831" y="586.516"/>
      <point x="695.917" y="600.239"/>
      <point x="668.853" y="600.239" type="curve" smooth="yes"/>
      <point x="525.539" y="600.239" type="line" smooth="yes"/>
      <point x="517.484" y="600.239"/>
      <point x="513.249" y="604.456"/>
      <point x="513.251" y="612.517" type="curve" smooth="yes"/>
      <point x="513.298" y="838.707" type="line" smooth="yes"/>
      <point x="513.303" y="865.931"/>
      <point x="499.562" y="879.675"/>
      <point x="472.338" y="879.675" type="curve" smooth="yes"/>
      <point x="343.053" y="879.675" type="line" smooth="yes"/>
      <point x="315.771" y="879.675"/>
      <point x="302.086" y="865.918"/>
      <point x="302.086" y="838.662" type="curve" smooth="yes"/>
    </contour>
  </outline>
</glyph>
<glyph name="comma" format="2">
  <advance width="440"/>
  <unicode hex="002C"/>
  <outline>
    <contour>
      <point x="349.01" y="186.504" type="curve" smooth="yes"/>
      <point x="222.147" y="186.504" type="line" smooth="yes"/>
      <point x="203.986" y="186.504"/>
      <point x="193.341" y="178.752"/>
      <point x="185.115" y="163.048" type="curve" smooth="yes"/>
      <point x="157.272" y="109.898"/>
      <point x="133.374" y="53.6884"/>
      <point x="107.401" y="-0.487614" type="curve" smooth="yes"/>
      <point x="75.7345" y="-66.5375"/>
      <point x="41.9714" y="-131.744"/>
      <point x="10.7721" y="-197.968" type="curve" smooth="yes"/>
      <point x="6.11091" y="-207.862"/>
      <point x="1.32392" y="-218.39"/>
      <point x="1.32392" y="-229.596" type="curve" smooth="yes"/>
      <point x="1.32392" y="-254.292"/>
      <point x="28.4729" y="-257.72"/>
      <point x="47.4774" y="-257.72" type="curve" smooth="yes"/>
      <point x="157.133" y="-257.72" type="line" smooth="yes"/>
      <point x="173.968" y="-257.72"/>
      <point x="184.644" y="-250.571"/>
      <point x="193.064" y="-236.38" type="curve" smooth="yes"/>
      <point x="224.424" y="-183.534"/>
      <point x="251.982" y="-127.202"/>
      <point x="280.773" y="-72.8559" type="curve" smooth="yes"/>
      <point x="315.842" y="-6.65745"/>
      <point x="352.497" y="59.4352"/>
      <point x="385.348" y="126.733" type="curve" smooth="yes"/>
      <point x="390.196" y="136.666"/>
      <point x="395.22" y="147.31"/>
      <point x="395.22" y="158.654" type="curve" smooth="yes"/>
      <point x="395.22" y="183.185"/>
      <point x="367.777" y="186.504"/>
    </contour>
  </outline>
</glyph>
<glyph name="hyphen" format="2">
  <advance width="791"/>
  <unicode hex="002D"/>
  <outline>
    <contour>
      <point x="103.45" y="402.827" type="curve" smooth="yes"/>
      <point x="103.45" y="375.388"/>
      <point x="116.823" y="361.563"/>
      <point x="144.426" y="361.563" type="curve" smooth="yes"/>
      <point x="633.9" y="361.563" type="line" smooth="yes"/>
      <point x="661.485" y="361.563"/>
      <point x="674.876" y="375.384"/>
      <point x="674.876" y="402.813" type="curve" smooth="yes"/>
      <point x="674.876" y="446.689"/>
      <point x="674.226" y="490.565"/>
      <point x="674.226" y="534.442" type="curve" smooth="yes"/>
      <point x="674.226" y="561.567"/>
      <point x="660.296" y="575.287"/>
      <point x="633.249" y="575.287" type="curve" smooth="yes"/>
      <point x="145.109" y="575.287" type="line" smooth="yes"/>
      <point x="118.071" y="575.287"/>
      <point x="104.132" y="561.568"/>
      <point x="104.132" y="534.448" type="curve" smooth="yes"/>
      <point x="104.132" y="490.574"/>
      <point x="103.45" y="446.7"/>
    </contour>
  </outline>
</glyph>
<glyph name="period" format="2">
  <advance width="440"/>
  <unicode hex="002E"/>
  <outline>
    <contour>
      <point x="76.908" y="132.411" type="curve" smooth="yes"/>
      <point x="76.908" y="54.8269"/>
      <point x="144.399" y="0"/>
      <point x="219.16" y="0" type="curve" smooth="yes"/>
      <point x="294.15" y="0"/>
      <point x="363.086" y="55.4163"/>
      <point x="363.086" y="133.413" type="curve" smooth="yes"/>
      <point x="363.086" y="207.254"/>
      <point x="291.015" y="265.556"/>
      <point x="220.208" y="265.556" type="curve" smooth="yes"/>
      <point x="149.185" y="265.556"/>
      <point x="76.908" y="206.339"/>
    </contour>
  </outline>
</glyph>
<glyph name="slash" format="2">
  <advance width="586"/>
  <unicode hex="002F"/>
  <outline>
    <contour>
      <point x="593.663" y="1576.79" type="curve" smooth="yes"/>
      <point x="465.433" y="1576.79" type="line" smooth="yes"/>
      <point x="444.061" y="1576.79"/>
      <point x="433.148" y="1567.25"/>
      <point x="426.255" y="1547.72" type="curve" smooth="yes"/>
      <point x="403.578" y="1483.48"/>
      <point x="386.499" y="1415.46"/>
      <point x="367.135" y="1350.05" type="curve" smooth="yes"/>
      <point x="332.971" y="1234.64"/>
      <point x="299.318" y="1119.08"/>
      <point x="265.807" y="1003.48" type="curve" smooth="yes"/>
      <point x="170.039" y="673.124"/>
      <point x="73.552" y="343.21"/>
      <point x="-26.0799" y="13.9986" type="curve" smooth="yes"/>
      <point x="-28.2101" y="6.95967"/>
      <point x="-29.8857" y="-0.327352"/>
      <point x="-29.8857" y="-7.72553" type="curve" smooth="yes"/>
      <point x="-29.8857" y="-33.4289"/>
      <point x="-8.27016" y="-39.1774"/>
      <point x="13.0865" y="-39.1774" type="curve" smooth="yes"/>
      <point x="140.329" y="-39.1774" type="line" smooth="yes"/>
      <point x="161.77" y="-39.1774"/>
      <point x="172.68" y="-29.6038"/>
      <point x="179.542" y="-10.0004" type="curve" smooth="yes"/>
      <point x="202.048" y="54.2982"/>
      <point x="218.936" y="122.36"/>
      <point x="238.152" y="187.817" type="curve" smooth="yes"/>
      <point x="272.053" y="303.299"/>
      <point x="305.51" y="418.911"/>
      <point x="338.918" y="534.536" type="curve" smooth="yes"/>
      <point x="434.401" y="865.001"/>
      <point x="531.429" y="1194.65"/>
      <point x="632.769" y="1523.37" type="curve" smooth="yes"/>
      <point x="634.973" y="1530.52"/>
      <point x="636.721" y="1537.93"/>
      <point x="636.721" y="1545.46" type="curve" smooth="yes"/>
      <point x="636.721" y="1571.14"/>
      <point x="614.926" y="1576.79"/>
    </contour>
  </outline>
</glyph>
<glyph name="zero" format="2">
  <advance width="1223"/>
  <unicode hex="0030"/>
  <outline>
    <contour>
      <point x="608.061" y="-1.00421" type="curve" smooth="yes"/>
      <point x="979.351" y="-1.00421"/>
      <point x="1167.12" y="236.631"/>
      <point x="1167.12" y="594.264" type="curve" smooth="yes"/>
      <point x="1167.12" y="967.15"/>
      <point x="993.573" y="1203.5"/>
      <point x="602.767" y="1203.5" type="curve" smooth="yes"/>
      <point x="208.046" y="1203.5"/>
      <point x="56.0126" y="962.266"/>
      <point x="56.0126" y="593.284" type="curve" smooth="yes"/>
      <point x="56.0126" y="236.547"/>
      <point x="235.144" y="-1.00421"/>
    </contour>
    <contour>
      <point x="611.793" y="243.669" type="curve" smooth="yes"/>
      <point x="394.973" y="243.669"/>
      <point x="288.882" y="390.942"/>
      <point x="288.882" y="596.648" type="curve" smooth="yes"/>
      <point x="288.882" y="805.768"/>
      <point x="386.552" y="957.619"/>
      <point x="610.821" y="957.619" type="curve" smooth="yes"/>
      <point x="831.644" y="957.619"/>
      <point x="935.224" y="811.261"/>
      <point x="935.224" y="602.441" type="curve" smooth="yes"/>
      <point x="935.224" y="395.463"/>
      <point x="831.844" y="243.669"/>
    </contour>
  </outline>
</glyph>
<glyph name="one" format="2">
  <advance width="573"/>
  <unicode hex="0031"/>
  <outline>
    <contour>
      <point x="34.0645" y="1148.13" type="curve" smooth="yes"/>
      <point x="34.0645" y="1093.54"/>
      <point x="35.0919" y="1038.95"/>
      <point x="35.0919" y="984.364" type="curve" smooth="yes"/>
      <point x="35.0919" y="898.876"/>
      <point x="201.511" y="974.718"/>
      <point x="201.511" y="931.3" type="curve" smooth="yes"/>
      <point x="201.511" y="634.578"/>
      <point x="200.26" y="337.855"/>
      <point x="200.26" y="41.1384" type="curve" smooth="yes"/>
      <point x="200.26" y="13.7649"/>
      <point x="213.748" y="0"/>
      <point x="241.224" y="0" type="curve" smooth="yes"/>
      <point x="407.72" y="0" type="line" smooth="yes"/>
      <point x="435.4" y="0"/>
      <point x="448.688" y="13.8058"/>
      <point x="448.688" y="41.2925" type="curve" smooth="yes"/>
      <point x="448.688" y="410.268"/>
      <point x="447.155" y="779.268"/>
      <point x="447.155" y="1148.26" type="curve" smooth="yes"/>
      <point x="447.155" y="1175.66"/>
      <point x="433.713" y="1189.44"/>
      <point x="406.186" y="1189.44" type="curve" smooth="yes"/>
      <point x="75.0382" y="1189.44" type="line" smooth="yes"/>
      <point x="47.3451" y="1189.44"/>
      <point x="34.0645" y="1175.63"/>
    </contour>
  </outline>
</glyph>
<glyph name="two" format="2">
  <advance width="993"/>
  <unicode hex="0032"/>
  <outline>
    <contour>
      <point x="172.24" y="0" type="curve" smooth="yes"/>
      <point x="886.125" y="0" type="line" smooth="yes"/>
      <point x="914.692" y="0"/>
      <point x="927.102" y="13.8146"/>
      <point x="927.102" y="41.843" type="curve" smooth="yes"/>
      <point x="927.102" y="86.0938"/>
      <point x="928.664" y="134.309"/>
      <point x="924.608" y="178.197" type="curve" smooth="yes"/>
      <point x="922.102" y="205.317"/>
      <point x="912.819" y="218.54"/>
      <point x="883.629" y="218.54" type="curve" smooth="yes"/>
      <point x="583.115" y="218.54" type="line" smooth="yes"/>
      <point x="579.024" y="218.54"/>
      <point x="566.525" y="218.569"/>
      <point x="566.525" y="225.841" type="curve" smooth="yes"/>
      <point x="566.525" y="248.338"/>
      <point x="902.668" y="542.055"/>
      <point x="902.668" y="809.808" type="curve" smooth="yes"/>
      <point x="902.668" y="1050.96"/>
      <point x="710.142" y="1203.45"/>
      <point x="479.24" y="1203.45" type="curve" smooth="yes"/>
      <point x="245.291" y="1203.45"/>
      <point x="54.1081" y="1061.68"/>
      <point x="54.1081" y="814.798" type="curve" smooth="yes"/>
      <point x="54.1081" y="710.201"/>
      <point x="99.2512" y="586.613"/>
      <point x="181.747" y="519.016" type="curve" smooth="yes"/>
      <point x="188.617" y="513.387"/>
      <point x="196.404" y="508.811"/>
      <point x="205.576" y="508.811" type="curve" smooth="yes"/>
      <point x="216.886" y="508.811"/>
      <point x="226.557" y="515.823"/>
      <point x="233.81" y="523.833" type="curve" smooth="yes"/>
      <point x="252.488" y="544.464"/>
      <point x="325.885" y="614.088"/>
      <point x="325.885" y="640.069" type="curve" smooth="yes"/>
      <point x="325.885" y="666.358"/>
      <point x="271.206" y="709.865"/>
      <point x="271.206" y="799.828" type="curve" smooth="yes"/>
      <point x="271.206" y="914.816"/>
      <point x="359.85" y="983.517"/>
      <point x="469.502" y="983.517" type="curve" smooth="yes"/>
      <point x="591.483" y="983.517"/>
      <point x="663.973" y="893.227"/>
      <point x="663.973" y="775.877" type="curve" smooth="yes"/>
      <point x="663.973" y="744.218"/>
      <point x="652.776" y="706.237"/>
      <point x="642.642" y="676.452" type="curve" smooth="yes"/>
      <point x="561.25" y="437.242"/>
      <point x="313.611" y="244.629"/>
      <point x="143.726" y="66.8672" type="curve" smooth="yes"/>
      <point x="134.112" y="56.8077"/>
      <point x="116.727" y="39.3403"/>
      <point x="116.727" y="23.6038" type="curve" smooth="yes"/>
      <point x="116.727" y="0.508811"/>
      <point x="158.051" y="0"/>
    </contour>
  </outline>
</glyph>
<glyph name="three" format="2">
  <advance width="965"/>
  <unicode hex="0033"/>
  <outline>
    <contour>
      <point x="771.765" y="1189.44" type="curve" smooth="yes"/>
      <point x="166.275" y="1189.44" type="line" smooth="yes"/>
      <point x="138.418" y="1189.44"/>
      <point x="125.296" y="1175.57"/>
      <point x="125.296" y="1147.99" type="curve" smooth="yes"/>
      <point x="125.296" y="1109.11"/>
      <point x="124.229" y="1068.93"/>
      <point x="126.409" y="1030.19" type="curve" smooth="yes"/>
      <point x="127.95" y="1002.82"/>
      <point x="138.747" y="989.51"/>
      <point x="167.389" y="989.51" type="curve" smooth="yes"/>
      <point x="496.654" y="989.51" type="line" smooth="yes"/>
      <point x="501.448" y="989.51"/>
      <point x="511.683" y="989.126"/>
      <point x="511.683" y="981.747" type="curve" smooth="yes"/>
      <point x="511.683" y="968.908"/>
      <point x="235.115" y="587.249"/>
      <point x="235.063" y="578.783" type="curve"/>
      <point x="235.858" y="575.603"/>
      <point x="238.556" y="572.191"/>
      <point x="242.116" y="572.191" type="curve"/>
      <point x="245.146" y="572.441" type="line"/>
      <point x="286.467" y="580.659"/>
      <point x="324.463" y="588.329"/>
      <point x="366.92" y="588.329" type="curve" smooth="yes"/>
      <point x="476.044" y="588.329"/>
      <point x="629.824" y="546.077"/>
      <point x="629.824" y="411.526" type="curve" smooth="yes"/>
      <point x="629.824" y="279.772"/>
      <point x="495.652" y="232.415"/>
      <point x="384.767" y="232.415" type="curve" smooth="yes"/>
      <point x="276.746" y="232.415"/>
      <point x="211.971" y="307.076"/>
      <point x="186.232" y="307.076" type="curve" smooth="yes"/>
      <point x="169.437" y="307.076"/>
      <point x="159.258" y="292.357"/>
      <point x="151.064" y="279.886" type="curve" smooth="yes"/>
      <point x="136.757" y="258.111"/>
      <point x="64.5466" y="143.52"/>
      <point x="64.5466" y="126.114" type="curve" smooth="yes"/>
      <point x="64.5466" y="114.081"/>
      <point x="71.0694" y="106.251"/>
      <point x="79.6171" y="98.7059" type="curve" smooth="yes"/>
      <point x="161.462" y="26.4618"/>
      <point x="312.516" y="-14.0605"/>
      <point x="420.034" y="-14.0605" type="curve" smooth="yes"/>
      <point x="666.669" y="-14.0605"/>
      <point x="881.134" y="135.368"/>
      <point x="881.134" y="398.081" type="curve" smooth="yes"/>
      <point x="881.134" y="603.017"/>
      <point x="767.511" y="721.104"/>
      <point x="571.568" y="758.982" type="curve" smooth="yes"/>
      <point x="566.694" y="759.925"/>
      <point x="558.438" y="761.362"/>
      <point x="558.438" y="768.163" type="curve" smooth="yes"/>
      <point x="558.438" y="778.96"/>
      <point x="779.578" y="1086.86"/>
      <point x="805.222" y="1124.66" type="curve" smooth="yes"/>
      <point x="812.728" y="1135.73"/>
      <point x="822.187" y="1149.61"/>
      <point x="822.187" y="1163.64" type="curve" smooth="yes"/>
      <point x="822.187" y="1187.8"/>
      <point x="788.813" y="1189.44"/>
    </contour>
  </outline>
</glyph>
<glyph name="four" format="2">
  <advance width="1024"/>
  <unicode hex="0034"/>
  <outline>
    <contour>
      <point x="607.851" y="0" type="curve" smooth="yes"/>
      <point x="774.338" y="0" type="line" smooth="yes"/>
      <point x="802.379" y="0"/>
      <point x="815.311" y="13.9033"/>
      <point x="815.311" y="41.5828" type="curve" smooth="yes"/>
      <point x="815.311" y="111.095"/>
      <point x="812.779" y="180.643"/>
      <point x="812.779" y="250.164" type="curve" smooth="yes" name=".hr01"/>
      <point x="812.779" y="293.451"/>
      <point x="966.392" y="217.94"/>
      <point x="966.392" y="304.131" type="curve" smooth="yes"/>
      <point x="966.392" y="340.987"/>
      <point x="967.201" y="379.12"/>
      <point x="965.104" y="415.861" type="curve" smooth="yes"/>
      <point x="960.202" y="501.761"/>
      <point x="814.706" y="424.816"/>
      <point x="811.112" y="468.695" type="curve" smooth="yes"/>
      <point x="809.103" y="493.218"/>
      <point x="810.863" y="519.521"/>
      <point x="810.772" y="544.228" type="curve" smooth="yes"/>
      <point x="810.453" y="716.877" type="line" smooth="yes"/>
      <point x="810.453" y="865.276"/>
      <point x="812.567" y="1013.68"/>
      <point x="812.567" y="1162.06" type="curve" smooth="yes"/>
      <point x="812.567" y="1189.6"/>
      <point x="799.362" y="1203.45"/>
      <point x="771.591" y="1203.45" type="curve" smooth="yes"/>
      <point x="589.971" y="1203.45" type="line" smooth="yes"/>
      <point x="573.812" y="1203.45"/>
      <point x="563.01" y="1196.64"/>
      <point x="554.6" y="1183.13" type="curve" smooth="yes"/>
      <point x="475.881" y="1056.66"/>
      <point x="404.453" y="924.039"/>
      <point x="329.891" y="794.972" type="curve" smooth="yes"/>
      <point x="239.106" y="637.821"/>
      <point x="145.326" y="482.182"/>
      <point x="55.3848" y="324.598" type="curve" smooth="yes"/>
      <point x="49.3776" y="314.073"/>
      <point x="42.797" y="302.074"/>
      <point x="42.797" y="289.516" type="curve" smooth="yes"/>
      <point x="42.797" y="265.118"/>
      <point x="72.5914" y="262.571"/>
      <point x="90.6375" y="262.571" type="curve" smooth="yes"/>
      <point x="554.132" y="262.571" type="line" smooth="yes"/>
      <point x="562.214" y="262.571"/>
      <point x="566.402" y="258.392"/>
      <point x="566.42" y="250.31" type="curve" smooth="yes"/>
      <point x="566.892" y="40.8678" type="line" smooth="yes"/>
      <point x="566.953" y="13.7068"/>
      <point x="580.69" y="0"/>
    </contour>
    <contour>
      <point x="330.856" y="456.475" type="line"/>
      <point x="409.517" y="575.865"/>
      <point x="487.679" y="695.582"/>
      <point x="566.012" y="815.187" type="curve"/>
      <point x="566.125" y="456.475" type="line"/>
    </contour>
  </outline>
</glyph>
<glyph name="five" format="2">
  <advance width="975"/>
  <unicode hex="0035"/>
  <outline>
    <contour>
      <point x="454.214" y="-14.0986" type="curve" smooth="yes"/>
      <point x="684.583" y="-14.0986"/>
      <point x="902.995" y="144.197"/>
      <point x="902.995" y="388.545" type="curve" smooth="yes"/>
      <point x="902.995" y="631.539"/>
      <point x="699.432" y="759.952" name=".hr01"/>
      <point x="475.607" y="759.952" type="curve" smooth="yes"/>
      <point x="441.766" y="759.952"/>
      <point x="406.431" y="753.165"/>
      <point x="375.352" y="753.165" type="curve" smooth="yes"/>
      <point x="365.937" y="753.165"/>
      <point x="361.241" y="754.278"/>
      <point x="361.184" y="765.362" type="curve" smooth="yes"/>
      <point x="360.217" y="954.188" type="line" smooth="yes"/>
      <point x="360.175" y="962.329"/>
      <point x="364.363" y="966.539"/>
      <point x="372.504" y="966.539" type="curve" smooth="yes"/>
      <point x="769.086" y="966.539" type="line" smooth="yes"/>
      <point x="797.702" y="966.539"/>
      <point x="808.613" y="979.867"/>
      <point x="810.064" y="1007.26" type="curve" smooth="yes"/>
      <point x="812.521" y="1053.63"/>
      <point x="811.229" y="1101.53"/>
      <point x="811.229" y="1148.04" type="curve" smooth="yes"/>
      <point x="811.229" y="1175.58"/>
      <point x="798.047" y="1189.44"/>
      <point x="770.252" y="1189.44" type="curve" smooth="yes"/>
      <point x="189.066" y="1189.44" type="line" smooth="yes"/>
      <point x="161.241" y="1189.44"/>
      <point x="148.088" y="1175.58"/>
      <point x="148.088" y="1148.01" type="curve" smooth="yes"/>
      <point x="148.088" y="962.607"/>
      <point x="150.142" y="777.175"/>
      <point x="150.142" y="591.749" type="curve" smooth="yes"/>
      <point x="150.142" y="570.934"/>
      <point x="153.598" y="544.93"/>
      <point x="180.029" y="544.93" type="curve" smooth="yes"/>
      <point x="190.8" y="544.93"/>
      <point x="201" y="548.678"/>
      <point x="210.927" y="552.387" type="curve" smooth="yes"/>
      <point x="271.011" y="574.836"/>
      <point x="330.179" y="591.314"/>
      <point x="394.911" y="591.314" type="curve" smooth="yes"/>
      <point x="511.653" y="591.314"/>
      <point x="650.577" y="556.914"/>
      <point x="650.577" y="413.524" type="curve" smooth="yes"/>
      <point x="650.577" y="284.927"/>
      <point x="510.274" y="233.489"/>
      <point x="401.918" y="233.489" type="curve" smooth="yes"/>
      <point x="331.56" y="233.489"/>
      <point x="271.949" y="245.209"/>
      <point x="208.273" y="275.386" type="curve" smooth="yes"/>
      <point x="199.805" y="279.399"/>
      <point x="191.245" y="283.142"/>
      <point x="181.668" y="283.142" type="curve" smooth="yes"/>
      <point x="165.982" y="283.142"/>
      <point x="156.952" y="273.442"/>
      <point x="148.348" y="261.696" type="curve" smooth="yes"/>
      <point x="133.411" y="241.302"/>
      <point x="65.515" y="145.254"/>
      <point x="65.515" y="126.614" type="curve" smooth="yes"/>
      <point x="65.515" y="113.99"/>
      <point x="72.9105" y="106.015"/>
      <point x="82.0897" y="98.5327" type="curve" smooth="yes"/>
      <point x="174.866" y="22.9123"/>
      <point x="336.551" y="-14.0986"/>
    </contour>
  </outline>
</glyph>
<glyph name="six" format="2">
  <advance width="1051"/>
  <unicode hex="0036"/>
  <outline>
    <contour>
      <point x="531.612" y="-14.0605" type="curve" smooth="yes"/>
      <point x="777.144" y="-14.0605"/>
      <point x="1004.95" y="131.94"/>
      <point x="1004.95" y="397.424" type="curve" smooth="yes"/>
      <point x="1004.95" y="636.804"/>
      <point x="832.899" y="782.896"/>
      <point x="600.177" y="782.896" type="curve" smooth="yes"/>
      <point x="533.158" y="782.896"/>
      <point x="472.288" y="768.121"/>
      <point x="413.69" y="735.509" type="curve" smooth="yes"/>
      <point x="407.076" y="731.828"/>
      <point x="384.394" y="717.513"/>
      <point x="375.448" y="717.513" type="curve" smooth="yes"/>
      <point x="373.534" y="717.513"/>
      <point x="372.196" y="718.439"/>
      <point x="372.196" y="720.462" type="curve" smooth="yes"/>
      <point x="372.196" y="728.375"/>
      <point x="389.526" y="751.446"/>
      <point x="392.998" y="756.325" type="curve" smooth="yes"/>
      <point x="461.449" y="852.504"/>
      <point x="560.284" y="927.597"/>
      <point x="664.607" y="981.132" type="curve" smooth="yes"/>
      <point x="687.677" y="992.971"/>
      <point x="711.685" y="1002.42"/>
      <point x="734.87" y="1013.77" type="curve" smooth="yes"/>
      <point x="748.633" y="1020.51"/>
      <point x="767.819" y="1029.15"/>
      <point x="767.819" y="1047.74" type="curve" smooth="yes"/>
      <point x="767.819" y="1060.63"/>
      <point x="759.056" y="1071.54"/>
      <point x="751.399" y="1080.9" type="curve" smooth="yes"/>
      <point x="719.721" y="1119.59"/>
      <point x="685.289" y="1159.81"/>
      <point x="650.688" y="1195.87" type="curve" smooth="yes"/>
      <point x="642.597" y="1204.3"/>
      <point x="634.142" y="1210.93"/>
      <point x="621.849" y="1210.93" type="curve" smooth="yes"/>
      <point x="614.239" y="1210.93"/>
      <point x="607.051" y="1208.22"/>
      <point x="600.49" y="1204.58" type="curve" smooth="yes"/>
      <point x="327.88" y="1053.02"/>
      <point x="46.8153" y="799.419"/>
      <point x="46.8153" y="463.056" type="curve" smooth="yes"/>
      <point x="46.8153" y="177.095"/>
      <point x="248.159" y="-14.0605"/>
    </contour>
    <contour>
      <point x="520.255" y="215.503" type="line" smooth="yes"/>
      <point x="420.202" y="215.503"/>
      <point x="297.403" y="270.571"/>
      <point x="297.403" y="385.548" type="curve" smooth="yes"/>
      <point x="297.403" y="512.803"/>
      <point x="406.611" y="568.354"/>
      <point x="521.505" y="568.354" type="curve" smooth="yes"/>
      <point x="624.914" y="568.354"/>
      <point x="751.692" y="521.284"/>
      <point x="751.692" y="398.537" type="curve" smooth="yes"/>
      <point x="751.692" y="280.064"/>
      <point x="635.828" y="215.495"/>
      <point x="529.191" y="215.495" type="curve" smooth="yes"/>
    </contour>
  </outline>
</glyph>
<glyph name="seven" format="2">
  <advance width="903"/>
  <unicode hex="0037"/>
  <outline>
    <contour>
      <point x="818.707" y="1189.44" type="curve" smooth="yes"/>
      <point x="97.7152" y="1189.44" type="line" smooth="yes"/>
      <point x="69.7655" y="1189.44"/>
      <point x="56.7348" y="1175.57"/>
      <point x="56.7348" y="1147.94" type="curve" smooth="yes"/>
      <point x="56.7348" y="1094.52"/>
      <point x="54.029" y="1037.3"/>
      <point x="58.3386" y="984.27" type="curve" smooth="yes" name=".hr01"/>
      <point x="60.562" y="956.911"/>
      <point x="69.9494" y="943.571"/>
      <point x="99.321" y="943.571" type="curve" smooth="yes"/>
      <point x="507.51" y="943.571" type="line" smooth="yes"/>
      <point x="513.313" y="943.571"/>
      <point x="520.807" y="942.098"/>
      <point x="520.807" y="934.714" type="curve" smooth="yes"/>
      <point x="520.807" y="932.177"/>
      <point x="519.8" y="928.934"/>
      <point x="518.885" y="926.63" type="curve" smooth="yes"/>
      <point x="403.131" y="635.285"/>
      <point x="279.512" y="347.109"/>
      <point x="160.51" y="57.1191" type="curve" smooth="yes"/>
      <point x="156.891" y="48.3008"/>
      <point x="153.591" y="38.939"/>
      <point x="153.591" y="29.2652" type="curve" smooth="yes"/>
      <point x="153.591" y="4.3124"/>
      <point x="178.544" y="0"/>
      <point x="198.239" y="0" type="curve" smooth="yes"/>
      <point x="384.261" y="0" type="line" smooth="yes"/>
      <point x="403.998" y="0"/>
      <point x="414.385" y="8.48417"/>
      <point x="422.321" y="25.8539" type="curve" smooth="yes"/>
      <point x="443.335" y="71.8434"/>
      <point x="460.07" y="121.479"/>
      <point x="478.554" y="168.643" type="curve" smooth="yes"/>
      <point x="576.083" y="418.87" type="line" smooth="yes"/>
      <point x="668.697" y="657.313"/>
      <point x="763.335" y="894.895"/>
      <point x="856.719" y="1133.02" type="curve" smooth="yes"/>
      <point x="860.058" y="1141.53"/>
      <point x="863.009" y="1150.55"/>
      <point x="863.009" y="1159.81" type="curve" smooth="yes"/>
      <point x="863.009" y="1184.83"/>
      <point x="838.677" y="1189.44"/>
    </contour>
  </outline>
</glyph>
<glyph name="eight" format="2">
  <advance width="938"/>
  <unicode hex="0038"/>
  <outline>
    <contour>
      <point x="25.466" y="387.546" type="curve" smooth="yes"/>
      <point x="25.466" y="151.521"/>
      <point x="235.688" y="-14.1072"/>
      <point x="461.435" y="-14.1072" type="curve" smooth="yes"/>
      <point x="688.255" y="-14.1072"/>
      <point x="912.861" y="139.827"/>
      <point x="912.861" y="383.59" type="curve" smooth="yes"/>
      <point x="912.861" y="530.272"/>
      <point x="832.126" y="639.32"/>
      <point x="707.299" y="708.037" type="curve" smooth="yes"/>
      <point x="703.347" y="710.213"/>
      <point x="696.326" y="713.539"/>
      <point x="696.326" y="719.196" type="curve" smooth="yes"/>
      <point x="696.326" y="724.433"/>
      <point x="702.083" y="728.285"/>
      <point x="705.603" y="730.994" type="curve" smooth="yes"/>
      <point x="779.163" y="787.601"/>
      <point x="807.317" y="844.076"/>
      <point x="807.317" y="937.58" type="curve" smooth="yes"/>
      <point x="807.317" y="1107.22"/>
      <point x="629.093" y="1203.51"/>
      <point x="477.743" y="1203.51" type="curve" smooth="yes"/>
      <point x="311.889" y="1203.51"/>
      <point x="138.613" y="1111.27"/>
      <point x="138.613" y="925.598" type="curve" smooth="yes"/>
      <point x="138.613" y="840.418"/>
      <point x="166.87" y="783.759"/>
      <point x="232.846" y="730.935" type="curve" smooth="yes"/>
      <point x="236.319" y="728.154"/>
      <point x="241.879" y="724.318"/>
      <point x="241.879" y="719.114" type="curve" smooth="yes"/>
      <point x="241.879" y="713.511"/>
      <point x="235.082" y="710.193"/>
      <point x="231.145" y="707.996" type="curve" smooth="yes"/>
      <point x="107.393" y="638.954"/>
      <point x="25.466" y="534.333"/>
    </contour>
    <contour>
      <point x="264.032" y="392.542" type="curve" smooth="yes"/>
      <point x="264.032" y="506.795"/>
      <point x="349.823" y="589.328"/>
      <point x="463.481" y="589.328" type="curve" smooth="yes"/>
      <point x="576.77" y="589.328"/>
      <point x="670.008" y="514.759"/>
      <point x="670.008" y="396.539" type="curve" smooth="yes"/>
      <point x="670.008" y="280.281"/>
      <point x="578.105" y="201.522"/>
      <point x="465.036" y="201.522" type="curve" smooth="yes"/>
      <point x="355.055" y="201.522"/>
      <point x="264.032" y="279.288"/>
    </contour>
    <contour>
      <point x="323.527" y="902.636" type="curve" smooth="yes"/>
      <point x="323.527" y="986.816"/>
      <point x="382.373" y="1043.46"/>
      <point x="466.044" y="1043.46" type="curve" smooth="yes"/>
      <point x="550.709" y="1043.46"/>
      <point x="605.626" y="986.803"/>
      <point x="605.626" y="902.636" type="curve" smooth="yes"/>
      <point x="605.626" y="822.614"/>
      <point x="543.717" y="773.881"/>
      <point x="467.036" y="773.881" type="curve" smooth="yes"/>
      <point x="391.745" y="773.881"/>
      <point x="323.527" y="822.571"/>
    </contour>
  </outline>
</glyph>
<glyph name="nine" format="2">
  <advance width="1051"/>
  <unicode hex="0039"/>
  <outline>
    <contour>
      <point x="464.252" y="394.522" type="curve" smooth="yes"/>
      <point x="509.449" y="394.522"/>
      <point x="552.876" y="401.266"/>
      <point x="595.952" y="414.849" type="curve" smooth="yes"/>
      <point x="607.024" y="418.341"/>
      <point x="633.414" y="428.294"/>
      <point x="645.771" y="428.294" type="curve" smooth="yes"/>
      <point x="647.541" y="428.294"/>
      <point x="650.678" y="428.059"/>
      <point x="650.678" y="425.526" type="curve" smooth="yes"/>
      <point x="650.678" y="417.472"/>
      <point x="616.167" y="388.061"/>
      <point x="613.244" y="385.426" type="curve" smooth="yes"/>
      <point x="530.545" y="310.888"/>
      <point x="429.318" y="254.527"/>
      <point x="328.047" y="209.476" type="curve" smooth="yes"/>
      <point x="302.759" y="198.226"/>
      <point x="276.308" y="188.968"/>
      <point x="251.254" y="177.443" type="curve" smooth="yes"/>
      <point x="237.451" y="171.093"/>
      <point x="218.379" y="162.779"/>
      <point x="218.379" y="144.289" type="curve" smooth="yes"/>
      <point x="218.379" y="131.541"/>
      <point x="226.969" y="120.697"/>
      <point x="234.523" y="111.405" type="curve" smooth="yes"/>
      <point x="266.475" y="72.1061"/>
      <point x="301.228" y="31.2391"/>
      <point x="336.187" y="-5.36408" type="curve" smooth="yes"/>
      <point x="344.322" y="-13.8814"/>
      <point x="352.805" y="-20.5259"/>
      <point x="365.191" y="-20.5259" type="curve" smooth="yes"/>
      <point x="372.832" y="-20.5259"/>
      <point x="380.019" y="-17.8395"/>
      <point x="386.649" y="-14.2574" type="curve" smooth="yes"/>
      <point x="689.239" y="149.215"/>
      <point x="1022.91" y="374.515"/>
      <point x="1022.91" y="757.914" type="curve" smooth="yes"/>
      <point x="1022.91" y="1029.92"/>
      <point x="788.199" y="1202.47"/>
      <point x="531.019" y="1202.47" type="curve" smooth="yes"/>
      <point x="282.223" y="1202.47"/>
      <point x="47.8392" y="1046.53"/>
      <point x="47.8392" y="778.871" type="curve" smooth="yes"/>
      <point x="47.8392" y="544.54"/>
      <point x="240.263" y="394.522"/>
    </contour>
    <contour>
      <point x="286.483" y="780.128" type="curve" smooth="yes"/>
      <point x="286.483" y="913.625"/>
      <point x="414.958" y="973.53"/>
      <point x="531.964" y="973.53" type="curve" smooth="yes"/>
      <point x="632.217" y="973.53"/>
      <point x="772.535" y="918.074"/>
      <point x="772.535" y="798.83" type="curve" smooth="yes"/>
      <point x="772.535" y="785.379"/>
      <point x="773.256" y="771.313"/>
      <point x="772.491" y="757.914" type="curve" smooth="yes"/>
      <point x="765.824" y="641.155"/>
      <point x="634.33" y="588.202"/>
      <point x="532.919" y="588.202" type="curve" smooth="yes"/>
      <point x="415.874" y="588.202"/>
      <point x="286.483" y="645.369"/>
    </contour>
  </outline>
</glyph>
<glyph name="colon" format="2">
  <advance width="410"/>
  <unicode hex="003A"/>
  <outline>
    <contour>
      <point x="58.7248" y="717.998" type="curve" smooth="yes"/>
      <point x="58.7248" y="641.295"/>
      <point x="125.867" y="587.264"/>
      <point x="199.597" y="587.264" type="curve" smooth="yes"/>
      <point x="272.943" y="587.264"/>
      <point x="343.421" y="640.855"/>
      <point x="343.421" y="717.998" type="curve" smooth="yes"/>
      <point x="343.421" y="791.833"/>
      <point x="271.098" y="850.688"/>
      <point x="200.163" y="850.688" type="curve" smooth="yes"/>
      <point x="128.568" y="850.688"/>
      <point x="58.7248" y="792.034"/>
    </contour>
    <contour>
      <point x="56.9394" y="132.411" type="curve" smooth="yes"/>
      <point x="56.9394" y="54.821"/>
      <point x="124.388" y="0"/>
      <point x="199.161" y="0" type="curve" smooth="yes"/>
      <point x="273.874" y="0"/>
      <point x="345.105" y="55.1269"/>
      <point x="345.105" y="133.413" type="curve" smooth="yes"/>
      <point x="345.105" y="207.437"/>
      <point x="271.167" y="265.428"/>
      <point x="200.649" y="265.428" type="curve" smooth="yes"/>
      <point x="129.492" y="265.428"/>
      <point x="56.9394" y="206.663"/>
    </contour>
  </outline>
</glyph>
<glyph name="semicolon" format="2">
  <advance width="410"/>
  <unicode hex="003B"/>
  <outline>
    <contour>
      <point x="139.22" y="667.104" type="curve" smooth="yes"/>
      <point x="139.22" y="596.083"/>
      <point x="198.877" y="535.358"/>
      <point x="270.36" y="535.358" type="curve" smooth="yes"/>
      <point x="342.807" y="535.358"/>
      <point x="391.544" y="598.149"/>
      <point x="391.544" y="667.104" type="curve" smooth="yes"/>
      <point x="391.544" y="735.071"/>
      <point x="339.552" y="799.102"/>
      <point x="268.774" y="799.102" type="curve" smooth="yes"/>
      <point x="200.065" y="799.102"/>
      <point x="139.22" y="735.008"/>
    </contour>
    <contour>
      <point x="290.37" y="186.504" type="curve" smooth="yes"/>
      <point x="169.241" y="186.504" type="line" smooth="yes"/>
      <point x="149.729" y="186.504"/>
      <point x="139.061" y="178.071"/>
      <point x="131.229" y="160.792" type="curve" smooth="yes"/>
      <point x="113.426" y="121.518"/>
      <point x="-21.5863" y="-211.779"/>
      <point x="-21.5863" y="-228.234" type="curve" smooth="yes"/>
      <point x="-21.5863" y="-253.321"/>
      <point x="2.73457" y="-257.72"/>
      <point x="22.8884" y="-257.72" type="curve" smooth="yes"/>
      <point x="131.703" y="-257.72" type="line" smooth="yes"/>
      <point x="150.414" y="-257.72"/>
      <point x="161.026" y="-249.741"/>
      <point x="169.12" y="-233.396" type="curve" smooth="yes"/>
      <point x="190.034" y="-191.158"/>
      <point x="335.076" y="135.808"/>
      <point x="335.076" y="157.397" type="curve" smooth="yes"/>
      <point x="335.076" y="182.182"/>
      <point x="310.094" y="186.504"/>
    </contour>
  </outline>
</glyph>
<glyph name="less" format="2">
  <advance width="729"/>
  <unicode hex="003C"/>
  <outline>
    <contour>
      <point x="712.395" y="965.996" type="curve" smooth="yes"/>
      <point x="712.395" y="982.698"/>
      <point x="711.398" y="1017.37"/>
      <point x="687.047" y="1017.37" type="curve" smooth="yes"/>
      <point x="672.71" y="1017.37"/>
      <point x="658.286" y="1007.08"/>
      <point x="647.228" y="999.367" type="curve" smooth="yes"/>
      <point x="531.601" y="918.714"/>
      <point x="419.266" y="831.922"/>
      <point x="305.731" y="748.265" type="curve" smooth="yes"/>
      <point x="212.401" y="679.496"/>
      <point x="115.47" y="613.156"/>
      <point x="24.5689" y="541.377" type="curve" smooth="yes"/>
      <point x="14.3147" y="533.28"/>
      <point x="1.95802" y="522.901"/>
      <point x="1.95802" y="508.35" type="curve" smooth="yes"/>
      <point x="1.95802" y="493.825"/>
      <point x="14.2743" y="483.44"/>
      <point x="24.5059" y="475.34" type="curve" smooth="yes"/>
      <point x="115.772" y="403.092"/>
      <point x="213.365" y="336.397"/>
      <point x="307.388" y="267.612" type="curve" smooth="yes"/>
      <point x="421.784" y="183.924"/>
      <point x="535.391" y="97.3772"/>
      <point x="652.307" y="17.3195" type="curve" smooth="yes"/>
      <point x="663.4" y="9.7236"/>
      <point x="677.77" y="-0.311326"/>
      <point x="692.035" y="-0.311326" type="curve" smooth="yes"/>
      <point x="716.744" y="-0.311326"/>
      <point x="717.106" y="34.5224"/>
      <point x="717.106" y="51.3175" type="curve" smooth="yes"/>
      <point x="717.106" y="106.318"/>
      <point x="718.58" y="164.243"/>
      <point x="714.698" y="218.977" type="curve" smooth="yes"/>
      <point x="713.75" y="232.338"/>
      <point x="710.844" y="238.834"/>
      <point x="701.602" y="248.517" type="curve" smooth="yes"/>
      <point x="672.804" y="278.688"/>
      <point x="428.76" y="497.433"/>
      <point x="428.76" y="508.419" type="curve" smooth="yes"/>
      <point x="428.76" y="518.715"/>
      <point x="670.567" y="738.551"/>
      <point x="698.885" y="768.771" type="curve" smooth="yes"/>
      <point x="707.318" y="777.771"/>
      <point x="711.708" y="785.815"/>
      <point x="711.708" y="798.472" type="curve" smooth="yes"/>
      <point x="711.708" y="854.313"/>
      <point x="712.395" y="910.155"/>
    </contour>
  </outline>
</glyph>
<glyph name="equal" format="2">
  <advance width="893"/>
  <unicode hex="003D"/>
  <outline>
    <contour>
      <point x="21.817" y="805.614" type="curve" smooth="yes"/>
      <point x="21.9087" y="674.239" type="line" smooth="yes"/>
      <point x="21.9087" y="646.952"/>
      <point x="35.5665" y="633.174"/>
      <point x="62.8942" y="633.174" type="curve" smooth="yes"/>
      <point x="830.244" y="633.174" type="line" smooth="yes"/>
      <point x="857.571" y="633.174"/>
      <point x="871.229" y="646.951"/>
      <point x="871.229" y="674.238" type="curve" smooth="yes"/>
      <point x="871.321" y="805.615" type="line" smooth="yes"/>
      <point x="871.321" y="832.944"/>
      <point x="857.739" y="846.736"/>
      <point x="830.335" y="846.736" type="curve" smooth="yes"/>
      <point x="62.8024" y="846.736" type="line" smooth="yes"/>
      <point x="35.3984" y="846.736"/>
      <point x="21.817" y="832.944"/>
    </contour>
    <contour>
      <point x="18.7501" y="259.12" type="curve" smooth="yes"/>
      <point x="18.7501" y="231.298"/>
      <point x="31.5532" y="217.539"/>
      <point x="59.7314" y="217.539" type="curve" smooth="yes"/>
      <point x="833.399" y="217.539" type="line" smooth="yes"/>
      <point x="861.576" y="217.539"/>
      <point x="874.381" y="231.298"/>
      <point x="874.381" y="259.119" type="curve" smooth="yes"/>
      <point x="874.381" y="303.22"/>
      <point x="874.242" y="347.83"/>
      <point x="872.805" y="391.898" type="curve" smooth="yes"/>
      <point x="871.919" y="419.095"/>
      <point x="859.59" y="432.504"/>
      <point x="831.822" y="432.504" type="curve" smooth="yes"/>
      <point x="61.3123" y="432.504" type="line" smooth="yes"/>
      <point x="33.5448" y="432.504"/>
      <point x="21.2161" y="419.095"/>
      <point x="20.3288" y="391.899" type="curve" smooth="yes"/>
      <point x="18.8912" y="347.832"/>
      <point x="18.7501" y="303.221"/>
    </contour>
  </outline>
</glyph>
<glyph name="greater" format="2">
  <advance width="729"/>
  <unicode hex="003E"/>
  <outline>
    <contour>
      <point x="13.0169" y="51.4937" type="curve" smooth="yes"/>
      <point x="13.0169" y="34.7214"/>
      <point x="13.3605" y="-0.2012"/>
      <point x="38.0637" y="-0.2012" type="curve" smooth="yes"/>
      <point x="52.3614" y="-0.2012"/>
      <point x="66.774" y="9.9094"/>
      <point x="77.8734" y="17.5376" type="curve" smooth="yes"/>
      <point x="194.801" y="97.8968"/>
      <point x="308.398" y="184.762"/>
      <point x="422.79" y="268.761" type="curve" smooth="yes"/>
      <point x="516.812" y="337.803"/>
      <point x="614.399" y="404.763"/>
      <point x="705.663" y="477.259" type="curve" smooth="yes"/>
      <point x="715.872" y="485.368"/>
      <point x="728.152" y="495.76"/>
      <point x="728.152" y="510.266" type="curve" smooth="yes"/>
      <point x="728.152" y="524.836"/>
      <point x="715.761" y="535.207"/>
      <point x="705.484" y="543.295" type="curve" smooth="yes"/>
      <point x="614.588" y="614.828"/>
      <point x="517.654" y="680.906"/>
      <point x="424.327" y="749.418" type="curve" smooth="yes"/>
      <point x="310.792" y="832.765"/>
      <point x="198.448" y="919.239"/>
      <point x="82.8332" y="999.588" type="curve" smooth="yes"/>
      <point x="71.7808" y="1007.27"/>
      <point x="57.4" y="1017.48"/>
      <point x="43.0949" y="1017.48" type="curve" smooth="yes"/>
      <point x="18.7394" y="1017.48"/>
      <point x="17.724" y="982.898"/>
      <point x="17.724" y="966.174" type="curve" smooth="yes"/>
      <point x="17.724" y="910.939"/>
      <point x="18.4078" y="855.703"/>
      <point x="18.4078" y="800.467" type="curve" smooth="yes"/>
      <point x="18.4078" y="787.812"/>
      <point x="22.7993" y="779.767"/>
      <point x="31.2321" y="770.768" type="curve" smooth="yes"/>
      <point x="59.5523" y="740.546"/>
      <point x="301.375" y="520.703"/>
      <point x="301.375" y="510.404" type="curve" smooth="yes"/>
      <point x="301.375" y="499.385"/>
      <point x="57.2632" y="279.829"/>
      <point x="28.4756" y="249.511" type="curve" smooth="yes"/>
      <point x="19.2784" y="239.825"/>
      <point x="16.376" y="233.361"/>
      <point x="15.4349" y="220.022" type="curve" smooth="yes"/>
      <point x="11.5526" y="164.992"/>
      <point x="13.0169" y="106.788"/>
    </contour>
  </outline>
</glyph>
<glyph name="question" format="2">
  <advance width="815"/>
  <unicode hex="003F"/>
  <outline>
    <contour>
      <point x="301.351" y="402.534" type="curve" smooth="yes"/>
      <point x="460.308" y="402.534" type="line" smooth="yes"/>
      <point x="503.268" y="402.534"/>
      <point x="493.624" y="446.542"/>
      <point x="493.624" y="475.911" type="curve" smooth="yes"/>
      <point x="493.624" y="806.303"/>
      <point x="786.529" y="802.497"/>
      <point x="786.529" y="1170.85" type="curve" smooth="yes"/>
      <point x="786.529" y="1405.8"/>
      <point x="664.01" y="1568.8"/>
      <point x="418.235" y="1568.8" type="curve" smooth="yes"/>
      <point x="223.996" y="1568.8"/>
      <point x="84.2387" y="1437.84"/>
      <point x="26.0487" y="1259.69" type="curve" smooth="yes"/>
      <point x="24.5126" y="1254.98"/>
      <point x="23.527" y="1250.04"/>
      <point x="23.527" y="1245.08" type="curve" smooth="yes"/>
      <point x="23.527" y="1229.54"/>
      <point x="33.6607" y="1219.21"/>
      <point x="46.8753" y="1212.8" type="curve" smooth="yes"/>
      <point x="71.1949" y="1201"/>
      <point x="169.669" y="1147.86"/>
      <point x="191.358" y="1147.86" type="curve" smooth="yes"/>
      <point x="211.501" y="1147.86"/>
      <point x="218.533" y="1163.59"/>
      <point x="225.757" y="1179.12" type="curve" smooth="yes"/>
      <point x="262.503" y="1258.11"/>
      <point x="299.464" y="1338.68"/>
      <point x="401.093" y="1338.68" type="curve" smooth="yes"/>
      <point x="488.361" y="1338.68"/>
      <point x="536.597" y="1228.29"/>
      <point x="536.597" y="1154.37" type="curve" smooth="yes"/>
      <point x="536.597" y="890.96"/>
      <point x="260.609" y="898.975"/>
      <point x="260.609" y="525.374" type="curve" smooth="yes"/>
      <point x="260.391" y="443.603" type="line" smooth="yes"/>
      <point x="260.391" y="416.294"/>
      <point x="273.978" y="402.534"/>
    </contour>
    <contour>
      <point x="376.053" y="-10.0429" type="curve" smooth="yes"/>
      <point x="455.744" y="-10.0429"/>
      <point x="513.439" y="39.6479"/>
      <point x="513.439" y="121.387" type="curve" smooth="yes"/>
      <point x="513.439" y="198.294"/>
      <point x="460.177" y="255.567"/>
      <point x="382.341" y="255.567" type="curve" smooth="yes"/>
      <point x="307.714" y="255.567"/>
      <point x="236.071" y="199.722"/>
      <point x="236.071" y="121.387" type="curve" smooth="yes"/>
      <point x="236.071" y="39.6657"/>
      <point x="297.172" y="-10.0429"/>
    </contour>
  </outline>
</glyph>
<glyph name="at" format="2">
  <advance width="1272"/>
  <unicode hex="0040"/>
  <outline>
    <contour>
      <point x="616.414" y="-472.309" type="curve" smooth="yes"/>
      <point x="775.669" y="-472.309"/>
      <point x="974.746" y="-409.508"/>
      <point x="1093.98" y="-301.531" type="curve" smooth="yes"/>
      <point x="1102.04" y="-294.229"/>
      <point x="1108.65" y="-285.335"/>
      <point x="1108.65" y="-273.949" type="curve" smooth="yes"/>
      <point x="1108.65" y="-254.641"/>
      <point x="1058.88" y="-189.889"/>
      <point x="1045.92" y="-172.865" type="curve" smooth="yes"/>
      <point x="1037.81" y="-162.211"/>
      <point x="1028.63" y="-152.283"/>
      <point x="1014.09" y="-152.283" type="curve" smooth="yes"/>
      <point x="1003.45" y="-152.283"/>
      <point x="994.317" y="-157.641"/>
      <point x="985.76" y="-163.308" type="curve" smooth="yes"/>
      <point x="882.452" y="-231.719"/>
      <point x="778.796" y="-278.924"/>
      <point x="652.261" y="-278.924" type="curve" smooth="yes"/>
      <point x="286.145" y="-278.924"/>
      <point x="127.824" y="9.50797"/>
      <point x="127.824" y="340.992" type="curve" smooth="yes"/>
      <point x="127.824" y="349.495"/>
      <point x="127.724" y="358.065"/>
      <point x="128.123" y="366.56" type="curve" smooth="yes"/>
      <point x="148.604" y="802.66"/>
      <point x="351.604" y="1202.45"/>
      <point x="840.929" y="1202.45" type="curve" smooth="yes"/>
      <point x="1188.92" y="1202.45"/>
      <point x="1330.66" y="937.127"/>
      <point x="1330.66" y="622.165" type="curve" smooth="yes"/>
      <point x="1330.66" y="513.444"/>
      <point x="1300.69" y="306.889"/>
      <point x="1215.09" y="233.064" type="curve" smooth="yes"/>
      <point x="1205.42" y="224.724"/>
      <point x="1179.39" y="207.704"/>
      <point x="1166.22" y="207.704" type="curve" smooth="yes"/>
      <point x="1121.42" y="207.704"/>
      <point x="1115.33" y="272.538"/>
      <point x="1115.33" y="304.266" type="curve" smooth="yes"/>
      <point x="1115.33" y="314.367"/>
      <point x="1115.74" y="324.513"/>
      <point x="1116.66" y="334.575" type="curve" smooth="yes"/>
      <point x="1132.3" y="506.895"/>
      <point x="1151.94" y="678.983"/>
      <point x="1171.34" y="850.914" type="curve"/>
      <point x="1171.89" y="859.98" type="line"/>
      <point x="1171.89" y="886.626"/>
      <point x="1155.49" y="896.646"/>
      <point x="1130.62" y="896.646" type="curve" smooth="yes"/>
      <point x="986.868" y="896.646" type="line" smooth="yes"/>
      <point x="925.506" y="896.646"/>
      <point x="946.936" y="789.513"/>
      <point x="925.371" y="789.513" type="curve" smooth="yes"/>
      <point x="919.254" y="789.513"/>
      <point x="912.893" y="802.911"/>
      <point x="910.849" y="806.481" type="curve" smooth="yes"/>
      <point x="858.47" y="897.957"/>
      <point x="801.878" y="936.581"/>
      <point x="694.02" y="936.581" type="curve" smooth="yes"/>
      <point x="397.266" y="936.581"/>
      <point x="274.175" y="633.137"/>
      <point x="274.175" y="379.498" type="curve" smooth="yes"/>
      <point x="274.175" y="183.248"/>
      <point x="373.295" y="-23.1013"/>
      <point x="595.965" y="-23.1013" type="curve" smooth="yes"/>
      <point x="755.569" y="-23.1013"/>
      <point x="878.697" y="146.172"/>
      <point x="886.252" y="146.172" type="curve" smooth="yes"/>
      <point x="892.317" y="146.172"/>
      <point x="895.306" y="138.168"/>
      <point x="897.34" y="134.008" type="curve" smooth="yes"/>
      <point x="944.805" y="36.9243"/>
      <point x="1021.21" y="-17.074"/>
      <point x="1131.37" y="-17.074" type="curve" smooth="yes"/>
      <point x="1430.34" y="-17.074"/>
      <point x="1544.95" y="378.184"/>
      <point x="1544.95" y="618.652" type="curve" smooth="yes"/>
      <point x="1544.95" y="1042.91"/>
      <point x="1339.75" y="1394.85"/>
      <point x="876.477" y="1394.85" type="curve" smooth="yes"/>
      <point x="253.301" y="1394.85"/>
      <point x="-81.8126" y="903.738"/>
      <point x="-81.8126" y="318.953" type="curve" smooth="yes"/>
      <point x="-81.8126" y="-111.286"/>
      <point x="152.509" y="-472.309"/>
    </contour>
    <contour>
      <point x="690.553" y="178.492" type="curve" smooth="yes"/>
      <point x="570.253" y="178.492"/>
      <point x="522.71" y="321.489"/>
      <point x="522.71" y="420.613" type="curve" smooth="yes"/>
      <point x="522.71" y="543.075"/>
      <point x="583.34" y="736.958"/>
      <point x="734.172" y="736.958" type="curve" smooth="yes"/>
      <point x="814.266" y="736.958"/>
      <point x="865.916" y="675.11"/>
      <point x="888.77" y="604.055" type="curve" smooth="yes"/>
      <point x="891.569" y="595.352"/>
      <point x="899.344" y="566.819"/>
      <point x="899.344" y="558.317" type="curve" smooth="yes"/>
      <point x="899.344" y="546.671"/>
      <point x="877.508" y="371.699"/>
      <point x="874.66" y="360.564" type="curve" smooth="yes"/>
      <point x="870.155" y="342.953"/>
      <point x="858.115" y="321.547"/>
      <point x="849.943" y="305.154" type="curve" smooth="yes"/>
      <point x="816.857" y="238.775"/>
      <point x="771.726" y="178.492"/>
    </contour>
  </outline>
</glyph>
<glyph name="A" format="2">
  <advance width="1350"/>
  <unicode hex="0041"/>
  <anchor x="675" y="0" name="bottom"/>
  <anchor x="1221" y="20" name="ogonek"/>
  <anchor x="675" y="1469" name="top"/>
  <outline>
    <contour>
      <point x="80.1038" y="0" type="curve" smooth="yes"/>
      <point x="239.653" y="0" type="line" smooth="yes"/>
      <point x="259.071" y="0"/>
      <point x="268.088" y="7.8545"/>
      <point x="276.958" y="24.0883" type="curve" smooth="yes"/>
      <point x="288.598" y="45.3907"/>
      <point x="297.59" y="69.973"/>
      <point x="307.532" y="92.2295" type="curve" smooth="yes"/>
      <point x="337.904" y="160.226"/>
      <point x="365.88" y="230.104"/>
      <point x="398.006" y="297.206" type="curve" smooth="yes"/>
      <point x="400.265" y="301.925"/>
      <point x="403.932" y="304.58"/>
      <point x="409.27" y="304.58" type="curve" smooth="yes"/>
      <point x="903.768" y="304.58" type="line" smooth="yes"/>
      <point x="909.206" y="304.58"/>
      <point x="912.888" y="301.855"/>
      <point x="915.112" y="297.018" type="curve" smooth="yes"/>
      <point x="945.851" y="230.148"/>
      <point x="972.306" y="160.467"/>
      <point x="1001.19" y="92.6899" type="curve" smooth="yes"/>
      <point x="1010.63" y="70.5213"/>
      <point x="1019.09" y="45.9749"/>
      <point x="1030.26" y="24.7445" type="curve" smooth="yes"/>
      <point x="1039.04" y="8.06748"/>
      <point x="1048.03" y="0"/>
      <point x="1067.86" y="0" type="curve" smooth="yes"/>
      <point x="1269.9" y="0" type="line" smooth="yes"/>
      <point x="1288.68" y="0"/>
      <point x="1315.43" y="3.49021"/>
      <point x="1315.43" y="28.4959" type="curve" smooth="yes"/>
      <point x="1315.43" y="39.0637"/>
      <point x="1311.29" y="49.3208"/>
      <point x="1306.95" y="58.7303" type="curve" smooth="yes"/>
      <point x="1196.88" y="297.151"/>
      <point x="1087.48" y="535.415"/>
      <point x="981.81" y="775.85" type="curve" smooth="yes"/>
      <point x="882.871" y="1000.97"/>
      <point x="787.74" y="1228.4"/>
      <point x="684.858" y="1451.71" type="curve" smooth="yes"/>
      <point x="682.962" y="1455.82"/>
      <point x="679.565" y="1458.11"/>
      <point x="675" y="1458.11" type="curve" smooth="yes"/>
      <point x="670.435" y="1458.11"/>
      <point x="667.038" y="1455.82"/>
      <point x="665.142" y="1451.71" type="curve" smooth="yes"/>
      <point x="562.26" y="1228.4"/>
      <point x="467.129" y="1000.97"/>
      <point x="368.19" y="775.85" type="curve" smooth="yes"/>
      <point x="262.518" y="535.415"/>
      <point x="153.121" y="297.151"/>
      <point x="43.0534" y="58.7303" type="curve" smooth="yes"/>
      <point x="38.7095" y="49.3208"/>
      <point x="34.57" y="39.0637"/>
      <point x="34.57" y="28.4959" type="curve" smooth="yes"/>
      <point x="34.57" y="3.49021"/>
      <point x="61.3226" y="0"/>
    </contour>
    <contour>
      <point x="492.014" y="514.392" type="line"/>
      <point x="549.063" y="647.171"/>
      <point x="605.593" y="780.171"/>
      <point x="662.319" y="913.088" type="curve"/>
      <point x="716.62" y="780.189"/>
      <point x="770.692" y="647.196"/>
      <point x="825.226" y="514.392" type="curve"/>
    </contour>
  </outline>
</glyph>
<glyph name="B" format="2">
  <advance width="1251"/>
  <unicode hex="0042"/>
  <anchor x="619" y="0" name="bottom"/>
  <anchor x="619" y="1402" name="top"/>
  <outline>
    <contour>
      <point x="125.905" y="1359.93" type="curve" smooth="yes"/>
      <point x="125.905" y="1285.86"/>
      <point x="128.969" y="1211.52"/>
      <point x="130.064" y="1137.42" type="curve" smooth="yes"/>
      <point x="132.134" y="997.317"/>
      <point x="133.169" y="857.196"/>
      <point x="133.169" y="717.075" type="curve" smooth="yes"/>
      <point x="133.169" y="567.043"/>
      <point x="131.982" y="417.01"/>
      <point x="129.61" y="266.996" type="curve" smooth="yes"/>
      <point x="128.426" y="192.077"/>
      <point x="125.164" y="116.885"/>
      <point x="125.164" y="41.9922" type="curve" smooth="yes"/>
      <point x="125.164" y="13.8355"/>
      <point x="137.331" y="0" name=".hr01"/>
      <point x="166.142" y="0" type="curve" smooth="yes"/>
      <point x="632.058" y="0" type="line" smooth="yes"/>
      <point x="889.369" y="0"/>
      <point x="1176.87" y="94.705"/>
      <point x="1176.87" y="400.133" type="curve" smooth="yes"/>
      <point x="1176.87" y="562.203"/>
      <point x="1073.57" y="658.532"/>
      <point x="937.421" y="725.391" type="curve" smooth="yes"/>
      <point x="933.39" y="727.37"/>
      <point x="925.01" y="730.75"/>
      <point x="925.01" y="736.695" type="curve" smooth="yes"/>
      <point x="925.01" y="742.333"/>
      <point x="932.181" y="746.346"/>
      <point x="935.943" y="748.913" type="curve" smooth="yes"/>
      <point x="1042.47" y="821.602"/>
      <point x="1099.19" y="917.528"/>
      <point x="1099.19" y="1048.45" type="curve" smooth="yes"/>
      <point x="1099.19" y="1336.17"/>
      <point x="807.231" y="1401.9"/>
      <point x="574.345" y="1401.9" type="curve" smooth="yes"/>
      <point x="166.884" y="1401.87" type="line" smooth="yes"/>
      <point x="138.263" y="1401.87"/>
      <point x="125.905" y="1387.93"/>
    </contour>
    <contour>
      <point x="620.12" y="232.552" type="curve" smooth="yes"/>
      <point x="381.537" y="232.552" type="line"/>
      <point x="382.497" y="347.128"/>
      <point x="383.119" y="461.706"/>
      <point x="383.399" y="576.285" type="curve"/>
      <point x="602.482" y="576.285" type="line" smooth="yes"/>
      <point x="712.784" y="576.285"/>
      <point x="917.654" y="557.176"/>
      <point x="917.654" y="407.529" type="curve" smooth="yes"/>
      <point x="917.654" y="260.438"/>
      <point x="732.432" y="232.552"/>
    </contour>
    <contour>
      <point x="383.487" y="815.796" type="line"/>
      <point x="383.289" y="931.007"/>
      <point x="382.745" y="1046.22"/>
      <point x="381.859" y="1161.43" type="curve"/>
      <point x="584.159" y="1161.44" type="line" smooth="yes"/>
      <point x="693.38" y="1161.44"/>
      <point x="839.684" y="1131.97"/>
      <point x="839.684" y="994.963" type="curve" smooth="yes"/>
      <point x="839.684" y="870.311"/>
      <point x="726.123" y="815.746"/>
      <point x="616.234" y="815.746" type="curve" smooth="yes"/>
    </contour>
  </outline>
</glyph>
<glyph name="C" format="2">
  <advance width="1214"/>
  <unicode hex="0043"/>
  <anchor x="701" y="0" name="bottom"/>
  <anchor x="684" y="1438" name="top"/>
  <outline>
    <contour>
      <point x="1027.7" y="314.249" type="curve" smooth="yes"/>
      <point x="1014.88" y="314.249"/>
      <point x="1003.83" y="306.829"/>
      <point x="993.554" y="300.201" type="curve" smooth="yes"/>
      <point x="914.424" y="249.16"/>
      <point x="835.11" y="225.547"/>
      <point x="740.675" y="225.547" type="curve" smooth="yes"/>
      <point x="466.895" y="225.547"/>
      <point x="337.018" y="454.515"/>
      <point x="337.018" y="703.029" type="curve" smooth="yes"/>
      <point x="337.018" y="923.467"/>
      <point x="478.215" y="1176.43"/>
      <point x="724.705" y="1176.43" type="curve" smooth="yes"/>
      <point x="818.673" y="1176.43"/>
      <point x="894.049" y="1145.41"/>
      <point x="972.622" y="1096.86" type="curve" smooth="yes"/>
      <point x="982.225" y="1090.92"/>
      <point x="992.525" y="1084.67"/>
      <point x="1004.27" y="1084.67" type="curve" smooth="yes"/>
      <point x="1022.61" y="1084.67"/>
      <point x="1030.77" y="1100.42"/>
      <point x="1037.87" y="1114.46" type="curve" smooth="yes"/>
      <point x="1048.39" y="1135.29"/>
      <point x="1109.44" y="1272.22"/>
      <point x="1109.44" y="1286.6" type="curve" smooth="yes"/>
      <point x="1109.44" y="1301.05"/>
      <point x="1100.96" y="1309.47"/>
      <point x="1089.74" y="1317" type="curve" smooth="yes"/>
      <point x="988.598" y="1384.87"/>
      <point x="837.189" y="1416.55"/>
      <point x="716.915" y="1416.55" type="curve" smooth="yes"/>
      <point x="305.405" y="1416.55"/>
      <point x="74.6287" y="1088"/>
      <point x="74.6287" y="700.946" type="curve" smooth="yes"/>
      <point x="74.6287" y="297.705"/>
      <point x="327.177" y="-15.1252"/>
      <point x="745.878" y="-15.1252" type="curve" smooth="yes"/>
      <point x="864.132" y="-15.1252"/>
      <point x="1022.8" y="21.8585"/>
      <point x="1118.52" y="93.8387" type="curve" smooth="yes"/>
      <point x="1128.47" y="101.319"/>
      <point x="1135.85" y="109.672"/>
      <point x="1135.85" y="122.835" type="curve" smooth="yes"/>
      <point x="1135.85" y="138.379"/>
      <point x="1073.51" y="263.825"/>
      <point x="1062.06" y="284.73" type="curve" smooth="yes"/>
      <point x="1054.55" y="298.456"/>
      <point x="1045.86" y="314.249"/>
    </contour>
  </outline>
</glyph>
<glyph name="D" format="2">
  <advance width="1393"/>
  <unicode hex="0044"/>
  <anchor x="701" y="0" name="bottom"/>
  <anchor x="251" y="701" name="center"/>
  <anchor x="549" y="1402" name="top"/>
  <outline>
    <contour>
      <point x="166.277" y="0" type="curve" smooth="yes"/>
      <point x="611.085" y="0" type="line" smooth="yes"/>
      <point x="1012.68" y="0"/>
      <point x="1315.71" y="269.429"/>
      <point x="1315.71" y="679.08" type="curve" smooth="yes"/>
      <point x="1315.71" y="1142.09"/>
      <point x="998.384" y="1401.91"/>
      <point x="551.379" y="1401.91" type="curve" smooth="yes"/>
      <point x="167.124" y="1401.87" type="line" smooth="yes"/>
      <point x="138.182" y="1401.87"/>
      <point x="126.144" y="1388.01"/>
      <point x="126.144" y="1359.79" type="curve" smooth="yes"/>
      <point x="126.144" y="1288.51"/>
      <point x="129.522" y="1216.89"/>
      <point x="130.748" y="1145.58" type="curve" smooth="yes"/>
      <point x="133.204" y="1002.76"/>
      <point x="134.431" y="859.917"/>
      <point x="134.431" y="717.076" type="curve" smooth="yes"/>
      <point x="134.431" y="563.124"/>
      <point x="133.006" y="409.172"/>
      <point x="130.155" y="255.247" type="curve" smooth="yes"/>
      <point x="128.842" y="184.317"/>
      <point x="125.298" y="113.036"/>
      <point x="125.298" y="42.1383" type="curve" smooth="yes"/>
      <point x="125.298" y="13.8746"/>
      <point x="137.259" y="0"/>
    </contour>
    <contour>
      <point x="382.327" y="240.558" type="line"/>
      <point x="384.016" y="399.376"/>
      <point x="384.86" y="558.204"/>
      <point x="384.86" y="717.031" type="curve" smooth="yes"/>
      <point x="384.86" y="865.498"/>
      <point x="384.122" y="1013.97"/>
      <point x="382.646" y="1162.43" type="curve"/>
      <point x="615.989" y="1162.43" type="line" smooth="yes"/>
      <point x="882.087" y="1162.43"/>
      <point x="1057.44" y="964.527"/>
      <point x="1057.44" y="704.981" type="curve" smooth="yes"/>
      <point x="1057.44" y="400.165"/>
      <point x="863.411" y="240.558"/>
      <point x="567.412" y="240.558" type="curve" smooth="yes"/>
    </contour>
  </outline>
</glyph>
<glyph name="E" format="2">
  <advance width="1102"/>
  <unicode hex="0045"/>
  <anchor x="565" y="0" name="bottom"/>
  <anchor x="918" y="20" name="ogonek"/>
  <anchor x="565" y="1435" name="top"/>
  <anchor x="37" y="1402" name="topleft"/>
  <outline>
    <contour>
      <point x="125.584" y="1360.08" type="curve" smooth="yes"/>
      <point x="125.584" y="1145.81"/>
      <point x="131.765" y="931.427"/>
      <point x="131.765" y="717.074" type="curve" smooth="yes"/>
      <point x="131.765" y="564.591"/>
      <point x="130.723" y="412.108"/>
      <point x="128.639" y="259.639" type="curve" smooth="yes"/>
      <point x="127.647" y="187.098"/>
      <point x="124.953" y="114.361"/>
      <point x="124.953" y="41.838" type="curve" smooth="yes"/>
      <point x="124.953" y="13.8214"/>
      <point x="137.389" y="0"/>
      <point x="165.93" y="0" type="curve" smooth="yes"/>
      <point x="987.968" y="0" type="line" smooth="yes"/>
      <point x="1016.65" y="0"/>
      <point x="1028.94" y="13.8481"/>
      <point x="1028.94" y="41.9413" type="curve" smooth="yes"/>
      <point x="1028.94" y="94.1577"/>
      <point x="1028.75" y="148.163"/>
      <point x="1025.79" y="200.254" type="curve" smooth="yes" name=".hr01"/>
      <point x="1024.24" y="227.351"/>
      <point x="1012.93" y="240.558"/>
      <point x="984.804" y="240.558" type="curve" smooth="yes"/>
      <point x="393.133" y="240.558" type="line" smooth="yes"/>
      <point x="384.942" y="240.558"/>
      <point x="380.844" y="244.767"/>
      <point x="380.844" y="252.917" type="curve" smooth="yes"/>
      <point x="380.844" y="362.934"/>
      <point x="382.036" y="472.958"/>
      <point x="382.036" y="582.979" type="curve" smooth="yes"/>
      <point x="382.036" y="591.066"/>
      <point x="386.249" y="595.249"/>
      <point x="394.325" y="595.249" type="curve" smooth="yes"/>
      <point x="886.129" y="595.249" type="line" smooth="yes"/>
      <point x="913.502" y="595.249"/>
      <point x="927.111" y="609.031"/>
      <point x="927.111" y="636.343" type="curve" smooth="yes"/>
      <point x="927.066" y="772.733" type="line" smooth="yes"/>
      <point x="927.066" y="800.025"/>
      <point x="913.419" y="813.8"/>
      <point x="886.083" y="813.8" type="curve" smooth="yes"/>
      <point x="394.362" y="813.8" type="line" smooth="yes"/>
      <point x="386.281" y="813.8"/>
      <point x="382.073" y="817.984"/>
      <point x="382.073" y="826.074" type="curve" smooth="yes"/>
      <point x="382.073" y="933.74"/>
      <point x="381.017" y="1041.41"/>
      <point x="381.017" y="1149.07" type="curve" smooth="yes"/>
      <point x="381.017" y="1157.22"/>
      <point x="385.121" y="1161.43"/>
      <point x="393.306" y="1161.43" type="curve" smooth="yes"/>
      <point x="960.5" y="1161.43" type="line" smooth="yes"/>
      <point x="988.674" y="1161.43"/>
      <point x="999.987" y="1174.66"/>
      <point x="1001.48" y="1201.8" type="curve" smooth="yes"/>
      <point x="1004.35" y="1253.9"/>
      <point x="1004.32" y="1307.8"/>
      <point x="1004.32" y="1360.02" type="curve" smooth="yes"/>
      <point x="1004.32" y="1388.05"/>
      <point x="991.901" y="1401.87"/>
      <point x="963.343" y="1401.87" type="curve" smooth="yes"/>
      <point x="166.561" y="1401.87" type="line" smooth="yes"/>
      <point x="138.075" y="1401.87"/>
      <point x="125.584" y="1388.06"/>
    </contour>
  </outline>
</glyph>
<glyph name="F" format="2">
  <advance width="1092"/>
  <unicode hex="0046"/>
  <anchor x="553" y="0" name="bottom"/>
  <anchor x="553" y="1402" name="top"/>
  <outline>
    <contour>
      <point x="125.566" y="1360.08" type="curve" smooth="yes"/>
      <point x="125.566" y="1145.82"/>
      <point x="131.675" y="931.429"/>
      <point x="131.675" y="717.074" type="curve" smooth="yes"/>
      <point x="131.675" y="491.971"/>
      <point x="124.943" y="266.829"/>
      <point x="124.943" y="41.8277" type="curve" smooth="yes"/>
      <point x="124.943" y="13.8181"/>
      <point x="137.39" y="0"/>
      <point x="165.919" y="0" type="curve" smooth="yes"/>
      <point x="338.428" y="0" type="line" smooth="yes"/>
      <point x="366.731" y="0"/>
      <point x="378.108" y="13.3036"/>
      <point x="379.377" y="40.618" type="curve" smooth="yes"/>
      <point x="381.919" y="95.3323"/>
      <point x="380.195" y="151.084"/>
      <point x="380.523" y="205.913" type="curve" smooth="yes"/>
      <point x="381.214" y="321.618"/>
      <point x="381.896" y="437.331"/>
      <point x="381.896" y="553.039" type="curve" smooth="yes"/>
      <point x="381.896" y="561.123"/>
      <point x="386.114" y="565.305"/>
      <point x="394.184" y="565.305" type="curve" smooth="yes"/>
      <point x="900.853" y="565.305" type="line" smooth="yes"/>
      <point x="928.283" y="565.305"/>
      <point x="941.836" y="579.096"/>
      <point x="941.836" y="606.441" type="curve" smooth="yes" name=".hr01"/>
      <point x="941.693" y="762.759" type="line" smooth="yes"/>
      <point x="941.693" y="790.048"/>
      <point x="928.038" y="803.82"/>
      <point x="900.709" y="803.82" type="curve" smooth="yes"/>
      <point x="394.285" y="803.82" type="line" smooth="yes"/>
      <point x="386.202" y="803.82"/>
      <point x="381.996" y="808.004"/>
      <point x="381.996" y="816.095" type="curve" smooth="yes"/>
      <point x="381.996" y="927.088"/>
      <point x="380.959" y="1038.08"/>
      <point x="380.959" y="1149.07" type="curve" smooth="yes"/>
      <point x="380.959" y="1157.22"/>
      <point x="385.065" y="1161.43"/>
      <point x="393.248" y="1161.43" type="curve" smooth="yes"/>
      <point x="987.189" y="1161.43" type="line" smooth="yes"/>
      <point x="1015.56" y="1161.43"/>
      <point x="1026.45" y="1174.63"/>
      <point x="1028.17" y="1201.76" type="curve" smooth="yes"/>
      <point x="1031.47" y="1253.64"/>
      <point x="1031.21" y="1307.91"/>
      <point x="1031.21" y="1359.96" type="curve" smooth="yes"/>
      <point x="1031.21" y="1388.03"/>
      <point x="1018.88" y="1401.87"/>
      <point x="990.232" y="1401.87" type="curve" smooth="yes"/>
      <point x="166.543" y="1401.87" type="line" smooth="yes"/>
      <point x="138.068" y="1401.87"/>
      <point x="125.566" y="1388.07"/>
    </contour>
  </outline>
</glyph>
<glyph name="G" format="2">
  <advance width="1382"/>
  <unicode hex="0047"/>
  <anchor x="704" y="0" name="bottom"/>
  <anchor x="758" y="1402" name="top"/>
  <outline>
    <contour>
      <point x="1286.85" y="152.645" type="curve" smooth="yes"/>
      <point x="1286.85" y="327.351"/>
      <point x="1280.18" y="502.218"/>
      <point x="1280.18" y="677.036" type="curve" smooth="yes"/>
      <point x="1280.18" y="704.311"/>
      <point x="1266.43" y="717.998"/>
      <point x="1239.18" y="717.998" type="curve" smooth="yes"/>
      <point x="818.373" y="717.998" type="line" smooth="yes"/>
      <point x="791.054" y="717.998"/>
      <point x="777.413" y="704.32"/>
      <point x="777.413" y="677.015" type="curve" smooth="yes"/>
      <point x="777.466" y="579.29" type="line" smooth="yes"/>
      <point x="777.466" y="552.019"/>
      <point x="791.169" y="538.352"/>
      <point x="818.426" y="538.352" type="curve" smooth="yes"/>
      <point x="1052.32" y="538.352" type="line" smooth="yes"/>
      <point x="1060.75" y="538.352"/>
      <point x="1064.14" y="534.22"/>
      <point x="1064.61" y="526.172" type="curve" smooth="yes"/>
      <point x="1068.95" y="452.004"/>
      <point x="1067.35" y="374.782"/>
      <point x="1067.35" y="300.362" type="curve" smooth="yes"/>
      <point x="1067.35" y="295.259"/>
      <point x="1065.05" y="291.462"/>
      <point x="1060.46" y="289.204" type="curve" smooth="yes"/>
      <point x="983.06" y="251.169"/>
      <point x="879.762" y="234.554"/>
      <point x="793.947" y="234.554" type="curve" smooth="yes"/>
      <point x="516.311" y="234.554"/>
      <point x="336.567" y="407.744"/>
      <point x="336.567" y="687.063" type="curve" smooth="yes"/>
      <point x="336.567" y="985.964"/>
      <point x="528.707" y="1166.43"/>
      <point x="824.488" y="1166.43" type="curve" smooth="yes"/>
      <point x="926.262" y="1166.43"/>
      <point x="1021.98" y="1145.66"/>
      <point x="1116.27" y="1108.3" type="curve" smooth="yes"/>
      <point x="1124.21" y="1105.15"/>
      <point x="1132.31" y="1102.31"/>
      <point x="1140.98" y="1102.31" type="curve" smooth="yes"/>
      <point x="1161.72" y="1102.31"/>
      <point x="1168.69" y="1117.72"/>
      <point x="1175.02" y="1134.42" type="curve" smooth="yes"/>
      <point x="1181.95" y="1152.73"/>
      <point x="1225.22" y="1290.95"/>
      <point x="1225.22" y="1303.09" type="curve" smooth="yes"/>
      <point x="1225.22" y="1320.1"/>
      <point x="1215.4" y="1328.36"/>
      <point x="1201.43" y="1335.6" type="curve" smooth="yes"/>
      <point x="1092.79" y="1391.86"/>
      <point x="933.851" y="1415.66"/>
      <point x="812.473" y="1415.66" type="curve" smooth="yes"/>
      <point x="352.965" y="1415.66"/>
      <point x="77.2359" y="1118.79"/>
      <point x="77.2359" y="665.109" type="curve" smooth="yes"/>
      <point x="77.2359" y="229.974"/>
      <point x="398.822" y="-15.065"/>
      <point x="814.058" y="-15.065" type="curve" smooth="yes"/>
      <point x="942.487" y="-15.065"/>
      <point x="1170.71" y="39.0025"/>
      <point x="1271.26" y="120.157" type="curve" smooth="yes"/>
      <point x="1282.56" y="129.273"/>
      <point x="1286.85" y="138.072"/>
    </contour>
  </outline>
</glyph>
<glyph name="H" format="2">
  <advance width="1466"/>
  <unicode hex="0048"/>
  <anchor x="734" y="0" name="bottom"/>
  <anchor x="734" y="701" name="center"/>
  <anchor x="734" y="1402" name="top"/>
  <anchor x="3" y="1402" name="topleft"/>
  <outline>
    <contour>
      <point x="1298.82" y="1401.87" type="curve" smooth="yes"/>
      <point x="1127.63" y="1401.87" type="line" smooth="yes"/>
      <point x="1098.54" y="1401.87"/>
      <point x="1089.09" y="1388.73"/>
      <point x="1086.7" y="1361.61" type="curve" smooth="yes"/>
      <point x="1081.83" y="1306.36"/>
      <point x="1084.99" y="1247.41"/>
      <point x="1084.34" y="1191.76" type="curve" smooth="yes"/>
      <point x="1082.93" y="1072.86"/>
      <point x="1081.7" y="953.941"/>
      <point x="1081.7" y="835.038" type="curve" smooth="yes"/>
      <point x="1081.7" y="826.961"/>
      <point x="1077.47" y="822.782"/>
      <point x="1069.41" y="822.782" type="curve" smooth="yes"/>
      <point x="397.569" y="822.782" type="line" smooth="yes"/>
      <point x="389.513" y="822.782"/>
      <point x="385.279" y="826.961"/>
      <point x="385.279" y="835.038" type="curve" smooth="yes"/>
      <point x="385.279" y="953.941"/>
      <point x="384.052" y="1072.86"/>
      <point x="382.652" y="1191.75" type="curve" smooth="yes"/>
      <point x="381.997" y="1247.41"/>
      <point x="385.16" y="1306.36"/>
      <point x="380.298" y="1361.61" type="curve" smooth="yes"/>
      <point x="377.911" y="1388.73"/>
      <point x="368.459" y="1401.87"/>
      <point x="339.364" y="1401.87" type="curve" smooth="yes"/>
      <point x="167.182" y="1401.87" type="line" smooth="yes"/>
      <point x="138.117" y="1401.87"/>
      <point x="126.201" y="1388.03"/>
      <point x="126.201" y="1359.72" type="curve" smooth="yes"/>
      <point x="126.201" y="1290.76"/>
      <point x="129.686" y="1221.43"/>
      <point x="130.967" y="1152.44" type="curve" smooth="yes"/>
      <point x="133.661" y="1007.34"/>
      <point x="135.008" y="862.207"/>
      <point x="135.008" y="717.077" type="curve" smooth="yes"/>
      <point x="135.008" y="564.667"/>
      <point x="133.523" y="412.257"/>
      <point x="130.554" y="259.877" type="curve" smooth="yes"/>
      <point x="129.142" y="187.441"/>
      <point x="125.303" y="114.611"/>
      <point x="125.303" y="42.2124" type="curve" smooth="yes"/>
      <point x="125.303" y="13.86"/>
      <point x="137.137" y="0"/>
      <point x="166.282" y="0" type="curve" smooth="yes"/>
      <point x="338.839" y="0" type="line" smooth="yes"/>
      <point x="367.9" y="0"/>
      <point x="377.376" y="13.1304"/>
      <point x="379.773" y="40.2353" type="curve" smooth="yes"/>
      <point x="384.707" y="96.0402"/>
      <point x="381.578" y="155.554"/>
      <point x="382.282" y="211.771" type="curve" smooth="yes"/>
      <point x="383.785" y="331.84"/>
      <point x="385.191" y="451.942"/>
      <point x="385.191" y="572.022" type="curve" smooth="yes"/>
      <point x="385.191" y="580.093"/>
      <point x="389.435" y="584.27"/>
      <point x="397.481" y="584.27" type="curve" smooth="yes"/>
      <point x="1069.5" y="584.27" type="line" smooth="yes"/>
      <point x="1077.55" y="584.27"/>
      <point x="1081.79" y="580.093"/>
      <point x="1081.79" y="572.022" type="curve" smooth="yes"/>
      <point x="1081.79" y="451.942"/>
      <point x="1083.2" y="331.839"/>
      <point x="1084.71" y="211.77" type="curve" smooth="yes"/>
      <point x="1085.42" y="155.552"/>
      <point x="1082.29" y="96.0381"/>
      <point x="1087.23" y="40.2332" type="curve" smooth="yes"/>
      <point x="1089.62" y="13.1297"/>
      <point x="1099.1" y="0"/>
      <point x="1128.16" y="0" type="curve" smooth="yes"/>
      <point x="1299.72" y="0" type="line" smooth="yes"/>
      <point x="1328.86" y="0"/>
      <point x="1340.7" y="13.86"/>
      <point x="1340.7" y="42.2124" type="curve" smooth="yes"/>
      <point x="1340.7" y="114.611"/>
      <point x="1336.86" y="187.441"/>
      <point x="1335.45" y="259.877" type="curve" smooth="yes"/>
      <point x="1332.48" y="412.257"/>
      <point x="1330.99" y="564.667"/>
      <point x="1330.99" y="717.077" type="curve" smooth="yes"/>
      <point x="1330.99" y="862.207"/>
      <point x="1332.34" y="1007.34"/>
      <point x="1335.03" y="1152.44" type="curve" smooth="yes"/>
      <point x="1336.31" y="1221.43"/>
      <point x="1339.8" y="1290.76"/>
      <point x="1339.8" y="1359.72" type="curve" smooth="yes"/>
      <point x="1339.8" y="1388.03"/>
      <point x="1327.88" y="1401.87"/>
    </contour>
  </outline>
</glyph>
<glyph name="I" format="2">
  <advance width="485"/>
  <unicode hex="0049"/>
  <anchor x="244" y="0" name="bottom"/>
  <anchor x="303" y="20" name="ogonek"/>
  <anchor x="244" y="1435" name="top"/>
  <anchor x="-135" y="1402" name="topleft"/>
  <outline>
    <contour>
      <point x="117.4" y="717.072" type="curve" smooth="yes"/>
      <point x="117.4" y="491.787"/>
      <point x="115.354" y="266.499"/>
      <point x="115.354" y="41.2231" type="curve" smooth="yes"/>
      <point x="115.354" y="13.7416"/>
      <point x="128.683" y="0"/>
      <point x="156.321" y="0" type="curve" smooth="yes"/>
      <point x="328.801" y="0" type="line" smooth="yes"/>
      <point x="356.437" y="0"/>
      <point x="369.768" y="13.7411"/>
      <point x="369.768" y="41.221" type="curve" smooth="yes"/>
      <point x="369.58" y="1360.66" type="line" smooth="yes"/>
      <point x="369.58" y="1388.14"/>
      <point x="356.233" y="1401.87"/>
      <point x="328.613" y="1401.87" type="curve" smooth="yes"/>
      <point x="156.511" y="1401.87" type="line" smooth="yes"/>
      <point x="125.783" y="1401.87"/>
      <point x="118.131" y="1388.41"/>
      <point x="115.544" y="1360.66" type="curve" smooth="yes"/>
      <point x="113.51" y="1338.85"/>
      <point x="115.807" y="1313.77"/>
      <point x="115.92" y="1291.71" type="curve" smooth="yes"/>
      <point x="116.545" y="1153.8" type="line" smooth="yes"/>
      <point x="117.115" y="1008.22"/>
      <point x="117.4" y="862.647"/>
    </contour>
  </outline>
</glyph>
<glyph name="J" format="2">
  <advance width="547"/>
  <unicode hex="004A"/>
  <anchor x="246" y="0" name="bottom"/>
  <anchor x="370" y="1435" name="top"/>
  <outline>
    <contour>
      <point x="483.168" y="716.672" type="curve" smooth="yes"/>
      <point x="483.168" y="931.285"/>
      <point x="486.258" y="1145.91"/>
      <point x="486.258" y="1360.5" type="curve" smooth="yes"/>
      <point x="486.258" y="1388.09"/>
      <point x="473.133" y="1401.87"/>
      <point x="445.287" y="1401.87" type="curve" smooth="yes"/>
      <point x="270.192" y="1401.87" type="line" smooth="yes"/>
      <point x="242.787" y="1401.87"/>
      <point x="229.23" y="1388.18"/>
      <point x="229.23" y="1360.83" type="curve" smooth="yes"/>
      <point x="229.23" y="1146.11"/>
      <point x="229.883" y="931.391"/>
      <point x="229.883" y="716.673" type="curve" smooth="yes"/>
      <point x="229.593" y="288.578" type="line" smooth="yes"/>
      <point x="229.593" y="170.617"/>
      <point x="202.041" y="37.7402"/>
      <point x="86.8389" y="-20.2972" type="curve" smooth="yes"/>
      <point x="61.1622" y="-33.2328"/>
      <point x="37.0394" y="-37.4661"/>
      <point x="9.85646" y="-44.9241" type="curve" smooth="yes"/>
      <point x="-17.9924" y="-52.5648"/>
      <point x="-24.9579" y="-57.378"/>
      <point x="-28.2538" y="-87.052" type="curve" smooth="yes"/>
      <point x="-32.9406" y="-129.25"/>
      <point x="-31.2453" y="-203.988"/>
      <point x="-31.2453" y="-248.824" type="curve" smooth="yes"/>
      <point x="-31.2453" y="-273.172"/>
      <point x="-22.2181" y="-289.667"/>
      <point x="4.38733" y="-289.667" type="curve"/>
      <point x="11.0264" y="-289.344" type="line"/>
      <point x="324.962" y="-256.919"/>
      <point x="484.646" y="-32.7614"/>
      <point x="484.646" y="272.329" type="curve" smooth="yes"/>
      <point x="484.646" y="420.437"/>
      <point x="483.168" y="568.556"/>
    </contour>
  </outline>
</glyph>
<glyph name="K" format="2">
  <advance width="1221"/>
  <unicode hex="004B"/>
  <anchor x="537" y="0" name="bottom"/>
  <anchor x="625" y="1401" name="top"/>
  <outline>
    <contour>
      <point x="341.978" y="1400.87" type="curve" smooth="yes"/>
      <point x="167.85" y="1400.87" type="line" smooth="yes"/>
      <point x="139.187" y="1400.87"/>
      <point x="126.871" y="1387.04"/>
      <point x="126.871" y="1358.96" type="curve" smooth="yes"/>
      <point x="126.871" y="1290.03"/>
      <point x="129.645" y="1220.87"/>
      <point x="130.666" y="1151.92" type="curve" smooth="yes"/>
      <point x="132.811" y="1006.98"/>
      <point x="133.883" y="862.029"/>
      <point x="133.883" y="717.077" type="curve" smooth="yes"/>
      <point x="133.883" y="564.618"/>
      <point x="132.697" y="412.158"/>
      <point x="130.326" y="259.718" type="curve" smooth="yes"/>
      <point x="129.198" y="187.207"/>
      <point x="126.132" y="114.446"/>
      <point x="126.132" y="41.9593" type="curve" smooth="yes"/>
      <point x="126.132" y="13.8453"/>
      <point x="138.382" y="0"/>
      <point x="167.11" y="0" type="curve" smooth="yes"/>
      <point x="341.628" y="0" type="line" smooth="yes"/>
      <point x="370.871" y="0"/>
      <point x="380.323" y="13.2156"/>
      <point x="382.572" y="40.4911" type="curve" smooth="yes"/>
      <point x="387.212" y="96.762"/>
      <point x="383.748" y="156.67"/>
      <point x="384.205" y="213.333" type="curve" smooth="yes"/>
      <point x="385.182" y="334.321"/>
      <point x="386.084" y="455.321"/>
      <point x="386.084" y="576.313" type="curve" smooth="yes"/>
      <point x="386.084" y="593.01"/>
      <point x="434.068" y="595.809"/>
      <point x="446.286" y="595.809" type="curve" smooth="yes"/>
      <point x="449.2" y="595.809"/>
      <point x="452.26" y="592.912"/>
      <point x="453.839" y="590.905" type="curve" smooth="yes"/>
      <point x="491.749" y="542.732"/>
      <point x="527.219" y="492.042"/>
      <point x="563.826" y="442.826" type="curve" smooth="yes"/>
      <point x="632.63" y="350.323"/>
      <point x="701.606" y="257.946"/>
      <point x="771.065" y="165.933" type="curve" smooth="yes"/>
      <point x="807.787" y="117.286"/>
      <point x="843.335" y="65.5018"/>
      <point x="882.656" y="19.0591" type="curve" smooth="yes"/>
      <point x="891.694" y="8.38429"/>
      <point x="900.846" y="3.01252"/>
      <point x="915.157" y="3.01252" type="curve" smooth="yes"/>
      <point x="1109.41" y="3.01252" type="line" smooth="yes"/>
      <point x="1125.64" y="3.01252"/>
      <point x="1160.99" y="4.19847"/>
      <point x="1160.99" y="28.4305" type="curve" smooth="yes"/>
      <point x="1160.99" y="43.0234"/>
      <point x="1150.13" y="57.7231"/>
      <point x="1142.18" y="68.8375" type="curve" smooth="yes"/>
      <point x="1097.65" y="131.095"/>
      <point x="692.807" y="671.774"/>
      <point x="692.807" y="686.149" type="curve" smooth="yes"/>
      <point x="692.807" y="690.717"/>
      <point x="696.404" y="693.666"/>
      <point x="699.909" y="695.865" type="curve" smooth="yes"/>
      <point x="946.963" y="850.882"/>
      <point x="1093.43" y="1068.23"/>
      <point x="1151.84" y="1353.89" type="curve" smooth="yes"/>
      <point x="1152.75" y="1358.35"/>
      <point x="1153.3" y="1362.93"/>
      <point x="1153.3" y="1367.49" type="curve" smooth="yes"/>
      <point x="1153.3" y="1392.92"/>
      <point x="1134.88" y="1400.87"/>
      <point x="1112.36" y="1400.87" type="curve" smooth="yes"/>
      <point x="946.626" y="1400.87" type="line" smooth="yes"/>
      <point x="919.856" y="1400.87"/>
      <point x="911.411" y="1388.95"/>
      <point x="905.258" y="1365.13" type="curve" smooth="yes"/>
      <point x="891.379" y="1311.41"/>
      <point x="883.715" y="1263.05"/>
      <point x="863.686" y="1210.01" type="curve" smooth="yes"/>
      <point x="782.3" y="994.507"/>
      <point x="623.172" y="848.583"/>
      <point x="401.295" y="787.232" type="curve" smooth="yes"/>
      <point x="399.554" y="786.75"/>
      <point x="397.702" y="786.454"/>
      <point x="395.893" y="786.454" type="curve" smooth="yes"/>
      <point x="388.311" y="786.454"/>
      <point x="386.19" y="792.493"/>
      <point x="386.19" y="799.008" type="curve" smooth="yes"/>
      <point x="386.19" y="925.766"/>
      <point x="385.466" y="1052.53"/>
      <point x="384.526" y="1179.28" type="curve" smooth="yes"/>
      <point x="384.085" y="1238.69"/>
      <point x="387.661" y="1301.35"/>
      <point x="382.922" y="1360.36" type="curve" smooth="yes"/>
      <point x="380.731" y="1387.65"/>
      <point x="371.185" y="1400.87"/>
    </contour>
  </outline>
</glyph>
<glyph name="L" format="2">
  <advance width="1059"/>
  <unicode hex="004C"/>
  <anchor x="535" y="0" name="bottom"/>
  <anchor x="535" y="701" name="center"/>
  <anchor x="248" y="1435" name="top"/>
  <anchor x="1032" y="1402" name="topright"/>
  <outline>
    <contour>
      <point x="125.569" y="1360.12" type="curve" smooth="yes"/>
      <point x="125.569" y="1145.83"/>
      <point x="131.448" y="931.438"/>
      <point x="131.448" y="717.074" type="curve" smooth="yes"/>
      <point x="131.448" y="491.961"/>
      <point x="124.969" y="266.813"/>
      <point x="124.969" y="41.7948" type="curve" smooth="yes"/>
      <point x="124.969" y="13.8021"/>
      <point x="137.446" y="0"/>
      <point x="165.946" y="0" type="curve" smooth="yes"/>
      <point x="945.072" y="0" type="line" smooth="yes"/>
      <point x="973.713" y="0"/>
      <point x="986.049" y="13.8285"/>
      <point x="986.049" y="41.8963" type="curve" smooth="yes"/>
      <point x="986.049" y="93.4075"/>
      <point x="987.507" y="149.082"/>
      <point x="983.034" y="200.224" type="curve" smooth="yes"/>
      <point x="980.659" y="227.383"/>
      <point x="971.171" y="240.558"/>
      <point x="942.053" y="240.558" type="curve" smooth="yes"/>
      <point x="392.969" y="240.558" type="line" smooth="yes"/>
      <point x="384.788" y="240.558"/>
      <point x="380.68" y="244.765"/>
      <point x="380.68" y="252.908" type="curve" smooth="yes"/>
      <point x="380.68" y="407.502"/>
      <point x="381.821" y="562.101"/>
      <point x="381.821" y="716.698" type="curve" smooth="yes"/>
      <point x="381.821" y="862.234"/>
      <point x="381.484" y="1007.77"/>
      <point x="380.813" y="1153.31" type="curve" smooth="yes"/>
      <point x="380.498" y="1221.66"/>
      <point x="384.524" y="1293.24"/>
      <point x="379.626" y="1361.21" type="curve" smooth="yes"/>
      <point x="377.652" y="1388.6"/>
      <point x="367.844" y="1401.87"/>
      <point x="338.676" y="1401.87" type="curve" smooth="yes"/>
      <point x="166.546" y="1401.87" type="line" smooth="yes"/>
      <point x="138.098" y="1401.87"/>
      <point x="125.569" y="1388.08"/>
    </contour>
  </outline>
</glyph>
<glyph name="M" format="2">
  <advance width="1618"/>
  <unicode hex="004D"/>
  <anchor x="809" y="0" name="bottom"/>
  <anchor x="809" y="1402" name="top"/>
  <outline>
    <contour>
      <point x="166.411" y="0" type="curve" smooth="yes"/>
      <point x="330.012" y="0" type="line" smooth="yes"/>
      <point x="360.046" y="0"/>
      <point x="367.567" y="13.0835"/>
      <point x="370.938" y="40.0613" type="curve" smooth="yes"/>
      <point x="373.303" y="58.9852"/>
      <point x="371.771" y="81.2107"/>
      <point x="372.135" y="100.429" type="curve" smooth="yes"/>
      <point x="374.498" y="241.296" type="line" smooth="yes"/>
      <point x="376.558" y="382.161"/>
      <point x="377.941" y="523.056"/>
      <point x="377.941" y="663.938" type="curve" smooth="yes"/>
      <point x="377.941" y="666.482"/>
      <point x="377.514" y="685.707"/>
      <point x="384.67" y="685.707" type="curve" smooth="yes"/>
      <point x="390.518" y="685.707"/>
      <point x="397.86" y="674.423"/>
      <point x="400.37" y="670.885" type="curve" smooth="yes"/>
      <point x="496.126" y="535.941"/>
      <point x="587.377" y="397.317"/>
      <point x="681.053" y="260.881" type="curve" smooth="yes"/>
      <point x="713.494" y="213.63"/>
      <point x="744.746" y="164.365"/>
      <point x="779.108" y="118.564" type="curve" smooth="yes"/>
      <point x="787.188" y="107.794"/>
      <point x="797.847" y="93.5541"/>
      <point x="813.156" y="93.5541" type="curve" smooth="yes"/>
      <point x="828.83" y="93.5541"/>
      <point x="839.276" y="108.558"/>
      <point x="847.097" y="119.739" type="curve" smooth="yes"/>
      <point x="880.161" y="167.008"/>
      <point x="909.888" y="217.793"/>
      <point x="940.915" y="266.497" type="curve" smooth="yes"/>
      <point x="1030.53" y="407.169"/>
      <point x="1117.66" y="549.968"/>
      <point x="1209.52" y="689.143" type="curve" smooth="yes"/>
      <point x="1211.84" y="692.662"/>
      <point x="1219.55" y="705.47"/>
      <point x="1225.53" y="705.47" type="curve" smooth="yes"/>
      <point x="1232.66" y="705.47"/>
      <point x="1232.18" y="684.803"/>
      <point x="1232.18" y="682.535" type="curve" smooth="yes"/>
      <point x="1232.18" y="537.456"/>
      <point x="1233.44" y="392.369"/>
      <point x="1235.5" y="247.306" type="curve" smooth="yes"/>
      <point x="1237.87" y="102.244" type="line" smooth="yes"/>
      <point x="1238.24" y="82.4285"/>
      <point x="1236.67" y="59.5975"/>
      <point x="1239.08" y="40.0776" type="curve" smooth="yes"/>
      <point x="1242.4" y="13.0867"/>
      <point x="1250" y="0"/>
      <point x="1280" y="0" type="curve" smooth="yes"/>
      <point x="1451.59" y="0" type="line" smooth="yes"/>
      <point x="1480.94" y="0"/>
      <point x="1492.57" y="13.9372"/>
      <point x="1492.57" y="42.3692" type="curve" smooth="yes"/>
      <point x="1492.57" y="114.696"/>
      <point x="1488.25" y="187.569"/>
      <point x="1486.66" y="259.943" type="curve" smooth="yes"/>
      <point x="1483.33" y="412.265"/>
      <point x="1481.66" y="564.624"/>
      <point x="1481.66" y="716.982" type="curve" smooth="yes"/>
      <point x="1481.66" y="914.322"/>
      <point x="1484.68" y="1111.63"/>
      <point x="1490.06" y="1308.89" type="curve" smooth="yes"/>
      <point x="1490.23" y="1320.77" type="line" smooth="yes"/>
      <point x="1490.23" y="1329.79"/>
      <point x="1491.38" y="1382.37"/>
      <point x="1469.42" y="1382.37" type="curve" smooth="yes"/>
      <point x="1450.9" y="1382.37"/>
      <point x="1425.32" y="1346.61"/>
      <point x="1416.13" y="1334.35" type="curve" smooth="yes"/>
      <point x="1206.11" y="1054.17"/>
      <point x="1015" y="759.629"/>
      <point x="812.027" y="474.398" type="curve" smooth="yes"/>
      <point x="809.722" y="471.159"/>
      <point x="806.369" y="467.043"/>
      <point x="801.898" y="467.043" type="curve" smooth="yes"/>
      <point x="797.396" y="467.043"/>
      <point x="794.058" y="471.225"/>
      <point x="791.775" y="474.5" type="curve" smooth="yes"/>
      <point x="593.617" y="758.842"/>
      <point x="407.38" y="1052.34"/>
      <point x="202.16" y="1331.73" type="curve" smooth="yes"/>
      <point x="193.099" y="1344.07"/>
      <point x="167.183" y="1381.12"/>
      <point x="148.552" y="1381.12" type="curve" smooth="yes"/>
      <point x="127.227" y="1381.12"/>
      <point x="127.83" y="1330.16"/>
      <point x="127.83" y="1318.79" type="curve" smooth="yes"/>
      <point x="128.01" y="1306.6" type="line" smooth="yes"/>
      <point x="133.336" y="1110.1"/>
      <point x="136.341" y="913.557"/>
      <point x="136.341" y="716.982" type="curve" smooth="yes"/>
      <point x="136.341" y="564.624"/>
      <point x="134.673" y="412.265"/>
      <point x="131.335" y="259.943" type="curve" smooth="yes"/>
      <point x="129.749" y="187.569"/>
      <point x="125.432" y="114.696"/>
      <point x="125.432" y="42.3692" type="curve" smooth="yes"/>
      <point x="125.432" y="13.9372"/>
      <point x="137.063" y="0"/>
    </contour>
  </outline>
</glyph>
<glyph name="N" format="2">
  <advance width="1470"/>
  <unicode hex="004E"/>
  <anchor x="737" y="0" name="bottom"/>
  <anchor x="702" y="1402" name="top"/>
  <outline>
    <contour>
      <point x="1343.7" y="-40.1823" type="line"/>
      <point x="1347.1" y="-36.6757" type="line"/>
      <point x="1339.01" y="214.523"/>
      <point x="1334.96" y="465.853"/>
      <point x="1334.96" y="717.182" type="curve" smooth="yes"/>
      <point x="1334.96" y="859.985"/>
      <point x="1336.27" y="1002.79"/>
      <point x="1338.88" y="1145.57" type="curve" smooth="yes"/>
      <point x="1340.19" y="1216.84"/>
      <point x="1343.79" y="1288.47"/>
      <point x="1343.79" y="1359.71" type="curve" smooth="yes"/>
      <point x="1343.79" y="1387.99"/>
      <point x="1331.86" y="1401.87"/>
      <point x="1302.81" y="1401.87" type="curve" smooth="yes"/>
      <point x="1130.84" y="1401.87" type="line" smooth="yes"/>
      <point x="1100.8" y="1401.87"/>
      <point x="1092.79" y="1388.67"/>
      <point x="1089.9" y="1361.4" type="curve" smooth="yes"/>
      <point x="1084.93" y="1314.46"/>
      <point x="1088.92" y="1262.13"/>
      <point x="1088.57" y="1214.64" type="curve" smooth="yes"/>
      <point x="1087.86" y="1116.79"/>
      <point x="1087.5" y="1018.95"/>
      <point x="1087.5" y="921.103" type="curve" smooth="yes"/>
      <point x="1087.5" y="792.725"/>
      <point x="1089.37" y="664.341"/>
      <point x="1089.37" y="535.976" type="curve" smooth="yes"/>
      <point x="1089.37" y="532.184"/>
      <point x="1089.68" y="518.428"/>
      <point x="1082.33" y="518.428" type="curve" smooth="yes"/>
      <point x="1066.68" y="518.428"/>
      <point x="156.964" y="1440.03"/>
      <point x="129.869" y="1440.03" type="curve" smooth="yes"/>
      <point x="125.95" y="1440.03"/>
      <point x="124.05" y="1437.84"/>
      <point x="124.05" y="1434.02" type="curve" smooth="yes"/>
      <point x="124.05" y="1354.56"/>
      <point x="128.532" y="1274.56"/>
      <point x="130.157" y="1195.05" type="curve" smooth="yes"/>
      <point x="133.414" y="1035.72"/>
      <point x="135.043" y="876.352"/>
      <point x="135.043" y="716.985" type="curve" smooth="yes"/>
      <point x="135.043" y="564.338"/>
      <point x="133.548" y="411.69"/>
      <point x="130.56" y="259.072" type="curve" smooth="yes"/>
      <point x="129.147" y="186.907"/>
      <point x="125.307" y="114.345"/>
      <point x="125.307" y="42.2169" type="curve" smooth="yes"/>
      <point x="125.307" y="13.8958"/>
      <point x="137.156" y="0"/>
      <point x="166.286" y="0" type="curve" smooth="yes"/>
      <point x="342.625" y="0" type="line" smooth="yes"/>
      <point x="372.629" y="0"/>
      <point x="380.679" y="13.2002"/>
      <point x="383.563" y="40.4518" type="curve" smooth="yes"/>
      <point x="388.495" y="87.0607"/>
      <point x="384.624" y="141.52"/>
      <point x="384.998" y="188.96" type="curve" smooth="yes"/>
      <point x="385.842" y="296.218"/>
      <point x="386.269" y="403.479"/>
      <point x="386.269" y="510.74" type="curve" smooth="yes"/>
      <point x="386.269" y="622.959"/>
      <point x="384.857" y="735.181"/>
      <point x="384.857" y="847.391" type="curve" smooth="yes"/>
      <point x="384.857" y="851.245"/>
      <point x="384.6" y="864.754"/>
      <point x="391.94" y="864.754" type="curve" smooth="yes"/>
      <point x="397.153" y="864.754"/>
      <point x="402.334" y="859.53"/>
      <point x="405.689" y="856.336" type="curve" smooth="yes"/>
      <point x="717.523" y="559.448"/>
      <point x="1022.04" y="255.263"/>
      <point x="1337.62" y="-37.7952" type="curve"/>
    </contour>
  </outline>
</glyph>
<glyph name="O" format="2">
  <advance width="1485"/>
  <unicode hex="004F"/>
  <anchor x="742" y="0" name="bottom"/>
  <anchor x="742" y="701" name="center"/>
  <anchor x="1048" y="20" name="ogonek"/>
  <anchor x="742" y="1418" name="top"/>
  <anchor x="12" y="1402" name="topleft"/>
  <anchor x="883" y="1605" name="topright"/>
  <outline>
    <contour>
      <point x="78.1229" y="699.038" type="curve" smooth="yes"/>
      <point x="78.1229" y="321.384"/>
      <point x="346.926" y="-15.065"/>
      <point x="740.94" y="-15.065" type="curve" smooth="yes"/>
      <point x="1127.15" y="-15.065"/>
      <point x="1409.05" y="322.751"/>
      <point x="1409.05" y="695.885" type="curve" smooth="yes"/>
      <point x="1409.05" y="1068.67"/>
      <point x="1127.47" y="1415.12"/>
      <point x="739.832" y="1415.12" type="curve" smooth="yes"/>
      <point x="351.055" y="1415.12"/>
      <point x="78.1229" y="1071.24"/>
    </contour>
    <contour>
      <point x="334.609" y="701.933" type="curve" smooth="yes"/>
      <point x="334.609" y="934.096"/>
      <point x="489.576" y="1176.43"/>
      <point x="741.94" y="1176.43" type="curve" smooth="yes"/>
      <point x="998.556" y="1176.43"/>
      <point x="1148.41" y="933.493"/>
      <point x="1148.41" y="699.038" type="curve" smooth="yes"/>
      <point x="1148.41" y="468.105"/>
      <point x="1004.23" y="225.547"/>
      <point x="749.861" y="225.547" type="curve" smooth="yes"/>
      <point x="494.673" y="225.547"/>
      <point x="334.609" y="465.284"/>
    </contour>
  </outline>
</glyph>
<glyph name="P" format="2">
  <advance width="1278"/>
  <unicode hex="0050"/>
  <anchor x="624" y="0" name="bottom"/>
  <anchor x="624" y="1402" name="top"/>
  <outline>
    <contour>
      <point x="125.889" y="1359.9" type="curve" smooth="yes"/>
      <point x="125.889" y="1286.12"/>
      <point x="129.021" y="1212.06"/>
      <point x="130.142" y="1138.26" type="curve" smooth="yes"/>
      <point x="132.275" y="997.875"/>
      <point x="133.341" y="857.475"/>
      <point x="133.341" y="717.075" type="curve" smooth="yes"/>
      <point x="133.341" y="564.628"/>
      <point x="132.084" y="412.181"/>
      <point x="129.572" y="259.755" type="curve" smooth="yes"/>
      <point x="128.377" y="187.261"/>
      <point x="125.129" y="114.486"/>
      <point x="125.129" y="42.019" type="curve" smooth="yes"/>
      <point x="125.129" y="13.8426"/>
      <point x="137.258" y="0"/>
      <point x="166.107" y="0" type="curve" smooth="yes"/>
      <point x="338.637" y="0" type="line" smooth="yes"/>
      <point x="368.831" y="0"/>
      <point x="376.502" y="13.2019"/>
      <point x="379.579" y="40.4277" type="curve" smooth="yes"/>
      <point x="384.279" y="82.0177"/>
      <point x="380.611" y="128.943"/>
      <point x="381.03" y="171.099" type="curve" smooth="yes"/>
      <point x="381.967" y="265.46"/>
      <point x="383.117" y="359.866"/>
      <point x="383.117" y="454.231" type="curve" smooth="yes"/>
      <point x="383.117" y="462.291"/>
      <point x="387.38" y="466.463"/>
      <point x="395.406" y="466.463" type="curve" smooth="yes"/>
      <point x="650.548" y="466.391" type="line" smooth="yes"/>
      <point x="882.248" y="466.391"/>
      <point x="1123.18" y="555.919"/>
      <point x="1198.83" y="795.375" type="curve" smooth="yes"/>
      <point x="1213.32" y="841.224"/>
      <point x="1222.31" y="892.426"/>
      <point x="1222.31" y="940.576" type="curve" smooth="yes"/>
      <point x="1222.31" y="1285.05"/>
      <point x="913.564" y="1401.91"/>
      <point x="617.394" y="1401.91" type="curve" smooth="yes"/>
      <point x="166.868" y="1401.87" type="line" smooth="yes"/>
      <point x="138.213" y="1401.87"/>
      <point x="125.889" y="1387.93"/>
    </contour>
    <contour>
      <point x="383.747" y="708.019" type="line"/>
      <point x="383.772" y="859.156"/>
      <point x="383.169" y="1010.29"/>
      <point x="381.945" y="1161.43" type="curve"/>
      <point x="661.382" y="1161.58" type="line" smooth="yes"/>
      <point x="774.744" y="1161.58"/>
      <point x="909.465" y="1115.66"/>
      <point x="956.878" y="1003.36" type="curve" smooth="yes"/>
      <point x="965.58" y="982.751"/>
      <point x="973.362" y="956.088"/>
      <point x="973.362" y="933.586" type="curve" smooth="yes"/>
      <point x="973.362" y="910.438"/>
      <point x="965.479" y="883.27"/>
      <point x="956.258" y="862.183" type="curve" smooth="yes"/>
      <point x="906.591" y="748.602"/>
      <point x="763.754" y="707.874"/>
      <point x="649.862" y="707.874" type="curve" smooth="yes"/>
    </contour>
  </outline>
</glyph>
<glyph name="Q" format="2">
  <advance width="1485"/>
  <unicode hex="0051"/>
  <anchor x="759" y="0" name="bottom"/>
  <anchor x="759" y="1402" name="top"/>
  <outline>
    <contour>
      <point x="78.1229" y="699.038" type="curve" smooth="yes"/>
      <point x="78.1229" y="321.341"/>
      <point x="346.964" y="-15.065"/>
      <point x="740.94" y="-15.065" type="curve" smooth="yes"/>
      <point x="803.94" y="-15.065"/>
      <point x="863.894" y="-4.8845"/>
      <point x="924.364" y="12.1623" type="curve" smooth="yes"/>
      <point x="925.836" y="12.5773"/>
      <point x="927.311" y="12.889"/>
      <point x="928.849" y="12.889" type="curve" smooth="yes"/>
      <point x="940.672" y="12.889"/>
      <point x="1004.38" y="-99.5556"/>
      <point x="1016.91" y="-116.833" type="curve" smooth="yes"/>
      <point x="1026.05" y="-129.43"/>
      <point x="1035.36" y="-135.737"/>
      <point x="1051.41" y="-135.737" type="curve" smooth="yes"/>
      <point x="1201.39" y="-135.737" type="line" smooth="yes"/>
      <point x="1217.79" y="-135.737"/>
      <point x="1250.72" y="-134.101"/>
      <point x="1250.72" y="-109.483" type="curve" smooth="yes"/>
      <point x="1250.72" y="-76.0578"/>
      <point x="1121.53" y="88.6251"/>
      <point x="1121.53" y="106.573" type="curve" smooth="yes"/>
      <point x="1121.53" y="110.61"/>
      <point x="1124.18" y="113.514"/>
      <point x="1127.13" y="115.88" type="curve" smooth="yes"/>
      <point x="1306.19" y="259.541"/>
      <point x="1406.76" y="462.914"/>
      <point x="1406.76" y="693.7" type="curve" smooth="yes"/>
      <point x="1406.76" y="1066.71"/>
      <point x="1131.82" y="1416.93"/>
      <point x="740.941" y="1416.93" type="curve" smooth="yes"/>
      <point x="352.509" y="1416.93"/>
      <point x="78.1229" y="1070.71"/>
    </contour>
    <contour>
      <point x="883.595" y="478.446" type="line"/>
      <point x="651.428" y="471.456" type="line"/>
      <point x="700.872" y="390.573"/>
      <point x="750.401" y="309.741"/>
      <point x="800.205" y="229.08" type="curve"/>
      <point x="783.533" y="226.744"/>
      <point x="766.696" y="225.547"/>
      <point x="749.861" y="225.547" type="curve" smooth="yes"/>
      <point x="497.082" y="225.547"/>
      <point x="337.397" y="460.99"/>
      <point x="337.397" y="696.125" type="curve" smooth="yes"/>
      <point x="337.397" y="931.404"/>
      <point x="482.604" y="1176.43"/>
      <point x="741.94" y="1176.43" type="curve" smooth="yes"/>
      <point x="993.297" y="1176.43"/>
      <point x="1148.45" y="937.549"/>
      <point x="1148.45" y="705.642" type="curve" smooth="yes"/>
      <point x="1148.45" y="559.103"/>
      <point x="1100.4" y="412.287"/>
      <point x="986.723" y="314.429" type="curve"/>
    </contour>
  </outline>
</glyph>
<glyph name="R" format="2">
  <advance width="1217"/>
  <unicode hex="0052"/>
  <anchor x="613" y="0" name="bottom"/>
  <anchor x="543" y="1435" name="top"/>
  <outline>
    <contour>
      <point x="538.193" y="1401.87" type="curve" smooth="yes"/>
      <point x="166.825" y="1401.87" type="line" smooth="yes"/>
      <point x="138.162" y="1401.87"/>
      <point x="125.846" y="1388.04"/>
      <point x="125.846" y="1359.96" type="curve" smooth="yes"/>
      <point x="125.846" y="1290.93"/>
      <point x="128.623" y="1221.65"/>
      <point x="129.644" y="1152.6" type="curve" smooth="yes"/>
      <point x="131.792" y="1007.43"/>
      <point x="132.865" y="862.254"/>
      <point x="132.865" y="717.075" type="curve" smooth="yes"/>
      <point x="132.865" y="564.616"/>
      <point x="131.681" y="412.156"/>
      <point x="129.315" y="259.716" type="curve" smooth="yes"/>
      <point x="128.19" y="187.205"/>
      <point x="125.13" y="114.444"/>
      <point x="125.13" y="41.9573" type="curve" smooth="yes"/>
      <point x="125.13" y="13.8447"/>
      <point x="137.383" y="0"/>
      <point x="166.108" y="0" type="curve" smooth="yes"/>
      <point x="338.63" y="0" type="line" smooth="yes"/>
      <point x="369.244" y="0"/>
      <point x="376.225" y="13.2443"/>
      <point x="379.575" y="40.4891" type="curve" smooth="yes"/>
      <point x="384.531" y="80.798"/>
      <point x="380.563" y="137.033"/>
      <point x="380.927" y="179.064" type="curve" smooth="yes"/>
      <point x="381.727" y="271.442"/>
      <point x="382.712" y="363.839"/>
      <point x="382.712" y="456.221" type="curve" smooth="yes"/>
      <point x="382.712" y="464.286"/>
      <point x="386.967" y="468.46"/>
      <point x="395.001" y="468.46" type="curve" smooth="yes"/>
      <point x="573.942" y="468.46" type="line" smooth="yes"/>
      <point x="578.384" y="468.46"/>
      <point x="581.784" y="466.444"/>
      <point x="584.266" y="462.836" type="curve" smooth="yes"/>
      <point x="658.515" y="354.895"/>
      <point x="727.128" y="242.073"/>
      <point x="799.204" y="132.55" type="curve" smooth="yes"/>
      <point x="823.957" y="94.9368"/>
      <point x="847.574" y="53.9103"/>
      <point x="874.838" y="18.2411" type="curve" smooth="yes"/>
      <point x="884.188" y="6.00736"/>
      <point x="892.978" y="0"/>
      <point x="908.907" y="0" type="curve" smooth="yes"/>
      <point x="1107.81" y="0" type="line" smooth="yes"/>
      <point x="1124.25" y="0"/>
      <point x="1157.05" y="1.67513"/>
      <point x="1157.05" y="26.2883" type="curve" smooth="yes"/>
      <point x="1157.05" y="39.8871"/>
      <point x="1148.93" y="52.6004"/>
      <point x="1142.1" y="63.6365" type="curve" smooth="yes"/>
      <point x="1112.24" y="111.927"/>
      <point x="849.903" y="511.213"/>
      <point x="849.903" y="523.676" type="curve" smooth="yes"/>
      <point x="849.903" y="528.395"/>
      <point x="853.527" y="531.268"/>
      <point x="857.14" y="533.535" type="curve" smooth="yes"/>
      <point x="1002.74" y="624.911"/>
      <point x="1067.41" y="771.223"/>
      <point x="1067.41" y="940.576" type="curve" smooth="yes"/>
      <point x="1067.41" y="1262.1"/>
      <point x="835.03" y="1401.87"/>
    </contour>
    <contour>
      <point x="383.261" y="708.019" type="line"/>
      <point x="383.283" y="859.156"/>
      <point x="382.75" y="1010.29"/>
      <point x="381.667" y="1161.43" type="curve"/>
      <point x="583.356" y="1161.43" type="line" smooth="yes"/>
      <point x="725.714" y="1161.43"/>
      <point x="807.695" y="1072.47"/>
      <point x="807.695" y="931.589" type="curve" smooth="yes"/>
      <point x="807.695" y="798.132"/>
      <point x="717.16" y="707.986"/>
      <point x="584.142" y="707.986" type="curve" smooth="yes"/>
    </contour>
  </outline>
</glyph>
<glyph name="S" format="2">
  <advance width="956"/>
  <unicode hex="0053"/>
  <anchor x="437" y="-16" name="bottom"/>
  <anchor x="437" y="1406" name="top"/>
  <outline>
    <contour>
      <point x="823.972" y="1329.63" type="curve" smooth="yes"/>
      <point x="823.972" y="1348.69"/>
      <point x="813.562" y="1356.23"/>
      <point x="797.691" y="1363.33" type="curve" smooth="yes"/>
      <point x="725.481" y="1395.63"/>
      <point x="609.916" y="1410.1"/>
      <point x="531.056" y="1410.1" type="curve" smooth="yes"/>
      <point x="293.139" y="1410.1"/>
      <point x="81.3565" y="1303.49"/>
      <point x="81.3565" y="1037.89" type="curve" smooth="yes"/>
      <point x="81.3565" y="610.485"/>
      <point x="618.442" y="727.16"/>
      <point x="618.442" y="397.36" type="curve" smooth="yes"/>
      <point x="618.442" y="249.28"/>
      <point x="488.764" y="205.371"/>
      <point x="362.889" y="205.371" type="curve" smooth="yes"/>
      <point x="293.966" y="205.371"/>
      <point x="227.561" y="220.16"/>
      <point x="161.74" y="239.204" type="curve" smooth="yes"/>
      <point x="155.457" y="241.021"/>
      <point x="149.118" y="242.5"/>
      <point x="142.535" y="242.5" type="curve" smooth="yes"/>
      <point x="120.21" y="242.5"/>
      <point x="114.01" y="227.937"/>
      <point x="107.784" y="209.705" type="curve" smooth="yes"/>
      <point x="102.601" y="194.527"/>
      <point x="71.3072" y="72.2649"/>
      <point x="71.3072" y="61.0026" type="curve" smooth="yes"/>
      <point x="71.3072" y="41.1205"/>
      <point x="82.7906" y="33.8679"/>
      <point x="99.4402" y="27.3172" type="curve" smooth="yes"/>
      <point x="177.229" y="-3.28823"/>
      <point x="302.561" y="-15.0516"/>
      <point x="386.509" y="-15.0516" type="curve" smooth="yes"/>
      <point x="647.627" y="-15.0516"/>
      <point x="886.031" y="91.0179"/>
      <point x="886.031" y="386.7" type="curve" smooth="yes"/>
      <point x="886.031" y="817.789"/>
      <point x="361.983" y="729.644"/>
      <point x="361.983" y="1031.71" type="curve" smooth="yes"/>
      <point x="361.983" y="1148.82"/>
      <point x="474.244" y="1188.13"/>
      <point x="573.451" y="1188.13" type="curve" smooth="yes"/>
      <point x="629.073" y="1188.13"/>
      <point x="681.336" y="1175.94"/>
      <point x="733.819" y="1158.57" type="curve" smooth="yes"/>
      <point x="741.452" y="1156.04"/>
      <point x="749.144" y="1153.78"/>
      <point x="757.268" y="1153.78" type="curve" smooth="yes"/>
      <point x="780.191" y="1153.78"/>
      <point x="786.001" y="1170.07"/>
      <point x="791.863" y="1188.55" type="curve" smooth="yes"/>
      <point x="796.583" y="1203.44"/>
      <point x="823.972" y="1318.32"/>
    </contour>
  </outline>
</glyph>
<glyph name="T" format="2">
  <advance width="1051"/>
  <unicode hex="0054"/>
  <anchor x="526" y="0" name="bottom"/>
  <anchor x="526" y="701" name="center"/>
  <anchor x="526" y="1402" name="top"/>
  <outline>
    <contour>
      <point x="60.7807" y="1360" type="curve" smooth="yes"/>
      <point x="60.7807" y="1308.11"/>
      <point x="60.0182" y="1253.44"/>
      <point x="63.695" y="1201.79" type="curve" smooth="yes"/>
      <point x="65.6286" y="1174.62"/>
      <point x="76.0336" y="1161.43"/>
      <point x="104.677" y="1161.43" type="curve" smooth="yes"/>
      <point x="381.345" y="1161.43" type="line" smooth="yes"/>
      <point x="389.379" y="1161.43"/>
      <point x="393.632" y="1157.25"/>
      <point x="393.632" y="1149.19" type="curve" smooth="yes"/>
      <point x="393.632" y="1005.25"/>
      <point x="394.511" y="861.315"/>
      <point x="394.511" y="717.377" type="curve" smooth="yes"/>
      <point x="394.511" y="491.994"/>
      <point x="392.368" y="266.608"/>
      <point x="392.368" y="41.235" type="curve" smooth="yes"/>
      <point x="392.368" y="13.8051"/>
      <point x="405.748" y="0"/>
      <point x="433.335" y="0" type="curve" smooth="yes"/>
      <point x="605.816" y="0" type="line" smooth="yes"/>
      <point x="634.72" y="0"/>
      <point x="645.704" y="13.4869"/>
      <point x="646.782" y="41.2083" type="curve" smooth="yes"/>
      <point x="649.585" y="113.321"/>
      <point x="646.016" y="187.054"/>
      <point x="645.736" y="259.326" type="curve" smooth="yes"/>
      <point x="645.144" y="412.009"/>
      <point x="644.847" y="564.693"/>
      <point x="644.847" y="717.377" type="curve" smooth="yes"/>
      <point x="644.847" y="861.313"/>
      <point x="645.64" y="1005.25"/>
      <point x="645.64" y="1149.18" type="curve" smooth="yes"/>
      <point x="645.64" y="1157.25"/>
      <point x="649.887" y="1161.43"/>
      <point x="657.927" y="1161.43" type="curve" smooth="yes"/>
      <point x="947.443" y="1161.43" type="line" smooth="yes"/>
      <point x="976.086" y="1161.43"/>
      <point x="986.491" y="1174.62"/>
      <point x="988.425" y="1201.79" type="curve" smooth="yes"/>
      <point x="992.102" y="1253.44"/>
      <point x="991.339" y="1308.11"/>
      <point x="991.339" y="1360" type="curve" smooth="yes"/>
      <point x="991.339" y="1388.05"/>
      <point x="978.958" y="1401.87" name=".hr01"/>
      <point x="950.361" y="1401.87" type="curve" smooth="yes"/>
      <point x="101.759" y="1401.87" type="line" smooth="yes"/>
      <point x="73.1616" y="1401.87"/>
      <point x="60.7807" y="1388.05"/>
    </contour>
  </outline>
</glyph>
<glyph name="U" format="2">
  <advance width="1352"/>
  <unicode hex="0055"/>
  <anchor x="677" y="0" name="bottom"/>
  <anchor x="988" y="20" name="ogonek"/>
  <anchor x="677" y="1435" name="top"/>
  <anchor x="1223" y="1485" name="topright"/>
  <outline>
    <contour>
      <point x="365.765" y="716.79" type="line" smooth="yes"/>
      <point x="365.765" y="862.937"/>
      <point x="365.052" y="1009.08"/>
      <point x="363.634" y="1155.22" type="curve" smooth="yes"/>
      <point x="361.87" y="1309.96" type="line"/>
      <point x="361.165" y="1361.53" type="line"/>
      <point x="358.272" y="1388.71"/>
      <point x="350.08" y="1401.87"/>
      <point x="320.227" y="1401.87" type="curve" smooth="yes"/>
      <point x="148.054" y="1401.87" type="line" smooth="yes"/>
      <point x="119.121" y="1401.87"/>
      <point x="107.074" y="1388.02"/>
      <point x="107.074" y="1359.8" type="curve" smooth="yes"/>
      <point x="107.074" y="1291.33"/>
      <point x="110.315" y="1222.54"/>
      <point x="111.512" y="1154.05" type="curve" smooth="yes"/>
      <point x="114.06" y="1008.31"/>
      <point x="115.341" y="862.54"/>
      <point x="115.341" y="716.772" type="curve" smooth="yes"/>
      <point x="115.341" y="646.648"/>
      <point x="114.451" y="576.522"/>
      <point x="114.451" y="506.405" type="curve" smooth="yes"/>
      <point x="114.451" y="185.039"/>
      <point x="366.22" y="-15.065"/>
      <point x="675" y="-15.065" type="curve" smooth="yes"/>
      <point x="985.135" y="-15.065"/>
      <point x="1235.67" y="184.405"/>
      <point x="1237.55" y="506.405" type="curve" smooth="yes"/>
      <point x="1237.96" y="576.495"/>
      <point x="1236.66" y="646.666"/>
      <point x="1236.66" y="716.772" type="curve" smooth="yes"/>
      <point x="1236.66" y="862.54"/>
      <point x="1237.94" y="1008.31"/>
      <point x="1240.49" y="1154.05" type="curve" smooth="yes"/>
      <point x="1241.69" y="1222.54"/>
      <point x="1244.93" y="1291.33"/>
      <point x="1244.93" y="1359.8" type="curve" smooth="yes"/>
      <point x="1244.93" y="1388.02"/>
      <point x="1232.88" y="1401.87"/>
      <point x="1203.95" y="1401.87" type="curve" smooth="yes"/>
      <point x="1035.76" y="1401.87" type="line" smooth="yes"/>
      <point x="1005.91" y="1401.87"/>
      <point x="997.718" y="1388.72"/>
      <point x="994.821" y="1361.54" type="curve"/>
      <point x="994.107" y="1309.96" type="line"/>
      <point x="992.32" y="1155.23" type="line" smooth="yes"/>
      <point x="990.884" y="1009.09"/>
      <point x="990.163" y="862.939"/>
      <point x="990.163" y="716.79" type="curve" smooth="yes"/>
      <point x="990.634" y="512.395" type="line" smooth="yes"/>
      <point x="990.634" y="327.416"/>
      <point x="855.007" y="227.529"/>
      <point x="679.231" y="227.529" type="curve" smooth="yes"/>
      <point x="510.037" y="227.529"/>
      <point x="365.299" y="333.374"/>
      <point x="365.299" y="512.395" type="curve" smooth="yes"/>
    </contour>
  </outline>
</glyph>
<glyph name="V" format="2">
  <advance width="1268"/>
  <unicode hex="0056"/>
  <anchor x="635" y="0" name="bottom"/>
  <anchor x="635" y="1402" name="top"/>
  <outline>
    <contour>
      <point x="320.055" y="1401.87" type="curve" smooth="yes"/>
      <point x="105.25" y="1401.87" type="line" smooth="yes"/>
      <point x="85.8012" y="1401.87"/>
      <point x="60.5509" y="1397.76"/>
      <point x="60.5509" y="1372.63" type="curve" smooth="yes"/>
      <point x="60.5509" y="1362.93"/>
      <point x="63.8673" y="1353.49"/>
      <point x="67.5346" y="1344.65" type="curve" smooth="yes"/>
      <point x="178.64" y="1077.11"/>
      <point x="288.465" y="809.474"/>
      <point x="394.978" y="540.039" type="curve" smooth="yes"/>
      <point x="529.429" y="199.858" type="line" smooth="yes"/>
      <point x="551.848" y="143.336"/>
      <point x="573.075" y="85.7793"/>
      <point x="597.112" y="29.9554" type="curve" smooth="yes"/>
      <point x="602.31" y="17.8851"/>
      <point x="616.011" y="-17.4288"/>
      <point x="634.982" y="-17.4288" type="curve" smooth="yes"/>
      <point x="653.959" y="-17.4288"/>
      <point x="667.641" y="17.9092"/>
      <point x="672.83" y="29.9809" type="curve" smooth="yes"/>
      <point x="696.826" y="85.8068"/>
      <point x="718.009" y="143.364"/>
      <point x="740.386" y="199.887" type="curve" smooth="yes"/>
      <point x="874.595" y="540.07" type="line" smooth="yes"/>
      <point x="980.922" y="809.503"/>
      <point x="1090.57" y="1077.13"/>
      <point x="1201.51" y="1344.67" type="curve" smooth="yes"/>
      <point x="1205.17" y="1353.5"/>
      <point x="1208.47" y="1362.93"/>
      <point x="1208.47" y="1372.62" type="curve" smooth="yes"/>
      <point x="1208.47" y="1397.75"/>
      <point x="1183.24" y="1401.87"/>
      <point x="1163.78" y="1401.87" type="curve" smooth="yes"/>
      <point x="953.582" y="1401.87" type="line" smooth="yes"/>
      <point x="932.44" y="1401.87"/>
      <point x="922.828" y="1392.91"/>
      <point x="914.915" y="1374.38" type="curve" smooth="yes"/>
      <point x="904.919" y="1350.96"/>
      <point x="897.671" y="1324.53"/>
      <point x="889.37" y="1300.38" type="curve" smooth="yes"/>
      <point x="838.858" y="1152.18" type="line" smooth="yes"/>
      <point x="777.566" y="971.002"/>
      <point x="720.597" y="788.003"/>
      <point x="657.576" y="607.476" type="curve" smooth="yes"/>
      <point x="656.369" y="604.017"/>
      <point x="652.166" y="590.295"/>
      <point x="646.095" y="590.295" type="curve" smooth="yes"/>
      <point x="640.073" y="590.295"/>
      <point x="635.63" y="603.748"/>
      <point x="634.332" y="607.226" type="curve" smooth="yes"/>
      <point x="566.917" y="787.953"/>
      <point x="505.521" y="971.285"/>
      <point x="439.86" y="1152.71" type="curve" smooth="yes"/>
      <point x="385.769" y="1301.1" type="line" smooth="yes"/>
      <point x="376.873" y="1325.32"/>
      <point x="368.98" y="1351.74"/>
      <point x="358.43" y="1375.19" type="curve" smooth="yes"/>
      <point x="350.34" y="1393.17"/>
      <point x="340.694" y="1401.87"/>
    </contour>
  </outline>
</glyph>
<glyph name="W" format="2">
  <advance width="1827"/>
  <unicode hex="0057"/>
  <anchor x="915" y="0" name="bottom"/>
  <anchor x="915" y="1418" name="top"/>
  <outline>
    <contour>
      <point x="582.85" y="-17.4704" type="curve" smooth="yes"/>
      <point x="601.544" y="-17.4704"/>
      <point x="616.186" y="16.1845"/>
      <point x="622.127" y="28.155" type="curve" smooth="yes"/>
      <point x="651.92" y="88.1912"/>
      <point x="677.694" y="151.264"/>
      <point x="704.968" y="212.541" type="curve" smooth="yes"/>
      <point x="783.708" y="389.448"/>
      <point x="858.016" y="568.656"/>
      <point x="938.215" y="744.842" type="curve" smooth="yes"/>
      <point x="939.884" y="748.509"/>
      <point x="944.174" y="758.704"/>
      <point x="949.856" y="758.704" type="curve" smooth="yes"/>
      <point x="955.675" y="758.704"/>
      <point x="959.534" y="747.935"/>
      <point x="960.992" y="744.24" type="curve" smooth="yes"/>
      <point x="1029.04" y="571.728"/>
      <point x="1091.09" y="396.495"/>
      <point x="1157.68" y="223.346" type="curve" smooth="yes"/>
      <point x="1180.75" y="163.371"/>
      <point x="1202.27" y="101.735"/>
      <point x="1227.81" y="42.8232" type="curve" smooth="yes"/>
      <point x="1232.89" y="31.0966"/>
      <point x="1247.69" y="-9.0033"/>
      <point x="1267.11" y="-9.0033" type="curve" smooth="yes"/>
      <point x="1286.9" y="-9.0033"/>
      <point x="1300.18" y="33.2276"/>
      <point x="1304.43" y="44.9196" type="curve" smooth="yes"/>
      <point x="1324.63" y="100.524"/>
      <point x="1342.02" y="157.612"/>
      <point x="1360.8" y="213.743" type="curve" smooth="yes"/>
      <point x="1398.46" y="326.275"/>
      <point x="1436.31" y="438.743"/>
      <point x="1474.73" y="551.018" type="curve" smooth="yes"/>
      <point x="1566.05" y="817.903"/>
      <point x="1662.76" y="1082.08"/>
      <point x="1762.71" y="1345.83" type="curve" smooth="yes"/>
      <point x="1765.87" y="1354.17"/>
      <point x="1768.62" y="1362.97"/>
      <point x="1768.62" y="1371.99" type="curve" smooth="yes"/>
      <point x="1768.62" y="1397.24"/>
      <point x="1744.49" y="1401.87"/>
      <point x="1724.49" y="1401.87" type="curve" smooth="yes"/>
      <point x="1542.19" y="1401.87" type="line" smooth="yes"/>
      <point x="1520.19" y="1401.87"/>
      <point x="1510.61" y="1392.45"/>
      <point x="1503.07" y="1372.96" type="curve" smooth="yes"/>
      <point x="1493.85" y="1349.13"/>
      <point x="1487.58" y="1322.17"/>
      <point x="1480.17" y="1297.61" type="curve" smooth="yes"/>
      <point x="1465.02" y="1247.35"/>
      <point x="1450.07" y="1197.02"/>
      <point x="1435.29" y="1146.65" type="curve" smooth="yes" name=".hr01"/>
      <point x="1381.12" y="961.901"/>
      <point x="1332.51" y="775.567"/>
      <point x="1278.68" y="590.797" type="curve" smooth="yes"/>
      <point x="1277.74" y="587.552"/>
      <point x="1273.85" y="571.802"/>
      <point x="1267.59" y="571.802" type="curve" smooth="yes"/>
      <point x="1261.52" y="571.802"/>
      <point x="1256.57" y="586.453"/>
      <point x="1255.28" y="589.823" type="curve" smooth="yes"/>
      <point x="1185.07" y="773.948"/>
      <point x="1121.77" y="961.356"/>
      <point x="1055.42" y="1146.95" type="curve" smooth="yes"/>
      <point x="1000.97" y="1298.91" type="line" smooth="yes"/>
      <point x="992.045" y="1323.73"/>
      <point x="984.193" y="1350.78"/>
      <point x="973.613" y="1374.85" type="curve" smooth="yes"/>
      <point x="965.609" y="1393.06"/>
      <point x="955.934" y="1401.87"/>
      <point x="935.104" y="1401.87" type="curve" smooth="yes"/>
      <point x="772.115" y="1401.87" type="line" smooth="yes"/>
      <point x="752.07" y="1401.87"/>
      <point x="728.109" y="1397.16"/>
      <point x="728.109" y="1371.92" type="curve" smooth="yes"/>
      <point x="728.109" y="1350.82"/>
      <point x="813.68" y="1136.95"/>
      <point x="827.976" y="1099.07" type="curve"/>
      <point x="828.013" y="1090.49" type="line"/>
      <point x="762.78" y="912.975"/>
      <point x="701.217" y="733.059"/>
      <point x="631.723" y="557.227" type="curve" smooth="yes"/>
      <point x="630.352" y="553.758"/>
      <point x="625.682" y="540.233"/>
      <point x="619.666" y="540.233" type="curve" smooth="yes"/>
      <point x="613.52" y="540.233"/>
      <point x="609.541" y="554.562"/>
      <point x="608.451" y="557.965" type="curve" smooth="yes"/>
      <point x="546.748" y="750.672"/>
      <point x="490.511" y="945.195"/>
      <point x="428.6" y="1137.91" type="curve" smooth="yes"/>
      <point x="411.717" y="1190.47"/>
      <point x="394.649" y="1242.96"/>
      <point x="377.362" y="1295.38" type="curve" smooth="yes"/>
      <point x="368.895" y="1321.06"/>
      <point x="361.529" y="1349.05"/>
      <point x="351.263" y="1373.96" type="curve" smooth="yes"/>
      <point x="343.512" y="1392.78"/>
      <point x="333.791" y="1401.87"/>
      <point x="312.463" y="1401.87" type="curve" smooth="yes"/>
      <point x="104.147" y="1401.87" type="line" smooth="yes"/>
      <point x="84.3471" y="1401.87"/>
      <point x="59.8089" y="1397.44"/>
      <point x="59.8089" y="1372.22" type="curve" smooth="yes"/>
      <point x="59.8089" y="1362.95"/>
      <point x="62.7577" y="1353.91"/>
      <point x="66.0998" y="1345.38" type="curve" smooth="yes"/>
      <point x="170.473" y="1079.07"/>
      <point x="271.62" y="812.308"/>
      <point x="367.434" y="542.763" type="curve" smooth="yes"/>
      <point x="407.741" y="429.371"/>
      <point x="447.505" y="315.787"/>
      <point x="487.122" y="202.152" type="curve" smooth="yes"/>
      <point x="506.88" y="145.477"/>
      <point x="525.233" y="87.7869"/>
      <point x="546.473" y="31.6855" type="curve" smooth="yes"/>
      <point x="551.074" y="19.5352"/>
      <point x="563.433" y="-17.4704"/>
    </contour>
  </outline>
</glyph>
<glyph name="X" format="2">
  <advance width="1174"/>
  <unicode hex="0058"/>
  <anchor x="589" y="0" name="bottom"/>
  <anchor x="589" y="1402" name="top"/>
  <outline>
    <contour>
      <point x="422.69" y="718.725" type="curve" smooth="yes"/>
      <point x="422.69" y="703.774"/>
      <point x="87.104" y="128.382"/>
      <point x="49.7513" y="61.9697" type="curve" smooth="yes"/>
      <point x="43.8187" y="51.4216"/>
      <point x="37.295" y="39.533"/>
      <point x="37.295" y="26.9951" type="curve" smooth="yes"/>
      <point x="37.295" y="2.45932"/>
      <point x="67.2881" y="0"/>
      <point x="85.0786" y="0" type="curve" smooth="yes"/>
      <point x="304.089" y="0" type="line" smooth="yes"/>
      <point x="323.328" y="0"/>
      <point x="332.023" y="7.66646"/>
      <point x="341.129" y="23.5051" type="curve" smooth="yes"/>
      <point x="363.956" y="63.2086"/>
      <point x="381.493" y="109.721"/>
      <point x="400.852" y="151.467" type="curve" smooth="yes"/>
      <point x="449.196" y="255.716"/>
      <point x="494.607" y="361.899"/>
      <point x="544.679" y="465.261" type="curve" smooth="yes"/>
      <point x="546.559" y="469.14"/>
      <point x="549.838" y="476.579"/>
      <point x="555.397" y="476.579" type="curve" smooth="yes"/>
      <point x="560.708" y="476.579"/>
      <point x="564.387" y="469.909"/>
      <point x="566.579" y="466.214" type="curve" smooth="yes"/>
      <point x="628.458" y="361.91"/>
      <point x="686.146" y="254.645"/>
      <point x="746.553" y="149.42" type="curve" smooth="yes"/>
      <point x="770.855" y="107.086"/>
      <point x="793.678" y="60.5222"/>
      <point x="821.094" y="20.3475" type="curve" smooth="yes"/>
      <point x="830.416" y="6.68857"/>
      <point x="839.264" y="0"/>
      <point x="856.477" y="0" type="curve" smooth="yes"/>
      <point x="1089.46" y="0" type="line" smooth="yes"/>
      <point x="1107.17" y="0"/>
      <point x="1137.4" y="2.39069"/>
      <point x="1137.4" y="26.9104" type="curve" smooth="yes"/>
      <point x="1137.4" y="39.5679"/>
      <point x="1130.71" y="51.5599"/>
      <point x="1124.67" y="62.1652" type="curve" smooth="yes"/>
      <point x="1087.37" y="127.694"/>
      <point x="752.499" y="694.332"/>
      <point x="752.499" y="709.109" type="curve" smooth="yes"/>
      <point x="752.499" y="723.217"/>
      <point x="1077.11" y="1275.99"/>
      <point x="1113.15" y="1339.84" type="curve" smooth="yes"/>
      <point x="1119.12" y="1350.41"/>
      <point x="1125.71" y="1362.33"/>
      <point x="1125.71" y="1374.91" type="curve" smooth="yes"/>
      <point x="1125.71" y="1399.44"/>
      <point x="1095.63" y="1401.87"/>
      <point x="1077.87" y="1401.87" type="curve" smooth="yes"/>
      <point x="866.361" y="1401.87" type="line" smooth="yes"/>
      <point x="847.196" y="1401.87"/>
      <point x="838.585" y="1394.27"/>
      <point x="829.414" y="1378.56" type="curve" smooth="yes"/>
      <point x="807.371" y="1340.81"/>
      <point x="790.395" y="1296.38"/>
      <point x="771.686" y="1256.63" type="curve" smooth="yes"/>
      <point x="724.942" y="1157.31"/>
      <point x="680.997" y="1056.07"/>
      <point x="632.485" y="957.668" type="curve" smooth="yes"/>
      <point x="630.58" y="953.802"/>
      <point x="627.296" y="946.507"/>
      <point x="621.771" y="946.507" type="curve" smooth="yes"/>
      <point x="616.484" y="946.507"/>
      <point x="612.83" y="953.078"/>
      <point x="610.631" y="956.762" type="curve" smooth="yes"/>
      <point x="551.356" y="1056.04"/>
      <point x="496.213" y="1158.3"/>
      <point x="438.487" y="1258.55" type="curve" smooth="yes"/>
      <point x="415.276" y="1298.86"/>
      <point x="393.491" y="1343.35"/>
      <point x="367.273" y="1381.55" type="curve" smooth="yes"/>
      <point x="357.882" y="1395.24"/>
      <point x="349.217" y="1401.87"/>
      <point x="331.906" y="1401.87" type="curve" smooth="yes"/>
      <point x="103.077" y="1401.87" type="line" smooth="yes"/>
      <point x="85.3087" y="1401.87"/>
      <point x="55.2532" y="1399.43"/>
      <point x="55.2532" y="1374.9" type="curve" smooth="yes"/>
      <point x="55.2532" y="1362.33"/>
      <point x="61.8268" y="1350.43"/>
      <point x="67.7834" y="1339.86" type="curve" smooth="yes"/>
      <point x="103.308" y="1276.82"/>
      <point x="422.69" y="732.664"/>
    </contour>
  </outline>
</glyph>
<glyph name="Y" format="2">
  <advance width="1202"/>
  <unicode hex="0059"/>
  <anchor x="601" y="0" name="bottom"/>
  <anchor x="637" y="1434" name="top"/>
  <anchor x="7" y="1402" name="topleft"/>
  <outline>
    <contour>
      <point x="469.303" y="41.2304" type="curve" smooth="yes"/>
      <point x="469.303" y="13.7435"/>
      <point x="482.621" y="0"/>
      <point x="510.27" y="0" type="curve" smooth="yes"/>
      <point x="682.751" y="0" type="line" smooth="yes"/>
      <point x="713.699" y="0"/>
      <point x="720.95" y="13.4759"/>
      <point x="723.718" y="41.212" type="curve" smooth="yes"/>
      <point x="727.546" y="79.576"/>
      <point x="723.265" y="123.088"/>
      <point x="723.079" y="161.957" type="curve" smooth="yes"/>
      <point x="722.631" y="255.869"/>
      <point x="722.073" y="349.786"/>
      <point x="722.073" y="443.698" type="curve"/>
      <point x="723.265" y="449.007" type="line"/>
      <point x="757.311" y="526.949"/>
      <point x="796.743" y="603.524"/>
      <point x="833.386" y="680.346" type="curve" smooth="yes"/>
      <point x="939.139" y="902.058"/>
      <point x="1048.95" y="1121.51"/>
      <point x="1156.66" y="1342.21" type="curve" smooth="yes"/>
      <point x="1161.43" y="1351.99"/>
      <point x="1166.19" y="1362.7"/>
      <point x="1166.19" y="1373.83" type="curve" smooth="yes"/>
      <point x="1166.19" y="1398.76"/>
      <point x="1138.43" y="1401.87"/>
      <point x="1120.08" y="1401.87" type="curve" smooth="yes"/>
      <point x="899.68" y="1401.87" type="line" smooth="yes"/>
      <point x="879.798" y="1401.87"/>
      <point x="870.571" y="1393.71"/>
      <point x="861.954" y="1376.83" type="curve" smooth="yes"/>
      <point x="834.661" y="1323.36"/>
      <point x="812.562" y="1258.74"/>
      <point x="789.394" y="1202.65" type="curve" smooth="yes"/>
      <point x="730.746" y="1060.65"/>
      <point x="675.681" y="916.737"/>
      <point x="615.316" y="775.522" type="curve" smooth="yes"/>
      <point x="613.738" y="771.829"/>
      <point x="609.722" y="761.502"/>
      <point x="603.979" y="761.502" type="curve" smooth="yes"/>
      <point x="598.258" y="761.502"/>
      <point x="594.179" y="771.743"/>
      <point x="592.568" y="775.431" type="curve" smooth="yes"/>
      <point x="530.856" y="916.73"/>
      <point x="474.408" y="1060.76"/>
      <point x="414.393" y="1202.85" type="curve" smooth="yes"/>
      <point x="390.47" y="1259.49"/>
      <point x="368.299" y="1322.96"/>
      <point x="340.153" y="1377.13" type="curve" smooth="yes"/>
      <point x="331.489" y="1393.8"/>
      <point x="322.251" y="1401.87"/>
      <point x="302.555" y="1401.87" type="curve" smooth="yes"/>
      <point x="81.3646" y="1401.87" type="line" smooth="yes"/>
      <point x="62.8919" y="1401.87"/>
      <point x="35.4275" y="1398.65"/>
      <point x="35.4275" y="1373.71" type="curve" smooth="yes"/>
      <point x="35.4275" y="1362.73"/>
      <point x="40.0062" y="1352.17"/>
      <point x="44.645" y="1342.49" type="curve" smooth="yes"/>
      <point x="150.421" y="1121.73"/>
      <point x="258.192" y="902.173"/>
      <point x="361.922" y="680.39" type="curve" smooth="yes"/>
      <point x="397.87" y="603.529"/>
      <point x="436.504" y="526.905"/>
      <point x="469.916" y="448.972" type="curve" smooth="yes"/>
      <point x="472.948" y="441.9"/>
      <point x="469.303" y="82.642"/>
    </contour>
  </outline>
</glyph>
<glyph name="Z" format="2">
  <advance width="1034"/>
  <unicode hex="005A"/>
  <anchor x="519" y="0" name="bottom"/>
  <anchor x="519" y="1402" name="top"/>
  <outline>
    <contour>
      <point x="51.8475" y="0" type="curve" smooth="yes"/>
      <point x="997.881" y="0" type="line" smooth="yes"/>
      <point x="1026.71" y="0"/>
      <point x="1038.86" y="13.8642"/>
      <point x="1038.86" y="42.0315" type="curve" smooth="yes"/>
      <point x="1038.86" y="91.1551"/>
      <point x="1040.07" y="152.148"/>
      <point x="1035.41" y="200.314" type="curve" smooth="yes"/>
      <point x="1032.79" y="227.366"/>
      <point x="1023.6" y="240.558"/>
      <point x="994.428" y="240.558" type="curve" smooth="yes"/>
      <point x="443.471" y="240.558" type="line" smooth="yes"/>
      <point x="438.124" y="240.558"/>
      <point x="429.515" y="241.501"/>
      <point x="429.515" y="248.862" type="curve" smooth="yes"/>
      <point x="429.515" y="265.883"/>
      <point x="954.303" y="1236.64"/>
      <point x="1010.15" y="1340.87" type="curve" smooth="yes"/>
      <point x="1015.61" y="1351.07"/>
      <point x="1021.32" y="1362.54"/>
      <point x="1021.32" y="1374.46" type="curve" smooth="yes"/>
      <point x="1021.32" y="1399.07"/>
      <point x="992.448" y="1401.87"/>
      <point x="974.279" y="1401.87" type="curve" smooth="yes"/>
      <point x="92.6987" y="1401.87" type="line" smooth="yes"/>
      <point x="64.0894" y="1401.87"/>
      <point x="51.7207" y="1388.05"/>
      <point x="51.7207" y="1360" type="curve" smooth="yes"/>
      <point x="51.7207" y="1310.02"/>
      <point x="50.0195" y="1250.97"/>
      <point x="54.635" y="1201.79" type="curve" smooth="yes"/>
      <point x="57.1814" y="1174.66"/>
      <point x="66.3563" y="1161.43"/>
      <point x="95.6172" y="1161.43" type="curve" smooth="yes"/>
      <point x="595.995" y="1161.43" type="line" smooth="yes"/>
      <point x="601.434" y="1161.43"/>
      <point x="609.759" y="1160.36"/>
      <point x="609.759" y="1153.02" type="curve" smooth="yes"/>
      <point x="609.759" y="1150.45"/>
      <point x="608.035" y="1145.83"/>
      <point x="606.951" y="1143.65" type="curve" smooth="yes"/>
      <point x="423.748" y="774.586"/>
      <point x="193.482" y="429.924"/>
      <point x="15.2274" y="58.3332" type="curve" smooth="yes"/>
      <point x="10.756" y="49.0121"/>
      <point x="6.50384" y="38.7401"/>
      <point x="6.50384" y="28.1882" type="curve" smooth="yes"/>
      <point x="6.50384" y="3.62866"/>
      <point x="33.0471" y="0"/>
    </contour>
  </outline>
</glyph>
<glyph name="bracketleft" format="2">
  <advance width="735"/>
  <unicode hex="005B"/>
  <outline>
    <contour>
      <point x="122.511" y="1556.36" type="curve" smooth="yes"/>
      <point x="122.511" y="1276.84"/>
      <point x="128.511" y="997.235"/>
      <point x="128.511" y="717.652" type="curve" smooth="yes"/>
      <point x="128.511" y="492.436"/>
      <point x="127.216" y="267.22"/>
      <point x="124.633" y="42.0193" type="curve" smooth="yes"/>
      <point x="123.403" y="-65.1545"/>
      <point x="120.067" y="-172.53"/>
      <point x="120.067" y="-279.685" type="curve" smooth="yes"/>
      <point x="120.067" y="-307.503"/>
      <point x="132.769" y="-321.367"/>
      <point x="161.035" y="-321.367" type="curve" smooth="yes"/>
      <point x="640.14" y="-321.367" type="line" smooth="yes"/>
      <point x="668.661" y="-321.367"/>
      <point x="681.108" y="-307.453"/>
      <point x="681.108" y="-279.501" type="curve" smooth="yes"/>
      <point x="681.108" y="-240.669"/>
      <point x="682.727" y="-167.45"/>
      <point x="678.196" y="-131.708" type="curve" smooth="yes"/>
      <point x="674.761" y="-104.625"/>
      <point x="667.552" y="-91.458"/>
      <point x="637.225" y="-91.458" type="curve" smooth="yes"/>
      <point x="392.394" y="-91.458" type="line" smooth="yes"/>
      <point x="384.305" y="-91.458"/>
      <point x="380.106" y="-87.2727"/>
      <point x="380.106" y="-79.1784" type="curve" smooth="yes"/>
      <point x="379.84" y="717.37" type="line"/>
      <point x="380.012" y="1356.48" type="line" smooth="yes"/>
      <point x="380.012" y="1364.58"/>
      <point x="384.209" y="1368.76"/>
      <point x="392.3" y="1368.76" type="curve" smooth="yes"/>
      <point x="634.635" y="1368.76" type="line" smooth="yes"/>
      <point x="665.077" y="1368.76"/>
      <point x="672.242" y="1381.98"/>
      <point x="675.608" y="1409.15" type="curve" smooth="yes"/>
      <point x="680.205" y="1446.25"/>
      <point x="678.024" y="1516.24"/>
      <point x="678.024" y="1556.2" type="curve" smooth="yes"/>
      <point x="678.024" y="1584.06"/>
      <point x="665.385" y="1597.94"/>
      <point x="637.053" y="1597.94" type="curve" smooth="yes"/>
      <point x="163.481" y="1597.94" type="line" smooth="yes"/>
      <point x="135.363" y="1597.94"/>
      <point x="122.511" y="1584.1"/>
    </contour>
  </outline>
</glyph>
<glyph name="backslash" format="2">
  <advance width="586"/>
  <unicode hex="005C"/>
  <outline>
    <contour>
      <point x="136.66" y="1576.79" type="curve" smooth="yes"/>
      <point x="-18.8115" y="1576.79" type="line" smooth="yes"/>
      <point x="-40.0885" y="1576.79"/>
      <point x="-61.8528" y="1571.12"/>
      <point x="-61.8528" y="1545.44" type="curve" smooth="yes"/>
      <point x="-61.8528" y="1537.93"/>
      <point x="-60.1173" y="1530.55"/>
      <point x="-57.9256" y="1523.42" type="curve" smooth="yes"/>
      <point x="43.1526" y="1194.61"/>
      <point x="140.396" y="864.992"/>
      <point x="236.022" y="534.565" type="curve" smooth="yes"/>
      <point x="269.482" y="418.95"/>
      <point x="302.978" y="303.345"/>
      <point x="336.88" y="187.859" type="curve" smooth="yes"/>
      <point x="356.098" y="122.396"/>
      <point x="372.966" y="54.3326"/>
      <point x="395.449" y="-9.97951" type="curve" smooth="yes"/>
      <point x="402.307" y="-29.5966"/>
      <point x="413.215" y="-39.1774"/>
      <point x="434.669" y="-39.1774" type="curve" smooth="yes"/>
      <point x="588.899" y="-39.1774" type="line" smooth="yes"/>
      <point x="610.243" y="-39.1774"/>
      <point x="631.882" y="-33.4429"/>
      <point x="631.882" y="-7.74204" type="curve" smooth="yes"/>
      <point x="631.882" y="-0.326756"/>
      <point x="630.197" y="6.97634"/>
      <point x="628.057" y="14.0298" type="curve" smooth="yes"/>
      <point x="528.204" y="343.159"/>
      <point x="431.64" y="673.015"/>
      <point x="335.974" y="1003.38" type="curve" smooth="yes"/>
      <point x="302.498" y="1118.99"/>
      <point x="268.902" y="1234.55"/>
      <point x="234.816" y="1349.98" type="curve" smooth="yes"/>
      <point x="215.496" y="1415.4"/>
      <point x="198.474" y="1483.43"/>
      <point x="175.849" y="1547.69" type="curve" smooth="yes"/>
      <point x="168.965" y="1567.24"/>
      <point x="158.053" y="1576.79"/>
    </contour>
  </outline>
</glyph>
<glyph name="bracketright" format="2">
  <advance width="735"/>
  <unicode hex="005D"/>
  <outline>
    <contour>
      <point x="615.037" y="-279.688" type="curve" smooth="yes"/>
      <point x="615.037" y="-172.532"/>
      <point x="611.714" y="-65.1572"/>
      <point x="610.49" y="42.0174" type="curve" smooth="yes"/>
      <point x="607.917" y="267.219"/>
      <point x="606.628" y="492.435"/>
      <point x="606.628" y="717.652" type="curve" smooth="yes"/>
      <point x="606.628" y="997.235"/>
      <point x="612.603" y="1276.84"/>
      <point x="612.603" y="1556.36" type="curve" smooth="yes"/>
      <point x="612.603" y="1584.1"/>
      <point x="599.747" y="1597.94"/>
      <point x="571.632" y="1597.94" type="curve" smooth="yes"/>
      <point x="98.0607" y="1597.94" type="line" smooth="yes"/>
      <point x="69.7248" y="1597.94"/>
      <point x="57.0898" y="1584.06"/>
      <point x="57.0898" y="1556.2" type="curve" smooth="yes"/>
      <point x="57.0898" y="1516.56"/>
      <point x="54.9262" y="1446.93"/>
      <point x="59.4979" y="1410.15" type="curve" smooth="yes"/>
      <point x="62.8754" y="1382.98"/>
      <point x="70.0209" y="1369.77"/>
      <point x="100.471" y="1369.77" type="curve" smooth="yes"/>
      <point x="345.811" y="1369.77" type="line" smooth="yes"/>
      <point x="353.904" y="1369.77"/>
      <point x="358.099" y="1365.58"/>
      <point x="358.099" y="1357.48" type="curve" smooth="yes"/>
      <point x="358.243" y="717.366" type="line"/>
      <point x="358.022" y="-78.1711" type="line" smooth="yes"/>
      <point x="358.022" y="-86.2664"/>
      <point x="353.825" y="-90.4521"/>
      <point x="345.734" y="-90.4521" type="curve" smooth="yes"/>
      <point x="97.9066" y="-90.4521" type="line" smooth="yes"/>
      <point x="67.5915" y="-90.4521"/>
      <point x="60.3618" y="-103.618"/>
      <point x="56.9358" y="-130.701" type="curve" smooth="yes"/>
      <point x="52.3764" y="-166.743"/>
      <point x="53.9956" y="-240.362"/>
      <point x="53.9956" y="-279.498" type="curve" smooth="yes"/>
      <point x="53.9956" y="-307.453"/>
      <point x="66.4389" y="-321.367"/>
      <point x="94.9636" y="-321.367" type="curve" smooth="yes"/>
      <point x="574.068" y="-321.367" type="line" smooth="yes"/>
      <point x="602.331" y="-321.367"/>
      <point x="615.037" y="-307.504"/>
    </contour>
  </outline>
</glyph>
<glyph name="asciicircum" format="2">
  <advance width="956"/>
  <unicode hex="005E"/>
  <outline>
    <contour>
      <point x="654.905" y="1025.47" type="curve" smooth="yes"/>
      <point x="718.362" y="1025.47" type="line" smooth="yes"/>
      <point x="732.62" y="1025.47"/>
      <point x="764.864" y="1026.33"/>
      <point x="764.864" y="1047.2" type="curve" smooth="yes"/>
      <point x="764.864" y="1060.52"/>
      <point x="753.842" y="1074.25"/>
      <point x="745.987" y="1084.02" type="curve" smooth="yes"/>
      <point x="667.632" y="1181.5"/>
      <point x="588.398" y="1280.38"/>
      <point x="506.206" y="1374.59" type="curve" smooth="yes"/>
      <point x="498.167" y="1383.81"/>
      <point x="488.011" y="1393.4"/>
      <point x="474.912" y="1393.4" type="curve" smooth="yes"/>
      <point x="461.857" y="1393.4"/>
      <point x="451.709" y="1383.87"/>
      <point x="443.669" y="1374.71" type="curve" smooth="yes"/>
      <point x="361.325" y="1280.82"/>
      <point x="282.387" y="1181.84"/>
      <point x="203.932" y="1084.62" type="curve" smooth="yes"/>
      <point x="196.121" y="1074.94"/>
      <point x="184.711" y="1060.53"/>
      <point x="184.711" y="1047.34" type="curve" smooth="yes"/>
      <point x="184.711" y="1026.3"/>
      <point x="217.383" y="1025.47"/>
      <point x="231.727" y="1025.47" type="curve" smooth="yes"/>
      <point x="295.922" y="1025.47" type="line" smooth="yes"/>
      <point x="335.048" y="1025.47"/>
      <point x="449.048" y="1161.18"/>
      <point x="474.934" y="1161.18" type="curve" smooth="yes"/>
      <point x="499.06" y="1161.18"/>
      <point x="615.435" y="1025.47"/>
    </contour>
  </outline>
</glyph>
<glyph name="underscore" format="2">
  <advance width="891"/>
  <unicode hex="005F"/>
  <outline>
    <contour>
      <point x="104.831" y="41.6606" type="curve" smooth="yes"/>
      <point x="104.831" y="13.7762"/>
      <point x="117.509" y="0"/>
      <point x="145.806" y="0" type="curve" smooth="yes"/>
      <point x="746.314" y="0" type="line" smooth="yes"/>
      <point x="774.611" y="0"/>
      <point x="787.289" y="13.7762"/>
      <point x="787.289" y="41.6606" type="curve" smooth="yes"/>
      <point x="787.289" y="85.6136"/>
      <point x="786.93" y="130.153"/>
      <point x="785.361" y="174.07" type="curve" smooth="yes"/>
      <point x="784.392" y="201.175"/>
      <point x="772.057" y="214.536"/>
      <point x="744.384" y="214.536" type="curve" smooth="yes"/>
      <point x="147.736" y="214.536" type="line" smooth="yes"/>
      <point x="120.063" y="214.536"/>
      <point x="107.728" y="201.175"/>
      <point x="106.759" y="174.07" type="curve" smooth="yes"/>
      <point x="105.19" y="130.153"/>
      <point x="104.831" y="85.6136"/>
    </contour>
  </outline>
</glyph>
<glyph name="grave" format="2">
  <advance width="715"/>
  <unicode hex="0060"/>
  <outline>
    <contour>
      <point x="438.824" y="1025.47" type="curve" smooth="yes"/>
      <point x="502.865" y="1025.47" type="line" smooth="yes"/>
      <point x="517.9" y="1025.47"/>
      <point x="551.36" y="1026.44"/>
      <point x="551.36" y="1048.36" type="curve" smooth="yes"/>
      <point x="551.36" y="1062.23"/>
      <point x="540.12" y="1076.4"/>
      <point x="532.013" y="1086.66" type="curve" smooth="yes"/>
      <point x="477.049" y="1156.28"/>
      <point x="421.08" y="1228.22"/>
      <point x="362.394" y="1294.63" type="curve" smooth="yes"/>
      <point x="353.763" y="1304.4"/>
      <point x="343.98" y="1309.61"/>
      <point x="330.741" y="1309.61" type="curve" smooth="yes"/>
      <point x="193.835" y="1309.61" type="line" smooth="yes"/>
      <point x="179.475" y="1309.61"/>
      <point x="128.741" y="1309.81"/>
      <point x="128.741" y="1286.65" type="curve" smooth="yes"/>
      <point x="128.741" y="1269.2"/>
      <point x="155.873" y="1246.75"/>
      <point x="167.854" y="1236.76" type="curve" smooth="yes"/>
      <point x="248.743" y="1169.36"/>
      <point x="329.469" y="1099.25"/>
      <point x="412.688" y="1034.89" type="curve" smooth="yes"/>
      <point x="420.414" y="1028.92"/>
      <point x="428.954" y="1025.47"/>
    </contour>
  </outline>
</glyph>
<glyph name="a" format="2">
  <advance width="1135"/>
  <unicode hex="0061"/>
  <anchor x="583" y="0" name="bottom"/>
  <anchor x="1201" y="22" name="ogonek"/>
  <anchor x="616" y="942" name="top"/>
  <outline>
    <contour>
      <point x="453.593" y="-19.083" type="curve" smooth="yes"/>
      <point x="579.42" y="-19.083"/>
      <point x="683.554" y="32.9744"/>
      <point x="778.735" y="111.394" type="curve" smooth="yes"/>
      <point x="782.336" y="114.361"/>
      <point x="787.256" y="118.923"/>
      <point x="792.396" y="118.923" type="curve" smooth="yes"/>
      <point x="799.939" y="118.923"/>
      <point x="799.869" y="106.389"/>
      <point x="799.914" y="102.13" type="curve" smooth="yes"/>
      <point x="800.308" y="65.0585"/>
      <point x="786.621" y="0"/>
      <point x="841.525" y="0" type="curve" smooth="yes"/>
      <point x="999.039" y="0" type="line" smooth="yes"/>
      <point x="1027.73" y="0"/>
      <point x="1040.02" y="13.8375"/>
      <point x="1040.02" y="41.93" type="curve" smooth="yes"/>
      <point x="1040.02" y="114.438"/>
      <point x="1037.04" y="187.207"/>
      <point x="1035.94" y="259.738" type="curve" smooth="yes"/>
      <point x="1033.63" y="412.213"/>
      <point x="1032.46" y="564.705"/>
      <point x="1032.46" y="717.198" type="curve" smooth="yes"/>
      <point x="1032.82" y="863.416" type="line" smooth="yes"/>
      <point x="1032.82" y="890.839"/>
      <point x="1019.39" y="904.632"/>
      <point x="991.834" y="904.632" type="curve" smooth="yes"/>
      <point x="850.741" y="904.632" type="line" smooth="yes"/>
      <point x="786.949" y="904.632"/>
      <point x="816.449" y="804.655"/>
      <point x="793.133" y="804.655" type="curve" smooth="yes"/>
      <point x="788.331" y="804.655"/>
      <point x="783.998" y="808.825"/>
      <point x="780.718" y="811.701" type="curve" smooth="yes"/>
      <point x="696.862" y="885.211"/>
      <point x="602.565" y="929.592"/>
      <point x="489.397" y="929.592" type="curve" smooth="yes"/>
      <point x="217.149" y="929.592"/>
      <point x="62.6337" y="698.417"/>
      <point x="58.1263" y="446.488" type="curve" smooth="yes"/>
      <point x="57.9422" y="430.779" type="line" smooth="yes"/>
      <point x="57.9422" y="189.887"/>
      <point x="193.768" y="-19.083"/>
    </contour>
    <contour>
      <point x="555.172" y="191.51" type="curve" smooth="yes"/>
      <point x="409.054" y="191.51"/>
      <point x="298.414" y="318.446"/>
      <point x="298.414" y="460.803" type="curve" smooth="yes"/>
      <point x="298.414" y="605.114"/>
      <point x="395.018" y="733.964"/>
      <point x="547.444" y="733.964" type="curve" smooth="yes"/>
      <point x="641.371" y="733.964"/>
      <point x="734.021" y="690.781"/>
      <point x="779.913" y="605.959" type="curve" smooth="yes"/>
      <point x="784.214" y="598.009"/>
      <point x="795.422" y="574.279"/>
      <point x="796.992" y="565.305" type="curve" smooth="yes"/>
      <point x="801.19" y="541.302"/>
      <point x="797.855" y="394.55"/>
      <point x="797.855" y="358.565" type="curve" smooth="yes"/>
      <point x="797.855" y="353.004"/>
      <point x="783.262" y="321.948"/>
      <point x="780.734" y="317.077" type="curve" smooth="yes"/>
      <point x="735.461" y="229.87"/>
      <point x="650.5" y="191.51"/>
    </contour>
  </outline>
</glyph>
<glyph name="b" format="2">
  <advance width="1135"/>
  <unicode hex="0062"/>
  <anchor x="557" y="0" name="bottom"/>
  <anchor x="557" y="905" name="top"/>
  <outline>
    <contour>
      <point x="1076.98" y="451.535" type="curve" smooth="yes"/>
      <point x="1076.98" y="715.899"/>
      <point x="928.352" y="929.592"/>
      <point x="646.615" y="929.592" type="curve" smooth="yes"/>
      <point x="540.554" y="929.592"/>
      <point x="443.215" y="898.575"/>
      <point x="357.167" y="836.911" type="curve" smooth="yes"/>
      <point x="353.456" y="834.252"/>
      <point x="348.787" y="830.482"/>
      <point x="343.871" y="830.482" type="curve" smooth="yes"/>
      <point x="336.224" y="830.482"/>
      <point x="336.231" y="842.332"/>
      <point x="336.231" y="846.88" type="curve" smooth="yes"/>
      <point x="336.231" y="971.904"/>
      <point x="335.303" y="1096.94"/>
      <point x="334.26" y="1221.96" type="curve" smooth="yes"/>
      <point x="333.881" y="1267.36"/>
      <point x="337.354" y="1360.79"/>
      <point x="332.509" y="1400.56" type="curve" smooth="yes"/>
      <point x="329.19" y="1427.79"/>
      <point x="322.116" y="1441.03"/>
      <point x="291.565" y="1441.03" type="curve" smooth="yes"/>
      <point x="135.928" y="1441.03" type="line" smooth="yes"/>
      <point x="107.221" y="1441.03"/>
      <point x="94.951" y="1427.19"/>
      <point x="94.951" y="1399.09" type="curve" smooth="yes"/>
      <point x="94.951" y="1325.85"/>
      <point x="98.0035" y="1252.34"/>
      <point x="99.1265" y="1179.07" type="curve" smooth="yes"/>
      <point x="101.487" y="1025.06"/>
      <point x="102.668" y="871.019"/>
      <point x="102.668" y="716.983" type="curve" smooth="yes"/>
      <point x="102.668" y="564.54"/>
      <point x="101.512" y="412.097"/>
      <point x="99.199" y="259.672" type="curve" smooth="yes"/>
      <point x="98.0989" y="187.165"/>
      <point x="95.1086" y="114.419"/>
      <point x="95.1086" y="41.9349" type="curve" smooth="yes"/>
      <point x="95.1086" y="13.8389"/>
      <point x="107.392" y="0"/>
      <point x="136.086" y="0" type="curve" smooth="yes"/>
      <point x="295.795" y="0" type="line" smooth="yes"/>
      <point x="343.616" y="0"/>
      <point x="334.09" y="44.2148"/>
      <point x="334.953" y="76.6503" type="curve" smooth="yes"/>
      <point x="335.054" y="80.4524"/>
      <point x="334.802" y="95.0693"/>
      <point x="342.337" y="95.0693" type="curve" smooth="yes"/>
      <point x="347.779" y="95.0693"/>
      <point x="353.895" y="88.8504"/>
      <point x="357.46" y="85.6698" type="curve" smooth="yes"/>
      <point x="437.256" y="14.4918"/>
      <point x="529.002" y="-19.1109"/>
      <point x="635.976" y="-19.1109" type="curve" smooth="yes"/>
      <point x="905.934" y="-19.1109"/>
      <point x="1076.98" y="191.335"/>
    </contour>
    <contour>
      <point x="588.873" y="199.52" type="curve" smooth="yes"/>
      <point x="473.306" y="199.52"/>
      <point x="379.948" y="253.508"/>
      <point x="337.308" y="363.562" type="curve"/>
      <point x="338.003" y="516.091" type="line" smooth="yes"/>
      <point x="338.059" y="533.007"/>
      <point x="335.339" y="556.993"/>
      <point x="338.165" y="573.29" type="curve" smooth="yes"/>
      <point x="339.961" y="583.648"/>
      <point x="354.115" y="611.145"/>
      <point x="359.843" y="620.626" type="curve" smooth="yes"/>
      <point x="408.179" y="700.642"/>
      <point x="497.45" y="739.952"/>
      <point x="588.676" y="739.952" type="curve" smooth="yes"/>
      <point x="740.393" y="739.952"/>
      <point x="837.677" y="611.184"/>
      <point x="837.677" y="467.351" type="curve" smooth="yes"/>
      <point x="837.677" y="325.524"/>
      <point x="736.603" y="199.52"/>
    </contour>
  </outline>
</glyph>
<glyph name="c" format="2">
  <advance width="823"/>
  <unicode hex="0063"/>
  <anchor x="389" y="0" name="bottom"/>
  <anchor x="440" y="924" name="top"/>
  <outline>
    <contour>
      <point x="686.528" y="227.548" type="curve" smooth="yes"/>
      <point x="678.123" y="227.548"/>
      <point x="670.31" y="224.845"/>
      <point x="662.587" y="221.838" type="curve" smooth="yes"/>
      <point x="615.55" y="203.526"/>
      <point x="569.832" y="190.932"/>
      <point x="518.893" y="190.932" type="curve" smooth="yes"/>
      <point x="362.274" y="190.932"/>
      <point x="290.913" y="304.557"/>
      <point x="290.913" y="449.959" type="curve" smooth="yes"/>
      <point x="290.913" y="600.329"/>
      <point x="368.432" y="717.282"/>
      <point x="529.101" y="717.282" type="curve" smooth="yes"/>
      <point x="575.645" y="717.282"/>
      <point x="618.251" y="706.903"/>
      <point x="661.68" y="691.067" type="curve" smooth="yes"/>
      <point x="669.294" y="688.291"/>
      <point x="676.947" y="685.796"/>
      <point x="685.155" y="685.796" type="curve" smooth="yes"/>
      <point x="703.252" y="685.796"/>
      <point x="713.465" y="698.708"/>
      <point x="719.728" y="714.163" type="curve" smooth="yes"/>
      <point x="729.04" y="737.142"/>
      <point x="770.057" y="827.552"/>
      <point x="770.057" y="847.033" type="curve" smooth="yes"/>
      <point x="770.057" y="863.42"/>
      <point x="760.342" y="870.896"/>
      <point x="747.333" y="878.281" type="curve" smooth="yes"/>
      <point x="683.335" y="914.609"/>
      <point x="586.279" y="929.761"/>
      <point x="513.642" y="929.761" type="curve" smooth="yes"/>
      <point x="229.359" y="929.761"/>
      <point x="54.1945" y="720.259"/>
      <point x="54.1945" y="444.438" type="curve" smooth="yes"/>
      <point x="54.1945" y="164.744"/>
      <point x="214.782" y="-17.7983"/>
      <point x="500.672" y="-17.7983" type="curve" smooth="yes"/>
      <point x="547.988" y="-17.7983"/>
      <point x="769.878" y="5.18794"/>
      <point x="769.878" y="64.8912" type="curve" smooth="yes"/>
      <point x="769.878" y="77.4377"/>
      <point x="728.451" y="182.534"/>
      <point x="720.688" y="198.679" type="curve" smooth="yes"/>
      <point x="713.205" y="214.241"/>
      <point x="706.246" y="227.548"/>
    </contour>
  </outline>
</glyph>
<glyph name="d" format="2">
  <advance width="1139"/>
  <unicode hex="0064"/>
  <anchor x="583" y="0" name="bottom"/>
  <anchor x="920" y="1348" name="center"/>
  <anchor x="583" y="905" name="top"/>
  <anchor x="1162" y="905" name="topright"/>
  <outline>
    <contour>
      <point x="476.781" y="-19.108" type="curve" smooth="yes"/>
      <point x="592.224" y="-19.108"/>
      <point x="693.357" y="21.2887"/>
      <point x="782.722" y="92.8048" type="curve" smooth="yes"/>
      <point x="786.403" y="95.7507"/>
      <point x="791.351" y="100.275"/>
      <point x="796.529" y="100.275" type="curve" smooth="yes"/>
      <point x="804.174" y="100.275"/>
      <point x="803.98" y="87.6886"/>
      <point x="804.093" y="83.3876" type="curve" smooth="yes"/>
      <point x="805.007" y="48.3509"/>
      <point x="794.422" y="0"/>
      <point x="845.515" y="0" type="curve" smooth="yes"/>
      <point x="1003.03" y="0" type="line" smooth="yes"/>
      <point x="1031.73" y="0"/>
      <point x="1044.01" y="13.8394"/>
      <point x="1044.01" y="41.937" type="curve" smooth="yes"/>
      <point x="1044.01" y="114.42"/>
      <point x="1041.01" y="187.167"/>
      <point x="1039.91" y="259.673" type="curve" smooth="yes"/>
      <point x="1037.59" y="412.098"/>
      <point x="1036.43" y="564.54"/>
      <point x="1036.43" y="716.983" type="curve" smooth="yes"/>
      <point x="1036.43" y="871.019"/>
      <point x="1037.62" y="1025.05"/>
      <point x="1039.98" y="1179.07" type="curve" smooth="yes"/>
      <point x="1041.11" y="1252.33"/>
      <point x="1044.17" y="1325.84"/>
      <point x="1044.17" y="1399.08" type="curve" smooth="yes"/>
      <point x="1044.17" y="1427.19"/>
      <point x="1031.9" y="1441.03"/>
      <point x="1003.19" y="1441.03" type="curve" smooth="yes"/>
      <point x="846.555" y="1441.03" type="line" smooth="yes"/>
      <point x="817.363" y="1441.03"/>
      <point x="807.839" y="1427.82"/>
      <point x="805.611" y="1400.56" type="curve" smooth="yes"/>
      <point x="800.854" y="1342.34"/>
      <point x="804.348" y="1280.46"/>
      <point x="803.859" y="1221.84" type="curve" smooth="yes"/>
      <point x="802.816" y="1096.75"/>
      <point x="801.888" y="971.636"/>
      <point x="801.888" y="846.533" type="curve" smooth="yes"/>
      <point x="801.888" y="842.376"/>
      <point x="802.009" y="829.033"/>
      <point x="794.427" y="829.033" type="curve" smooth="yes"/>
      <point x="789.041" y="829.033"/>
      <point x="783.868" y="833.843"/>
      <point x="780.03" y="836.869" type="curve" smooth="yes"/>
      <point x="699.136" y="900.62"/>
      <point x="605.936" y="929.592"/>
      <point x="503.196" y="929.592" type="curve" smooth="yes"/>
      <point x="214.88" y="929.592"/>
      <point x="58.1765" y="724.152"/>
      <point x="58.1765" y="449.135" type="curve" smooth="yes"/>
      <point x="58.1765" y="193.847"/>
      <point x="204.709" y="-19.108"/>
    </contour>
    <contour>
      <point x="549.247" y="199.52" type="curve" smooth="yes"/>
      <point x="404.996" y="199.52"/>
      <point x="298.47" y="328.137"/>
      <point x="298.47" y="467.29" type="curve" smooth="yes"/>
      <point x="298.47" y="612.482"/>
      <point x="396.867" y="739.952"/>
      <point x="549.444" y="739.952" type="curve" smooth="yes"/>
      <point x="643.352" y="739.952"/>
      <point x="737.309" y="697.993"/>
      <point x="783.699" y="613.084" type="curve" smooth="yes"/>
      <point x="788.103" y="605.023"/>
      <point x="799.333" y="581.406"/>
      <point x="800.94" y="572.292" type="curve" smooth="yes"/>
      <point x="803.587" y="557.284"/>
      <point x="801.019" y="541.813"/>
      <point x="801.067" y="526.574" type="curve" smooth="yes"/>
      <point x="801.781" y="366.56" type="line"/>
      <point x="760.551" y="252.931"/>
      <point x="667.086" y="199.52"/>
    </contour>
  </outline>
</glyph>
